<svg xmlns="http://www.w3.org/2000/svg" xmlns:svg="http://www.w3.org/2000/svg" id="svg6530" width="16" height="16" version="1.1" viewBox="0 0 16 16"><metadata id="metadata6535"/><g id="layer1" transform="translate(-151.99977,-676.3588)"><path id="path7592" d="m 157.99979,677.3588 0,1 4,0 0,-1 -4,0 z m -2.15625,2 c -0.28125,0.0469 -0.84375,0.25 -0.84375,1 l 0,10 c 0,1 1,1 1,1 l 4,0 c -0.73168,0 -1.37007,-0.40315 -1.71875,-1 l -2.28125,0 0,-6.9375 0,-3.0625 1.3125,0 c 0.66014,-0.57863 1.50778,-0.94787 2.4375,-1 l -3.75,0 c 0,0 -0.0625,-0.0156 -0.15625,0 z m 4.15625,12 4,0 c 1,0 1,-1 1,-1 l 0,-10 c 0,0 0,-1 -1,-1 l -4.1875,0 c 1.0637,-0.0426 2.05453,0.34205 2.8125,1 l 1.375,0 0,2.75 0,0.0312 0,0.0312 0,7.1875 -2.28125,0 c -0.34868,0.59685 -0.98707,1 -1.71875,1 z" style="opacity:.35;fill:#444;fill-opacity:1;stroke:none"/><path id="path19592-2-3" d="m 159.81229,680.3588 c 1.64243,-0.092 3.0955,1.17008 3.1875,2.8125 -1e-4,1.40136 -0.37771,1.92177 -1.59375,2.84375 -0.19093,0.14364 -0.3256,0.2506 -0.375,0.3125 -0.0494,0.0621 -0.0312,0.0332 -0.0312,0.0312 0.007,0.52831 -0.47163,1 -1,1 -0.52837,0 -1.007,-0.47169 -1,-1 0,-0.50239 0.22424,-0.94342 0.46875,-1.25 0.24451,-0.30663 0.4913,-0.51638 0.71875,-0.6875 0.20405,-0.16056 0.46083,-0.38454 0.6875,-0.65625 0.0935,-0.1121 0.129,-0.30766 0.125,-0.4375 l 0,-0.0312 c -0.0316,-0.56324 -0.49926,-0.9691 -1.0625,-0.9375 -0.56324,0.0316 -0.9691,0.43676 -0.9375,1 l -2,0 c -0.092,-1.64243 1.17007,-2.9079 2.8125,-3 z m 0.1875,8 c 0.55228,0 1,0.44772 1,1 0,0.55228 -0.44772,1 -1,1 -0.55228,0 -1,-0.44772 -1,-1 0,-0.55228 0.44772,-1 1,-1 z" style="color:#bebebe;display:inline;overflow:visible;visibility:visible;fill:#444;fill-opacity:1;stroke:none;stroke-width:2;marker:none"/></g></svg>