<svg xmlns="http://www.w3.org/2000/svg" xmlns:svg="http://www.w3.org/2000/svg" id="svg6530" width="16" height="16" version="1.1" viewBox="0 0 16 16"><metadata id="metadata6535"/><g id="layer1" transform="translate(-175.99977,-700.3588)"><path id="path1070" d="m 185.99977,701.3588 0,1 -3,0 -1,0 0,-1 z m 2,2 c 1,0 1,1 1,1 l 2e-5,4.0625 c 1.14126,0.23235 2,1.22563 2,2.4375 l 0,0.5 -1,0 0,2 -1,0 0,-2 -1,0 0,2 -1,0 0,-2 -1,0 0,-0.5 c 0,-1.21187 0.85874,-2.20515 2,-2.4375 l -2e-5,-4.0625 -6,0 -1,0 -1,0 0,10 8,0 2e-5,0 1,0 c 0,1 -1.00002,1 -1.00002,1 l -8,0 c -1,0 -1,-1 -1,-1 l 0,-10 c 0,0 0,-1 1,-1 l 1,0 1,0 z m -1,2 2e-5,2.5625 c -1.12055,0.58172 -2,1.59282 -2,2.9375 l 0,0.5 0,1 1,0 0,1 c 0,0 -4.65537,0 -5.00002,0 l 0,-8 1,0 1,0 z" style="color:#000;display:inline;overflow:visible;visibility:visible;fill:#444;fill-opacity:1;stroke:none;stroke-width:2;marker:none;enable-background:accumulate"/></g></svg>