<svg xmlns="http://www.w3.org/2000/svg" xmlns:svg="http://www.w3.org/2000/svg" id="svg6530" width="16" height="16" version="1.1" viewBox="0 0 16 16"><metadata id="metadata6535"/><g id="layer1" transform="translate(-79.999793,-576.3588)"><path id="path9049" d="m 89.99979,576.82755 0,1.03125 0,1.5 -2.5,0 -0.5,0 0,1 0.5,0 3,0 0.5,0 0,-0.5 0,-0.96875 3.40627,2.9687 -3.40627,2.9688 0,-0.96875 0,-0.5 -0.5,0 -2.5,0 -2,0 0,-1.5 0,-1.03125 -0.8125,0.65625 -5.18748,4.375 0,0 0,0 5.18748,4.375 0.8125,0.65625 0,-1.03125 0,-1.5 2.5,0 0.5,0 0,-1 -0.5,0 -3,0 -0.5,0 0,0.5 0,0.96875 -3.40623,-2.96875 3.40623,-2.96875 0,0.96875 0,0.5 0.5,0 2.5,0 2,0 0,1.5 0,1.03125 0.0625,-0.0312 c 0.25416,-1.40198 1.46548,-2.5 2.9375,-2.5 0.0428,0 0.0826,-0.002 0.125,0 l 2.875,-2.50006 2e-5,10e-6 0,0 -5.18752,-4.37495 -0.8125,-0.65625 z" style="fill:#444;fill-opacity:1;stroke:none"/><path id="path9053" d="m 92.99979,585.3588 c -1.108,0 -2,0.91085 -2,2.03125 l 0,0.96875 -1,0 0,1 0,2 0,1 1,0 4,0 1,0 0,-1 0,-2 0,-1 -1,0 0,-0.96875 c 0,-1.1199 -0.892,-2.03125 -2,-2.03125 z m 0,1 c 0.554,0 1,0.4424 1,1 l 0,1 -2,0 0,-1 c 0,-0.5576 0.446,-1 1,-1 z" style="fill:#ef2929;fill-opacity:1;stroke:none"/></g></svg>