<svg xmlns="http://www.w3.org/2000/svg" xmlns:svg="http://www.w3.org/2000/svg" id="svg6530" width="16.003" height="16.003" version="1.1" viewBox="0 0 16.003 16.003"><metadata id="metadata6535"/><g id="layer1" transform="translate(-55.997013,-528.35883)"><path id="path9108" d="m 64.03125,530.35825 c -3.03435,0 -5.76588,1.07815 -8.03125,2.75 l 8.03125,8.75 0.96875,-1.06836 0,-1.42773 1.013672,0 c 0.01965,-1.63493 1.342515,-3 2.986328,-3 0.006,0 0.01156,0.002 0.01758,0.002 L 72,533.077 c -2.25661,-1.65329 -4.9577,-2.71875 -7.96875,-2.71875 z m -0.0625,1 c 2.39362,0 4.52424,0.83638 6.4375,2.03125 l -6.4375,7 -6.375,-7.03125 c 1.90092,-1.17864 4.00536,-2 6.375,-2 z" style="color:#000;display:inline;overflow:visible;visibility:visible;fill:#444;fill-opacity:1;fill-rule:nonzero;stroke:none;stroke-width:1;marker:none;enable-background:accumulate"/><path id="path9110" d="m 63.96856,533.32755 c -1.48743,0 -2.84903,0.42163 -4.09375,1.0625 l 4.09375,4.5 4.125,-4.46875 c -1.25406,-0.64891 -2.62459,-1.09375 -4.125,-1.09375 z" style="color:#000;display:inline;overflow:visible;visibility:visible;fill:#444;fill-opacity:1;fill-rule:nonzero;stroke:none;stroke-width:1;marker:none;enable-background:accumulate"/><path id="path9147" d="m 69,537.36216 c -1.108,0 -2,0.91085 -2,2.03125 l 0,0.96875 -1,0 0,1 0,2 0,1 1,0 4,0 1,0 0,-1 0,-2 0,-1 -1,0 0,-0.96875 c 0,-1.1199 -0.892,-2.03125 -2,-2.03125 z m 0,1 c 0.554,0 1,0.4424 1,1 l 0,1 -2,0 0,-1 c 0,-0.5576 0.446,-1 1,-1 z" style="color:#000;display:inline;overflow:visible;visibility:visible;opacity:1;fill:#444;fill-opacity:1;fill-rule:nonzero;stroke:none;stroke-width:1;marker:none;enable-background:accumulate"/></g></svg>