<svg xmlns="http://www.w3.org/2000/svg" xmlns:svg="http://www.w3.org/2000/svg" id="svg6530" width="16.031" height="16" version="1.1" viewBox="0 0 16.031 16"><metadata id="metadata6535"/><g id="layer1" transform="translate(-151.96875,-504.36047)"><path id="path5677" d="m 160,506.36216 c -3.03435,0 -5.76588,1.07815 -8.03125,2.75 l 0.23242,0.25391 15.50977,0 0.25781,-0.28516 c -2.25661,-1.65329 -4.9577,-2.71875 -7.96875,-2.71875 z m -2.29102,9.00391 2.29102,2.49609 2.26562,-2.49609 -4.55664,0 z" style="color:#000;display:inline;overflow:visible;visibility:visible;opacity:.35;fill:#444;fill-opacity:1;fill-rule:nonzero;stroke:none;stroke-width:1;marker:none;enable-background:accumulate"/><path id="rect8040-5" d="m 154.99742,510.36271 c -1.108,0 -2,0.892 -2,2 0,1.108 0.892,2 2,2 1.108,0 2,-0.892 2,-2 0,-1.108 -0.892,-2 -2,-2 z m 5,0 c -1.108,0 -2,0.892 -2,2 0,1.108 0.892,2 2,2 1.108,0 2,-0.892 2,-2 0,-1.108 -0.892,-2 -2,-2 z m 5,0 c -1.108,0 -2,0.892 -2,2 0,1.108 0.892,2 2,2 1.108,0 2,-0.892 2,-2 0,-1.108 -0.892,-2 -2,-2 z" style="color:#000;display:inline;overflow:visible;visibility:visible;fill:#444;fill-opacity:1;fill-rule:nonzero;stroke:none;stroke-width:1;marker:none;enable-background:new"/></g></svg>