<svg xmlns="http://www.w3.org/2000/svg" xmlns:svg="http://www.w3.org/2000/svg" id="svg6530" width="16" height="16" version="1.1" viewBox="0 0 16 16"><metadata id="metadata6535"/><g id="layer1" transform="translate(-32.000227,-868.36054)"><rect id="rect5820" width="2" height="7.003" x="39" y="869.361" rx="1" ry="1" style="color:#bebebe;fill:#444;fill-opacity:1;stroke:none"/><path id="path6796" d="m 42.93925,871.35218 a 1.0001,1.0001 0 0 0 -0.54297,1.80859 c 1.37787,1.03069 1.94105,2.81633 1.4043,4.45118 -0.53674,1.63484 -2.04888,2.73855 -3.76953,2.75195 -1.72065,0.0134 -3.25036,-1.06707 -3.8125,-2.69336 -0.56214,-1.62629 -0.0257,-3.42064 1.33594,-4.47266 a 1.0001,1.0001 0 1 0 -1.22266,-1.58203 c -2.03498,1.57224 -2.84207,4.27849 -2.00195,6.70899 0.84011,2.43049 3.14528,4.05908 5.7168,4.03906 2.57151,-0.02 4.85213,-1.68562 5.65429,-4.12891 0.80217,-2.44328 -0.0482,-5.13542 -2.10742,-6.67578 a 1.0001,1.0001 0 0 0 -0.6543,-0.20703 z" style="color:#000;font-style:normal;font-variant:normal;font-weight:400;font-stretch:normal;font-size:medium;line-height:normal;font-family:sans-serif;text-indent:0;text-align:start;text-decoration:none;text-decoration-line:none;text-decoration-style:solid;text-decoration-color:#000;letter-spacing:normal;word-spacing:normal;text-transform:none;direction:ltr;block-progression:tb;writing-mode:lr-tb;baseline-shift:baseline;text-anchor:start;white-space:normal;clip-rule:nonzero;display:inline;overflow:visible;visibility:visible;opacity:1;isolation:auto;mix-blend-mode:normal;color-interpolation:sRGB;color-interpolation-filters:linearRGB;solid-color:#000;solid-opacity:1;fill:#444;fill-opacity:1;fill-rule:nonzero;stroke:none;stroke-width:2;stroke-linecap:round;stroke-linejoin:round;stroke-miterlimit:4;stroke-dasharray:none;stroke-dashoffset:0;stroke-opacity:1;color-rendering:auto;image-rendering:auto;shape-rendering:auto;text-rendering:auto;enable-background:accumulate"/></g></svg>