<svg xmlns="http://www.w3.org/2000/svg" xmlns:svg="http://www.w3.org/2000/svg" id="svg6530" width="16" height="16" version="1.1" viewBox="0 0 16 16"><metadata id="metadata6535"/><g id="layer1" transform="translate(-176.0002,-820.36052)"><path id="path3003" d="m 179.0002,822.36052 c 0,0 -2,0 -2,2 l 0,6 c 0,2 2,2 2,2 l 4.9998,-2e-5 2,3.00338 2,-3.00338 1.0002,2e-5 c 1.108,2e-5 2,-0.892 2,-2 l 0,-1 0,-2 0,-3 c 0,-2 -1.96875,-2 -1.96875,-2 z m 4,1 2,0 0,3 0,2 -2,0 -2,0 -1,0 0,-2 1,0 2,0 z" style="fill:#444;fill-opacity:1;stroke:none"/></g></svg>