<svg xmlns="http://www.w3.org/2000/svg" xmlns:svg="http://www.w3.org/2000/svg" id="svg6530" width="16" height="16" version="1.1" viewBox="0 0 16 16"><metadata id="metadata6535"/><g id="layer1" transform="translate(-31.999958,-940.32806)"><path id="path5178" d="m 39,940.33091 -0.5,1.03125 c 0.16191,-0.0133 0.3348,-0.0312 0.5,-0.0312 l 0.5,0 -0.5,-1 z m 0,2 c -2.76142,0 -5,2.23859 -5,5 0,0.46958 0.07869,0.91712 0.201172,1.3457 0.514915,-0.53202 1.171105,-0.93095 1.914062,-1.12304 0.82344,-1.40536 2.240216,-2.44141 3.982422,-2.44141 1.642432,0 3.059043,0.86234 3.898438,2.14648 C 43.956902,944.53102 41.736948,942.33091 39,942.33091 Z m -4.9375,0.0625 0.34375,1.0625 c 0.21905,-0.25922 0.45953,-0.4997 0.71875,-0.71875 l -1.0625,-0.34375 z m 9.875,0 -1.09375,0.375 -0.0625,0 c 0.13917,0.11095 0.27498,0.22511 0.40625,0.34375 0.13127,0.11864 0.25799,0.24175 0.375,0.375 l 0.375,-1.09375 z M 33,946.83091 l -1,0.5 1.03125,0.5 C 33.01645,947.6616 33,947.50451 33,947.33091 c 0,-0.0275 -0.002,-0.0836 0,-0.15625 0.006,-0.11583 0.02235,-0.23224 0.03125,-0.34375 l -0.03125,0 z m 11.96875,0 c 0.0148,0.16931 0.03125,0.3264 0.03125,0.5 0,0.0275 0.002,0.0836 0,0.15625 -0.006,0.11583 -0.02235,0.23224 -0.03125,0.34375 l 0.03125,0 1,-0.5 -1.03125,-0.5 z m -4.871094,0.28125 c -1.145166,0 -2.106772,0.69777 -2.52539,1.6875 l -0.21875,0.51758 -0.554688,0.082 c -0.704444,0.10472 -1.279099,0.56023 -1.542969,1.18945 0.61174,0.68793 1.401213,1.21647 2.306641,1.49219 0.46885,-0.67743 1.17975,-1.20533 1.96875,-1.4375 0.536031,-1.14348 1.622696,-2.05414 2.873047,-2.26367 -0.487856,-0.75882 -1.331897,-1.26755 -2.306641,-1.26755 z m -4.935547,4.73438 c 0.0039,0.0162 0.0113,0.0309 0.01563,0.0469 l 0.04102,0 c -0.01923,-0.0153 -0.03755,-0.0314 -0.05664,-0.0469 z" style="color:#bebebe;display:inline;overflow:visible;visibility:visible;fill:#444;fill-opacity:1;fill-rule:nonzero;stroke:none;stroke-width:2;marker:none;enable-background:accumulate"/><path id="path5163" d="m 40.096813,946.11216 c -1.553303,0 -2.876033,0.95094 -3.445313,2.29688 -1.445872,0.21495 -2.554687,1.44744 -2.554687,2.95312 0,1.65686 1.343145,3 3,3 l 6.375,0 c 1.44975,0 2.625,-1.17525 2.625,-2.625 0,-1.3474 -1.013093,-2.45152 -2.320313,-2.60156 -0.340927,-1.72004 -1.859535,-3.02344 -3.679687,-3.02344 z" style="display:inline;fill:#444;fill-opacity:1;stroke:none;enable-background:new"/></g></svg>