<svg xmlns="http://www.w3.org/2000/svg" xmlns:osb="http://www.openswatchbook.org/uri/2009/osb" xmlns:svg="http://www.w3.org/2000/svg" id="svg6530" width="24" height="24" version="1.1" viewBox="0 0 24 24"><defs id="defs6532"><linearGradient id="linearGradient5606" osb:paint="solid"><stop id="stop5608" offset="0" style="stop-color:#000;stop-opacity:1"/></linearGradient></defs><metadata id="metadata6535"/><g id="layer1" transform="translate(-76,-976.36053)" style="display:inline"><path id="path5187" d="m 83.999771,980.36216 -5,3 4,2.98438 -4.009766,3.00781 5.009766,3.00781 4,-3 -5,-3 5,-3 5,3.01562 -5,2.98438 1.777344,1.33398 c 0.91425,-1.45056 2.50802,-2.33148 4.222656,-2.33398 1.074502,0.003 2.11961,0.35112 2.98047,0.99414 l 0.0293,-0.0176 -4.00977,-2.97654 4,-3 -5,-3 -4,2.98438 -4,-2.98438 z m 10,9 c -2.209139,0 -4,1.79086 -4,4 0,2.20914 1.790861,4 4,4 2.20914,0 4,-1.79086 4,-4 0,-2.20914 -1.79086,-4 -4,-4 z m -6,1 -4,3 -1,-0.59961 0,0.59961 5,3 1.476562,-0.88477 c -0.31166,-0.66173 -0.474339,-1.38378 -0.476562,-2.11523 -2.42e-4,-0.67105 0.134598,-1.33529 0.396484,-1.95312 l -1.396484,-1.04688 z m 4.353516,0.64648 1.646484,1.64649 1.646484,-1.64649 0.707036,0.70704 -1.646489,1.64648 1.646489,1.64648 -0.707036,0.70704 -1.646484,-1.64649 -1.646484,1.64649 -0.707032,-0.70704 1.646485,-1.64648 -1.646485,-1.64648 0.707032,-0.70704 z" style="color:#000;fill:#444;fill-opacity:1;stroke:none"/></g></svg>