<svg xmlns="http://www.w3.org/2000/svg" xmlns:osb="http://www.openswatchbook.org/uri/2009/osb" xmlns:svg="http://www.w3.org/2000/svg" id="svg6530" width="24" height="24" version="1.1" viewBox="0 0 24 24"><defs id="defs6532"><linearGradient id="linearGradient5606" osb:paint="solid"><stop id="stop5608" offset="0" style="stop-color:#000;stop-opacity:1"/></linearGradient></defs><metadata id="metadata6535"/><g id="layer1" transform="translate(-220.00043,-520.39122)" style="display:inline"><path id="rect7011-24" d="m 227.00023,525.3912 c 0,0 -2,0 -2,2.0625 l 0,9.9375 c 0,2 2,2 2,2 l 10,0 c 2,0 2,-2 2,-2 l 0,-10 c 0,0 0,-2 -2,-2 z m 3.0002,2.00002 5.9998,-2e-5 2e-4,2.00002 -6,0 0,2 4,0 0,2 -4,0 0,2 6,0 0,2 -6,0 c 0,0 -2,0 -2,-2 l 0,-6 c 0,-2 2,-2 2,-2 z" style="color:#bebebe;fill:#444;fill-opacity:1;stroke:none"/></g></svg>