<svg xmlns="http://www.w3.org/2000/svg" xmlns:osb="http://www.openswatchbook.org/uri/2009/osb" xmlns:svg="http://www.w3.org/2000/svg" id="svg6530" width="24" height="24" version="1.1" viewBox="0 0 24 24"><defs id="defs6532"><linearGradient id="linearGradient5606" osb:paint="solid"><stop id="stop5608" offset="0" style="stop-color:#000;stop-opacity:1"/></linearGradient></defs><metadata id="metadata6535"/><g id="layer1" transform="translate(-268.00063,-520.39122)" style="display:inline"><path id="path1244" d="m 272.00093,527.4537 -5e-4,9.9375 c -10e-5,2 2,2 2,2 l 12,0 c 2,0 2,-2 2,-2 l 0,-10 c 0,0 1e-5,-2 -2,-2 l -12,0 c 0,0 -1.9994,4.3e-4 -1.9995,2.0625 z m 1.9997,-0.0625 4,0 c 0.66639,0.0162 1.16723,0.83815 0.8755,1.4375 l -1.375,2.7812 c 0.35458,0.11552 0.74913,0.19557 0.96875,0.4375 0.33238,0.36614 0.53125,0.8102 0.53125,1.3438 l 0,2 c 0,1.1124 -0.90732,2 -2,2 l -3,0 -5e-4,-2 3,0 0,-2 -0.9995,0 c -0.66639,-0.0162 -1.16673,-0.83815 -0.875,-1.4375 l 1.25,-2.5625 -2.375,0 z m 10,0 c 2,0 2,2 2,2 l 0,1 -2,0 0,-1 -2,0 0,6 2,0 0,-2 -1,0 8e-4,-1.96875 1.9992,-0.0312 1.0008,0.0312 0,1 0,2.9375 c 0,5e-5 -8e-4,2.0313 -2.0008,2.0313 l -1.9992,-5e-5 c 0,0 -2.0008,5e-5 -2.0008,-1.99995 l 0,-6 c 0,-2 2,-2 2,-2 z" style="color:#bebebe;fill:#444;fill-opacity:1;stroke:none"/></g></svg>