<svg xmlns="http://www.w3.org/2000/svg" xmlns:osb="http://www.openswatchbook.org/uri/2009/osb" xmlns:svg="http://www.w3.org/2000/svg" id="svg6530" width="24" height="24" version="1.1" viewBox="0 0 24 24"><defs id="defs6532"><linearGradient id="linearGradient5606" osb:paint="solid"><stop id="stop5608" offset="0" style="stop-color:#000;stop-opacity:1"/></linearGradient></defs><metadata id="metadata6535"/><g id="layer1" transform="translate(-340.00043,-520.3912)" style="display:inline"><path id="rect7011-2" d="m 347.00047,525.3912 c 0,0 -2,0 -2,2.0625 l 0,9.9375 c 0,2 2,2 2,2 l 10,0 c 2,0 2,-2 2,-2 l 0,-10 c 0,0 0,-2 -2,-2 z m 3,2 2e-4,4.00002 4,0 -2e-4,-4.00002 2,0 2e-4,10.00002 -2.0002,-2e-5 2e-4,-3.99998 -4,0 -2e-4,3.99998 -1.9998,2e-5 -2e-4,-10.00002 z" style="color:#bebebe;fill:#444;fill-opacity:1;stroke:none"/></g></svg>