<svg xmlns="http://www.w3.org/2000/svg" xmlns:osb="http://www.openswatchbook.org/uri/2009/osb" xmlns:svg="http://www.w3.org/2000/svg" id="svg6530" width="24" height="24" version="1.1" viewBox="0 0 24 24"><defs id="defs6532"><linearGradient id="linearGradient5606" osb:paint="solid"><stop id="stop5608" offset="0" style="stop-color:#000;stop-opacity:1"/></linearGradient></defs><metadata id="metadata6535"/><g id="layer1" transform="translate(-99.998143,-904.35689)" style="display:inline"><path id="path6240" d="m 111.74996,909.39345 c -2.76278,0.10144 -5.3087,1.80458 -6.3125,4.5625 -1.26383,3.47234 0.36867,7.32457 3.6875,8.8125 -0.0932,-0.33746 -0.14688,-0.70692 -0.125,-1.0625 0.0277,-1.00125 0.58397,-1.88737 1.375,-2.46875 -1.56688,-1.73319 -2.13559,-4.24646 -1.28125,-6.59375 0.51416,-1.41265 1.47444,-2.50836 2.65625,-3.25 z m 0.1875,11.125 c -0.41706,0.17181 -0.75796,0.48646 -0.875,0.9375 -0.26517,0.82497 0.3356,1.75454 1.1875,1.875 1.79602,-0.074 3.49951,-0.81062 4.75,-2.09375 l 0,-0.15625 c -1.28091,0.37459 -2.6817,0.39743 -4.03125,-0.0937 -0.362,-0.13176 -0.70874,-0.28264 -1.03125,-0.46875 z" style="color:#bebebe;display:inline;overflow:visible;visibility:visible;fill:#444;fill-opacity:1;fill-rule:nonzero;stroke:none;stroke-width:1;marker:none;enable-background:accumulate"/><path id="path6258" d="m 114.99996,917.3622 c -1.31168,0 -2.40482,0.85843 -2.8125,2.03125 -1.23083,0.15597 -2.1875,1.19557 -2.1875,2.46875 0,1.38071 1.11929,2.5 2.5,2.5 l 5.5,0 c 1.10457,0 2,-0.89543 2,-2 0,-1.10457 -0.89543,-2 -2,-2 0,-1.65685 -1.34315,-3 -3,-3 z" style="fill:#444;fill-opacity:1;stroke:none"/></g></svg>