<svg xmlns="http://www.w3.org/2000/svg" xmlns:osb="http://www.openswatchbook.org/uri/2009/osb" xmlns:svg="http://www.w3.org/2000/svg" id="svg6530" width="22" height="22" version="1.1" viewBox="0 0 22 22"><defs id="defs6532"><linearGradient id="linearGradient5606" osb:paint="solid"><stop id="stop5608" offset="0" style="stop-color:#000;stop-opacity:1"/></linearGradient></defs><metadata id="metadata6535"/><g id="layer1" transform="translate(-569,-497.36216)" style="display:inline"><path id="path11843" d="m 573.9998,500.36184 c 0,0 -2,0 -2,2.0625 l 0,11.9375 c 0,2 2,2 2,2 l 12,0 c 2,0 2,-2 2,-2 l 0,-12 c 0,0 0,-2 -2,-2 l -12,0 z m 0.50195,4.32422 2.27149,0 c 0.78492,0 1.38943,0.17043 1.81445,0.50976 0.42502,0.33933 0.63867,0.81906 0.63867,1.43945 0,0.46958 -0.11362,0.8386 -0.33984,1.10938 -0.22279,0.27078 -0.5588,0.44122 -1.00781,0.50976 0.50385,0.0754 0.8991,0.29198 1.18359,0.64844 0.28792,0.35304 0.43164,0.80315 0.43164,1.35156 0,0.69581 -0.22772,1.22166 -0.68359,1.57813 -0.45587,0.35304 -1.13566,0.5293 -2.03711,0.5293 l -2.27149,0 0,-7.67578 z m 1.04297,0.85351 0,2.31445 1.20899,0 c 0.50042,0 0.86119,-0.0971 1.08398,-0.28906 0.22622,-0.19195 0.33984,-0.50124 0.33984,-0.92969 0,-0.38732 -0.11119,-0.66651 -0.33398,-0.83789 -0.21937,-0.17138 -0.58256,-0.25781 -1.08984,-0.25781 l -1.20899,0 z m 7.7832,0.92578 c 0.73351,0 1.31279,0.24714 1.73438,0.74414 0.42502,0.497 0.63672,1.17679 0.63672,2.03711 l 0,0.46289 -4.09766,0 0,0.0312 c 0,0.62725 0.16266,1.11232 0.48828,1.45508 0.32905,0.34276 0.79227,0.51367 1.38868,0.51367 0.30162,0 0.61626,-0.0486 0.94531,-0.14453 0.32905,-0.096 0.68108,-0.24213 1.05469,-0.4375 l 0,0.94141 c -0.3599,0.14739 -0.70902,0.2581 -1.04493,0.33008 -0.33247,0.0754 -0.65293,0.11132 -0.96484,0.11132 -0.8946,0 -1.5938,-0.26608 -2.09766,-0.80078 -0.50385,-0.53813 -0.75586,-1.27811 -0.75586,-2.2207 0,-0.91859 0.24667,-1.65275 0.74024,-2.20117 0.49357,-0.54842 1.15003,-0.82227 1.97265,-0.82227 z m -0.041,0.80078 c -0.45587,0 -0.83023,0.1515 -1.125,0.45313 -0.29477,0.30163 -0.47055,0.7192 -0.52539,1.2539 l 3.11719,-0.004 c -0.0137,-0.55527 -0.14627,-0.97771 -0.39649,-1.26562 -0.24678,-0.29135 -0.60416,-0.4375 -1.07031,-0.4375 z m -7.74219,1.42969 0,2.8125 1.22852,0 c 0.60325,0 1.03394,-0.10342 1.29101,-0.3125 0.25707,-0.21251 0.38477,-0.56163 0.38477,-1.04492 0,-0.50043 -0.13547,-0.86654 -0.40625,-1.09961 -0.27078,-0.23651 -0.6937,-0.35547 -1.26953,-0.35547 l -1.22852,0 z" style="color:#bebebe;fill:#fff;fill-opacity:1;stroke:none"/><rect id="rect11849" width="22" height="22" x="569" y="497.362" style="color:#bebebe;display:inline;overflow:visible;visibility:visible;fill:none;stroke:none;stroke-width:1;marker:none"/></g></svg>