<svg xmlns="http://www.w3.org/2000/svg" xmlns:osb="http://www.openswatchbook.org/uri/2009/osb" xmlns:svg="http://www.w3.org/2000/svg" id="svg6530" width="22" height="22" version="1.1" viewBox="0 0 22 22"><defs id="defs6532"><linearGradient id="linearGradient5606" osb:paint="solid"><stop id="stop5608" offset="0" style="stop-color:#000;stop-opacity:1"/></linearGradient></defs><metadata id="metadata6535"/><g id="layer1" transform="translate(-545,-665.36216)" style="display:inline"><path id="path12643" d="m 549.9998,668.36184 c 0,0 -2,0 -2,2.0625 l 0,11.9375 c 0,2 2,2 2,2 l 12,0 c 2,0 2,-2 2,-2 l 0,-12 c 0,0 0,-2 -2,-2 l -12,0 z m 6.98438,4 0.94531,0 0,3.10547 c 0.16795,-0.32905 0.39763,-0.57814 0.68554,-0.7461 0.28792,-0.17138 0.62732,-0.25586 1.02149,-0.25586 0.58612,0 1.02458,0.19276 1.3125,0.58008 0.29134,0.38389 0.43555,0.96655 0.43555,1.74805 l 0,3.56836 -0.95118,0 0,-3.56836 c 0,-0.51757 -0.0898,-0.89727 -0.27148,-1.14063 -0.18166,-0.24336 -0.4662,-0.36523 -0.85352,-0.36523 -0.44216,0 -0.7835,0.15731 -1.02343,0.47265 -0.23651,0.31192 -0.35547,0.76155 -0.35547,1.34766 l 0,3.25391 -0.94531,0 0,-8 z m -6.32422,0.32422 2.24218,0 c 0.8569,0 1.50706,0.19519 1.94922,0.58593 0.44216,0.38732 0.66211,0.95639 0.66211,1.70703 0,0.7575 -0.21995,1.32949 -0.66211,1.7168 -0.43873,0.38732 -1.08889,0.58203 -1.94922,0.58203 l -1.20312,0 0,3.08399 -1.03906,0 0,-7.67578 z m 1.03906,0.85351 0,2.88477 1.20312,0 c 0.47987,0 0.85375,-0.12722 1.1211,-0.38086 0.27078,-0.25365 0.40625,-0.60859 0.40625,-1.06446 0,-0.45586 -0.13499,-0.80837 -0.40235,-1.05859 -0.26735,-0.25364 -0.64171,-0.38086 -1.125,-0.38086 l -1.20312,0 z" style="color:#bebebe;fill:#fff;fill-opacity:1;stroke:none"/><rect id="rect12649" width="22" height="22" x="545" y="665.362" style="color:#bebebe;display:inline;overflow:visible;visibility:visible;fill:none;stroke:none;stroke-width:1;marker:none"/></g></svg>