<svg xmlns="http://www.w3.org/2000/svg" xmlns:osb="http://www.openswatchbook.org/uri/2009/osb" xmlns:svg="http://www.w3.org/2000/svg" id="svg6530" width="22" height="22" version="1.1" viewBox="0 0 22 22"><defs id="defs6532"><linearGradient id="linearGradient5606" osb:paint="solid"><stop id="stop5608" offset="0" style="stop-color:#000;stop-opacity:1"/></linearGradient></defs><metadata id="metadata6535"/><g id="layer1" transform="translate(-665,-521.36216)" style="display:inline"><path id="path11983" d="m 669.9998,524.36184 c 0,0 -2,0 -2,2.0625 l 0,11.9375 c 0,2 2,2 2,2 l 12,0 c 2,0 2,-2 2,-2 l 0,-12 c 0,0 0,-2 -2,-2 l -12,0 z m 0.35156,4.32422 1.5586,0 c 1.17223,0 2.03652,0.31172 2.59179,0.93554 0.55527,0.62383 0.83203,1.59396 0.83203,2.91016 0,1.30934 -0.27676,2.27657 -0.83203,2.90039 -0.55527,0.62039 -1.41956,0.92969 -2.59179,0.92969 l -1.5586,0 0,-7.67578 z m 1.04492,0.85351 0,5.96875 0.49219,0 c 0.87404,0 1.48585,-0.21413 1.83203,-0.64258 0.34619,-0.43188 0.51758,-1.20973 0.51758,-2.33398 0,-1.13454 -0.17139,-1.91531 -0.51758,-2.34375 -0.34276,-0.43188 -0.95456,-0.64844 -1.83203,-0.64844 l -0.49219,0 z m 5.75196,1.05469 4.17968,0 0,0.86328 -3.30468,4.13281 3.30468,0 0,0.77149 -4.30273,0 0,-0.87305 3.30664,-4.13867 -3.18359,0 0,-0.75586 z" style="color:#bebebe;fill:#fff;fill-opacity:1;stroke:none"/><rect id="rect11989" width="22" height="22" x="665" y="521.362" style="color:#bebebe;display:inline;overflow:visible;visibility:visible;fill:none;stroke:none;stroke-width:1;marker:none"/></g></svg>