<svg xmlns="http://www.w3.org/2000/svg" xmlns:osb="http://www.openswatchbook.org/uri/2009/osb" xmlns:svg="http://www.w3.org/2000/svg" id="svg6530" width="22" height="22" version="1.1" viewBox="0 0 22 22"><defs id="defs6532"><linearGradient id="linearGradient5606" osb:paint="solid"><stop id="stop5608" offset="0" style="stop-color:#000;stop-opacity:1"/></linearGradient></defs><metadata id="metadata6535"/><g id="layer1" transform="translate(-545,-713.36216)" style="display:inline"><path id="path12847" d="m 549.9998,716.36184 c 0,0 -2,0 -2,2.0625 l 0,11.9375 c 0,2 2,2 2,2 l 12,0 c 2,0 2,-2 2,-2 l 0,-12 c 0,0 0,-2 -2,-2 l -12,0 z m 7.19531,4 0.97657,0 0,4.63281 2.48437,-2.39063 1.15039,0 -2.26758,2.16993 2.62305,3.58789 -1.15625,0 -2.12891,-2.97071 -0.70507,0.66211 0,2.3086 -0.97657,0 0,-8 z m -7.30664,0.32422 5.85742,0 0,0.87304 -2.40234,0 0,6.80274 -1.04297,0 0,-6.80274 -2.41211,0 0,-0.87304 z" style="color:#bebebe;fill:#fff;fill-opacity:1;stroke:none"/><rect id="rect12853" width="22" height="22" x="545" y="713.362" style="color:#bebebe;display:inline;overflow:visible;visibility:visible;fill:none;stroke:none;stroke-width:1;marker:none"/></g></svg>