<svg xmlns="http://www.w3.org/2000/svg" xmlns:osb="http://www.openswatchbook.org/uri/2009/osb" xmlns:svg="http://www.w3.org/2000/svg" id="svg6530" width="22" height="22" version="1.1" viewBox="0 0 22 22"><defs id="defs6532"><linearGradient id="linearGradient5606" osb:paint="solid"><stop id="stop5608" offset="0" style="stop-color:#000;stop-opacity:1"/></linearGradient></defs><metadata id="metadata6535"/><g id="layer1" transform="translate(-497,-569.36216)" style="display:inline"><path id="path12113" d="m 501.9998,572.36184 c 0,0 -2,0 -2,2.0625 l 0,11.9375 c 0,2 2,2 2,2 l 12,0 c 2,0 2,-2 2,-2 l 0,-12 c 0,0 0,-2 -2,-2 l -12,0 z m 3.2832,4.18554 c 0.3222,0 0.63101,0.0461 0.92578,0.13868 0.29478,0.0891 0.57931,0.22702 0.85352,0.41211 l 0,1.0625 c -0.27763,-0.26394 -0.56217,-0.45669 -0.85352,-0.58008 -0.29134,-0.12682 -0.60016,-0.18946 -0.92578,-0.18946 -0.67523,0 -1.18215,0.26074 -1.52148,0.78516 -0.33591,0.52099 -0.50391,1.30662 -0.50391,2.35547 0,1.06598 0.16266,1.85695 0.48828,2.37109 0.32905,0.51072 0.83306,0.76563 1.51172,0.76563 0.22965,0 0.43018,-0.0267 0.60156,-0.0781 0.17481,-0.0549 0.33213,-0.13886 0.47266,-0.25195 l 0,-2.06055 -1.11523,0 0,-0.85351 2.10742,0 0,3.30468 c -0.27764,0.25708 -0.59179,0.45227 -0.94141,0.58594 -0.34618,0.13025 -0.72054,0.19531 -1.125,0.19531 -0.97343,0 -1.73188,-0.34716 -2.27344,-1.04296 -0.54156,-0.69923 -0.8125,-1.67762 -0.8125,-2.93555 0,-1.2545 0.27385,-2.23046 0.82227,-2.92969 0.54841,-0.70266 1.3122,-1.05469 2.28906,-1.05469 z m 3.70117,2.06641 0.94532,0 0,3.56836 c 0,0.51756 0.0918,0.89726 0.27343,1.14062 0.18509,0.24336 0.46963,0.36524 0.85352,0.36524 0.44559,0 0.78693,-0.15489 1.02344,-0.4668 0.2365,-0.31534 0.35351,-0.76739 0.35351,-1.35351 l 0,-3.25391 0.95118,0 0,5.74805 -0.95118,0 0,-0.86328 c -0.16795,0.33248 -0.39615,0.58448 -0.6875,0.75585 -0.28791,0.17138 -0.62635,0.25586 -1.01367,0.25586 -0.58954,0 -1.02849,-0.19033 -1.3164,-0.57421 -0.28792,-0.38732 -0.43165,-0.97242 -0.43165,-1.75391 l 0,-3.56836 z" style="color:#bebebe;fill:#fff;fill-opacity:1;stroke:none"/><rect id="rect12119" width="22" height="22" x="497" y="569.362" style="color:#bebebe;display:inline;overflow:visible;visibility:visible;fill:none;stroke:none;stroke-width:1;marker:none"/></g></svg>