<svg xmlns="http://www.w3.org/2000/svg" xmlns:osb="http://www.openswatchbook.org/uri/2009/osb" xmlns:svg="http://www.w3.org/2000/svg" id="svg6530" width="22" height="22" version="1.1" viewBox="0 0 22 22"><defs id="defs6532"><linearGradient id="linearGradient5606" osb:paint="solid"><stop id="stop5608" offset="0" style="stop-color:#000;stop-opacity:1"/></linearGradient></defs><metadata id="metadata6535"/><g id="layer1" transform="translate(-665,-641.36216)" style="display:inline"><path id="path12483" d="m 669.9998,644.36184 c 0,0 -2,0 -2,2.0625 l 0,11.9375 c 0,2 2,2 2,2 l 12,0 c 2,0 2,-2 2,-2 l 0,-12 c 0,0 0,-2 -2,-2 l -12,0 z m 0.36328,4.32422 1.31445,0 2.5918,6.31835 0,-6.31835 1.00391,0 0,7.67578 -1.31641,0 -2.5918,-6.31836 0,6.31836 -1.00195,0 0,-7.67578 z m 8.96484,1.77929 c 0.73351,0 1.31279,0.24714 1.73438,0.74414 0.42502,0.497 0.63672,1.17679 0.63672,2.03711 l 0,0.46289 -4.09766,0 0,0.0312 c 0,0.62725 0.16266,1.11232 0.48828,1.45508 0.32905,0.34276 0.79227,0.51367 1.38868,0.51367 0.30162,0 0.61626,-0.0486 0.94531,-0.14453 0.32905,-0.096 0.68108,-0.24212 1.05469,-0.4375 l 0,0.94141 c -0.3599,0.14738 -0.70902,0.2581 -1.04493,0.33008 -0.33247,0.0754 -0.65293,0.11132 -0.96484,0.11132 -0.8946,0 -1.5938,-0.26608 -2.09766,-0.80078 -0.50385,-0.53813 -0.75586,-1.27811 -0.75586,-2.2207 0,-0.91859 0.24667,-1.65275 0.74024,-2.20117 0.49357,-0.54842 1.15003,-0.82227 1.97265,-0.82227 z m -0.041,0.80078 c -0.45587,0 -0.83023,0.1515 -1.125,0.45313 -0.29477,0.30163 -0.47055,0.7192 -0.52539,1.25391 l 3.11719,-0.004 c -0.0137,-0.55527 -0.14627,-0.97771 -0.39649,-1.26563 -0.24678,-0.29134 -0.60416,-0.4375 -1.07031,-0.4375 z" style="color:#bebebe;fill:#fff;fill-opacity:1;stroke:none"/><rect id="rect12489" width="22" height="22" x="665" y="641.362" style="color:#bebebe;display:inline;overflow:visible;visibility:visible;fill:none;stroke:none;stroke-width:1;marker:none"/></g></svg>