<svg xmlns="http://www.w3.org/2000/svg" xmlns:osb="http://www.openswatchbook.org/uri/2009/osb" xmlns:svg="http://www.w3.org/2000/svg" id="svg6530" width="22" height="22" version="1.1" viewBox="0 0 22 22"><defs id="defs6532"><linearGradient id="linearGradient5606" osb:paint="solid"><stop id="stop5608" offset="0" style="stop-color:#000;stop-opacity:1"/></linearGradient></defs><metadata id="metadata6535"/><g id="layer1" transform="translate(-569,-617.36216)" style="display:inline"><path id="path12343" d="m 573.9998,620.36184 c 0,0 -2,0 -2,2.0625 l 0,11.9375 c 0,2 2,2 2,2 l 12,0 c 2,0 2,-2 2,-2 l 0,-12 c 0,0 0,-2 -2,-2 l -12,0 z m 0.75391,4.32422 1.04297,0 0,6.80273 3.70703,0 0,0.87305 -4.75,0 0,-7.67578 z m 5.74218,1.91796 0.98243,0 1.66992,4.83204 1.67578,-4.83204 0.98242,0 -2.04492,5.75782 -1.21875,0 -2.04688,-5.75782 z" style="color:#bebebe;fill:#fff;fill-opacity:1;stroke:none"/><rect id="rect12349" width="22" height="22" x="569" y="617.362" style="color:#bebebe;display:inline;overflow:visible;visibility:visible;fill:none;stroke:none;stroke-width:1;marker:none"/></g></svg>