<svg xmlns="http://www.w3.org/2000/svg" xmlns:osb="http://www.openswatchbook.org/uri/2009/osb" xmlns:svg="http://www.w3.org/2000/svg" id="svg6530" width="22" height="22" version="1.1" viewBox="0 0 22 22"><defs id="defs6532"><linearGradient id="linearGradient5606" osb:paint="solid"><stop id="stop5608" offset="0" style="stop-color:#000;stop-opacity:1"/></linearGradient></defs><metadata id="metadata6535"/><g id="layer1" transform="translate(-665.092,-689.1203)" style="display:inline"><path id="path12797" d="m 670.0918,692.11998 c 0,0 -2,0 -2,2.0625 l 0,11.9375 c 0,2 2,2 2,2 l 12,0 c 2,0 2,-2 2,-2 l 0,-12 c 0,0 0,-2 -2,-2 l -12,0 z m 2.89258,4.18554 c 0.29477,0 0.60406,0.035 0.92969,0.10352 0.32562,0.0651 0.6694,0.16321 1.02929,0.29687 l 0,1.05469 c -0.31534,-0.20223 -0.6324,-0.3542 -0.95117,-0.45703 -0.31534,-0.10283 -0.63484,-0.1543 -0.95703,-0.1543 -0.49015,0 -0.87762,0.11411 -1.16211,0.34375 -0.28449,0.22623 -0.42578,0.53261 -0.42578,0.91993 0,0.33933 0.0923,0.59911 0.27734,0.77734 0.18852,0.17823 0.53812,0.32731 1.04883,0.44726 l 0.54492,0.12305 c 0.7198,0.16795 1.24322,0.43112 1.57227,0.79102 0.32905,0.3599 0.49414,0.85031 0.49414,1.4707 0,0.73007 -0.22529,1.28798 -0.67774,1.67188 -0.45244,0.38388 -1.11085,0.57421 -1.9746,0.57421 -0.3599,0 -0.72262,-0.0383 -1.08594,-0.11718 -0.36333,-0.0754 -0.727,-0.18951 -1.09375,-0.34375 l 0,-1.10547 c 0.39417,0.25021 0.76562,0.43229 1.11523,0.54883 0.35304,0.11654 0.70798,0.17578 1.06446,0.17578 0.52442,0 0.93131,-0.11653 1.22265,-0.34961 0.29135,-0.2365 0.4375,-0.56669 0.4375,-0.98828 0,-0.3839 -0.1005,-0.67668 -0.30273,-0.87891 -0.1988,-0.20223 -0.54792,-0.35711 -1.04492,-0.4668 l -0.55469,-0.1289 c -0.71294,-0.1611 -1.23054,-0.40485 -1.55274,-0.73047 -0.32219,-0.32562 -0.48242,-0.76213 -0.48242,-1.31055 0,-0.68552 0.2282,-1.23517 0.6875,-1.64648 0.46273,-0.41474 1.07745,-0.6211 1.8418,-0.6211 z m 3.625,2.05664 1.00195,0 1.70703,4.50391 1.68164,-4.50391 1.00196,0 -1.51758,3.90625 c -0.15767,0.40104 -0.35821,0.92932 -0.60156,1.58399 -0.33934,0.90489 -0.56706,1.45745 -0.6836,1.65625 -0.15767,0.26735 -0.35334,0.46789 -0.58984,0.60156 -0.23651,0.13367 -0.51279,0.20117 -0.82813,0.20117 l -0.76172,0 0,-0.79297 0.56055,0 c 0.27764,0 0.49468,-0.0811 0.65235,-0.24218 0.15766,-0.1611 0.3582,-0.57624 0.60156,-1.24805 l -2.22461,-5.66602 z" style="color:#bebebe;fill:#fff;fill-opacity:1;stroke:none"/><rect id="rect12803" width="22" height="22" x="665.092" y="689.12" style="color:#bebebe;display:inline;overflow:visible;visibility:visible;fill:none;stroke:none;stroke-width:1;marker:none"/></g></svg>