<svg xmlns="http://www.w3.org/2000/svg" xmlns:osb="http://www.openswatchbook.org/uri/2009/osb" xmlns:svg="http://www.w3.org/2000/svg" id="svg6530" width="22" height="22" version="1.1" viewBox="0 0 22 22"><defs id="defs6532"><linearGradient id="linearGradient5606" osb:paint="solid"><stop id="stop5608" offset="0" style="stop-color:#000;stop-opacity:1"/></linearGradient></defs><metadata id="metadata6535"/><g id="layer1" transform="translate(-665,-665.36216)" style="display:inline"><path id="path12693" d="m 669.9998,668.36184 c 0,0 -2,0 -2,2.0625 l 0,11.9375 c 0,2 2,2 2,2 l 12,0 c 2,0 2,-2 2,-2 l 0,-12 c 0,0 0,-2 -2,-2 l -12,0 z m 0.38281,4.32422 2.13867,0 c 0.84319,0 1.49044,0.18984 1.93946,0.57031 0.44901,0.38046 0.67187,0.9306 0.67187,1.65039 0,0.50729 -0.13838,0.92195 -0.41601,1.24414 -0.27421,0.31877 -0.66168,0.51396 -1.16211,0.58594 0.26735,0.0685 0.49507,0.19868 0.68359,0.39062 0.18852,0.18852 0.42402,0.56774 0.70508,1.13672 l 1.04297,2.09766 -1.11524,0 -0.91406,-1.9375 c -0.26392,-0.55184 -0.50233,-0.90678 -0.71484,-1.06446 -0.20908,-0.16109 -0.48294,-0.24218 -0.82227,-0.24218 l -0.99414,0 0,3.24414 -1.04297,0 0,-7.67578 z m 1.04297,0.85351 0,2.72461 1.13672,0 c 0.497,0 0.86797,-0.11119 1.11133,-0.33398 0.24336,-0.2228 0.36523,-0.56414 0.36523,-1.02344 0,-0.44216 -0.13013,-0.77865 -0.39062,-1.01172 -0.25707,-0.23651 -0.63338,-0.35547 -1.12696,-0.35547 l -1.0957,0 z m 5.5586,1.07422 0.94531,0 0,3.56836 c 0,0.51756 0.0918,0.89726 0.27344,1.14062 0.18508,0.24336 0.46962,0.36524 0.85351,0.36524 0.44559,0 0.78693,-0.15489 1.02344,-0.4668 0.2365,-0.31534 0.35351,-0.76739 0.35351,-1.35351 l 0,-3.25391 0.95118,0 0,5.74805 -0.95118,0 0,-0.86328 c -0.16795,0.33248 -0.39615,0.58448 -0.6875,0.75585 -0.28791,0.17138 -0.62635,0.25586 -1.01367,0.25586 -0.58954,0 -1.02849,-0.19033 -1.3164,-0.57421 -0.28792,-0.38732 -0.43164,-0.97242 -0.43164,-1.75391 l 0,-3.56836 z" style="color:#bebebe;fill:#fff;fill-opacity:1;stroke:none"/><rect id="rect12699" width="22" height="22" x="665" y="665.362" style="color:#bebebe;display:inline;overflow:visible;visibility:visible;fill:none;stroke:none;stroke-width:1;marker:none"/></g></svg>