<svg xmlns="http://www.w3.org/2000/svg" xmlns:osb="http://www.openswatchbook.org/uri/2009/osb" xmlns:svg="http://www.w3.org/2000/svg" id="svg6530" width="22" height="22" version="1.1" viewBox="0 0 22 22"><defs id="defs6532"><linearGradient id="linearGradient5606" osb:paint="solid"><stop id="stop5608" offset="0" style="stop-color:#000;stop-opacity:1"/></linearGradient></defs><metadata id="metadata6535"/><g id="layer1" transform="translate(-641,-641.36216)" style="display:inline"><path id="path12473" d="m 645.9998,644.36184 c 0,0 -2,0 -2,2.0625 l 0,11.9375 c 0,2 2,2 2,2 l 12,0 c 2,0 2,-2 2,-2 l 0,-12 c 0,0 0,-2 -2,-2 l -12,0 z m 0.0898,4.32422 1.38868,0 1.32617,3.9082 1.33593,-3.9082 1.39454,0 0,7.67578 -0.96094,0 0,-6.78125 -1.36914,4.04687 -0.78516,0 -1.37304,-4.04687 0,6.78125 -0.95704,0 0,-7.67578 z m 6.42774,1.91796 1.00195,0 1.70703,4.50391 1.68164,-4.50391 1.00196,0 -1.51758,3.90625 c -0.15767,0.40104 -0.35821,0.92932 -0.60156,1.58399 -0.33934,0.90489 -0.56706,1.45745 -0.6836,1.65625 -0.15767,0.26735 -0.35334,0.46789 -0.58984,0.60156 -0.23651,0.13367 -0.51279,0.20117 -0.82813,0.20117 l -0.76172,0 0,-0.79297 0.56055,0 c 0.27764,0 0.49468,-0.0811 0.65234,-0.24218 0.15767,-0.1611 0.35821,-0.57624 0.60157,-1.24805 l -2.22461,-5.66602 z" style="color:#bebebe;fill:#fff;fill-opacity:1;stroke:none"/><rect id="rect12479" width="22" height="22" x="641" y="641.362" style="color:#bebebe;display:inline;overflow:visible;visibility:visible;fill:none;stroke:none;stroke-width:1;marker:none"/></g></svg>