<svg xmlns="http://www.w3.org/2000/svg" xmlns:osb="http://www.openswatchbook.org/uri/2009/osb" xmlns:svg="http://www.w3.org/2000/svg" id="svg6530" width="24" height="24" version="1.1" viewBox="0 0 24 24"><defs id="defs6532"><linearGradient id="linearGradient5606" osb:paint="solid"><stop id="stop5608" offset="0" style="stop-color:#000;stop-opacity:1"/></linearGradient></defs><metadata id="metadata6535"/><g id="layer1" transform="translate(-544,-520.36216)" style="display:inline"><path id="path11933" d="m 549.9998,524.36184 c 0,0 -2,0 -2,2.0625 l 0,11.9375 c 0,2 2,2 2,2 l 12,0 c 2,0 2,-2 2,-2 l 0,-12 c 0,0 0,-2 -2,-2 l -12,0 z m 3.46875,4.18554 c 0.31191,0 0.60518,0.0354 0.88281,0.10743 0.27764,0.0685 0.54858,0.17391 0.8125,0.31445 l 0,1.06445 c -0.25364,-0.20908 -0.52506,-0.36883 -0.8164,-0.47851 -0.29135,-0.10969 -0.58414,-0.16407 -0.87891,-0.16407 -0.67524,0 -1.18167,0.26026 -1.51758,0.78125 -0.3359,0.521 -0.5039,1.3071 -0.5039,2.35938 0,1.04884 0.168,1.83447 0.5039,2.35547 0.33591,0.52099 0.84234,0.78125 1.51758,0.78125 0.30163,0 0.59489,-0.0544 0.88281,-0.16407 0.29135,-0.10968 0.56229,-0.26942 0.8125,-0.47851 l 0,1.06445 c -0.26392,0.14054 -0.53486,0.24396 -0.8125,0.3125 -0.27763,0.072 -0.5709,0.10742 -0.88281,0.10742 -0.98372,0 -1.74798,-0.34716 -2.29297,-1.04296 -0.54156,-0.6958 -0.8125,-1.6742 -0.8125,-2.93555 0,-1.2545 0.27142,-2.23046 0.81641,-2.92969 0.54841,-0.70266 1.3122,-1.05469 2.28906,-1.05469 z m 7.2168,1.91797 c 0.23307,0 0.45207,0.0296 0.65429,0.0879 0.20223,0.0583 0.39499,0.14809 0.58008,0.27149 l 0,0.96679 c -0.20223,-0.15766 -0.4081,-0.27177 -0.61719,-0.34375 -0.20908,-0.072 -0.43728,-0.10937 -0.6875,-0.10937 -0.58954,0 -1.0416,0.18646 -1.35351,0.55664 -0.31191,0.37018 -0.4668,0.90429 -0.4668,1.60351 l 0,2.86329 -0.95117,0 0,-5.75782 0.95117,0 0,1.125 c 0.15767,-0.40788 0.39899,-0.7196 0.72461,-0.93554 0.32905,-0.21937 0.717,-0.32813 1.16602,-0.32813 z" style="color:#bebebe;fill:#fff;fill-opacity:1;stroke:none"/></g></svg>