<svg xmlns="http://www.w3.org/2000/svg" xmlns:osb="http://www.openswatchbook.org/uri/2009/osb" xmlns:svg="http://www.w3.org/2000/svg" id="svg6530" width="24" height="24" version="1.1" viewBox="0 0 24 24"><defs id="defs6532"><linearGradient id="linearGradient5606" osb:paint="solid"><stop id="stop5608" offset="0" style="stop-color:#000;stop-opacity:1"/></linearGradient></defs><metadata id="metadata6535"/><g id="layer1" transform="translate(-544,-640.36216)" style="display:inline"><path id="path12433" d="m 549.9998,644.36184 c 0,0 -2,0 -2,2.0625 l 0,11.9375 c 0,2 2,2 2,2 l 12,0 c 2,0 2,-2 2,-2 l 0,-12 c 0,0 0,-2 -2,-2 l -12,0 z m 6.80469,3.94336 2.46289,0 0,5.96875 c 0,0.42502 0.0762,0.74695 0.23047,0.96289 0.15767,0.21594 0.39025,0.32226 0.69531,0.32226 l 1.10547,0 0,0.80274 -1.19922,0 c -0.56555,0 -1.0045,-0.1816 -1.31641,-0.54493 -0.30848,-0.36332 -0.46093,-0.87801 -0.46093,-1.54296 l 0,-5.22852 -1.51758,0 0,-0.74023 z m -6.71485,0.38086 1.38868,0 1.32617,3.9082 1.33593,-3.9082 1.39454,0 0,7.67578 -0.96094,0 0,-6.78125 -1.36914,4.04687 -0.78516,0 -1.37304,-4.04687 0,6.78125 -0.95704,0 0,-7.67578 z" style="color:#bebebe;fill:#fff;fill-opacity:1;stroke:none"/></g></svg>