<svg xmlns="http://www.w3.org/2000/svg" xmlns:osb="http://www.openswatchbook.org/uri/2009/osb" xmlns:svg="http://www.w3.org/2000/svg" id="svg6530" width="24" height="24" version="1.1" viewBox="0 0 24 24"><defs id="defs6532"><linearGradient id="linearGradient5606" osb:paint="solid"><stop id="stop5608" offset="0" style="stop-color:#000;stop-opacity:1"/></linearGradient></defs><metadata id="metadata6535"/><g id="layer1" transform="translate(-520,-496.36216)" style="display:inline"><path id="path11823" d="m 525.9998,500.36184 c 0,0 -2,0 -2,2.0625 l 0,11.9375 c 0,2 2,2 2,2 l 12,0 c 2,0 2,-2 2,-2 l 0,-12 c 0,0 0,-2 -2,-2 l -12,0 z m 2.1875,4.32422 1.25977,0 2.34961,7.67578 -1.07422,0 -0.56641,-2 -2.6875,0 -0.55664,2 -1.07422,0 2.34961,-7.67578 z m 0.62695,0.91601 -1.09375,3.92774 2.18946,0 -1.09571,-3.92774 z m 3.68164,1.00195 0.98243,0 1.66992,4.83204 1.67578,-4.83204 0.98242,0 -2.04492,5.75782 -1.21875,0 -2.04688,-5.75782 z" style="color:#bebebe;fill:#fff;fill-opacity:1;stroke:none"/></g></svg>