<svg xmlns="http://www.w3.org/2000/svg" xmlns:osb="http://www.openswatchbook.org/uri/2009/osb" xmlns:svg="http://www.w3.org/2000/svg" id="svg6530" width="24" height="24" version="1.1" viewBox="0 0 24 24"><defs id="defs6532"><linearGradient id="linearGradient5606" osb:paint="solid"><stop id="stop5608" offset="0" style="stop-color:#000;stop-opacity:1"/></linearGradient></defs><metadata id="metadata6535"/><g id="layer1" transform="translate(-472,-736.36216)" style="display:inline"><path id="path12925" d="m 477.9998,740.36184 c 0,0 -2,0 -2,2.0625 l 0,11.9375 c 0,2 2,2 2,2 l 12,0 c 2,0 2,-2 2,-2 l 0,-12 c 0,0 0,-2 -2,-2 l -12,0 z m -0.35156,4.32422 1.01172,0 0.73632,6.23046 0.87305,-4.12304 1.08594,0 0.88281,4.13476 0.73633,-6.24218 1.01172,0 -1.14649,7.67578 -0.98047,0 -1.04492,-4.56055 -1.03906,4.56055 -0.98047,0 -1.14648,-7.67578 z m 9.5,1.77929 c 0.79863,0 1.40848,0.25783 1.83008,0.77539 0.42502,0.51757 0.63867,1.26776 0.63867,2.24805 0,0.98372 -0.21122,1.73439 -0.63282,2.25195 -0.42159,0.51414 -1.03388,0.76953 -1.83593,0.76953 -0.79863,0 -1.40849,-0.25539 -1.83008,-0.76953 -0.4216,-0.51756 -0.63281,-1.26823 -0.63281,-2.25195 0,-0.98029 0.21121,-1.73048 0.63281,-2.24805 0.42159,-0.51756 1.03145,-0.77539 1.83008,-0.77539 z m 0,0.80078 c -0.47987,0 -0.84306,0.18694 -1.08985,0.56055 -0.24678,0.37361 -0.36914,0.9286 -0.36914,1.66211 0,0.73007 0.12236,1.28312 0.36914,1.66016 0.24679,0.3736 0.60998,0.56054 1.08985,0.56054 0.48329,0 0.84891,-0.18694 1.0957,-0.56054 0.24679,-0.37704 0.37109,-0.93009 0.37109,-1.66016 0,-0.73351 -0.1243,-1.2885 -0.37109,-1.66211 -0.24679,-0.37361 -0.61241,-0.56055 -1.0957,-0.56055 z" style="color:#bebebe;fill:#fff;fill-opacity:1;stroke:none"/></g></svg>