<svg xmlns="http://www.w3.org/2000/svg" xmlns:osb="http://www.openswatchbook.org/uri/2009/osb" xmlns:svg="http://www.w3.org/2000/svg" id="svg6530" width="24" height="24" version="1.1" viewBox="0 0 24 24"><defs id="defs6532"><linearGradient id="linearGradient5606" osb:paint="solid"><stop id="stop5608" offset="0" style="stop-color:#000;stop-opacity:1"/></linearGradient></defs><metadata id="metadata6535"/><g id="layer3" transform="translate(-588,-451.99838)"><path id="path3810" d="m 600,455 c -1.00004,-2.9e-4 -2,0.89543 -2,2 l 0,1 0,2 c 0,0 -1,0 -1,1 l 6,0 c 0,-1 -1,-1 -1,-1 0,-0.42279 0,-2 0,-2 l 0,-1 c 0,-0.13807 -0.005,-0.27605 -0.0312,-0.40625 C 601.78226,455.68238 600.99996,455.00028 600,455 Z m 0,1 c 0.41421,0 0.75444,0.26608 0.90625,0.625 0.0506,0.11964 0.0937,0.23693 0.0937,0.375 0,0.55228 -0.44771,1 -1,1 -0.55229,0 -1,-0.44772 -1,-1 0,-0.55228 0.44771,-1 1,-1 z m -3,1 -3,0.002 c -1,0 -1,1 -1,1 l 0,13 c 0,0 0,1 1,1 l 12,0 c 1,0 1,-1 1,-1 l 0,-13 c 0,-1 -1,-1 -1,-1 l -3,-0.002 0,1 3,0 0,13 -12,0 0,-13 3,0 z" style="color:#000;fill:#444;fill-opacity:1;stroke:none;stroke-width:4"/><path id="rect15480" d="m 595,459 0,11 10,0 0,-11 -2,0 0,0.2793 c 0.475,0.2667 1,0.91819 1,1.7207 l 0,1 -8,0 0,-1 c 0,-0.80251 0.525,-1.454 1,-1.7207 l 0,-0.2793 -2,0 z m 4,0 0,1 2,0 0,-1 -1,0 -1,0 z" style="opacity:.35;fill:#444;fill-opacity:1;stroke:none;stroke-width:4;stroke-linecap:round;stroke-linejoin:round;stroke-miterlimit:4;stroke-dasharray:none;stroke-opacity:1"/><path id="path15500" d="m 600,455 c -1.00004,-2.9e-4 -2,0.89543 -2,2 l 0,1 0,2 c 0,0 -1,0 -1,1 l 6,0 c 0,-1 -1,-1 -1,-1 l 0,-2 0,-1 c 0,-0.13807 -0.005,-0.27605 -0.0312,-0.40625 C 601.78226,455.68238 600.99996,455.00028 600,455 Z m 0,1 c 0.41421,0 0.75444,0.26608 0.90625,0.625 0.0506,0.11964 0.0937,0.23693 0.0937,0.375 0,0.55228 -0.44771,1 -1,1 -0.55229,0 -1,-0.44772 -1,-1 0,-0.55228 0.44771,-1 1,-1 z" style="color:#000;fill:#444;fill-opacity:1;stroke:none;stroke-width:4"/></g></svg>