<svg xmlns="http://www.w3.org/2000/svg" xmlns:osb="http://www.openswatchbook.org/uri/2009/osb" xmlns:svg="http://www.w3.org/2000/svg" xmlns:xlink="http://www.w3.org/1999/xlink" id="svg6530" width="24" height="24" version="1.1" viewBox="0 0 24 24"><defs id="defs6532"><linearGradient id="linearGradient6126"><stop id="stop6128" offset="0" style="stop-color:#fff;stop-opacity:1"/><stop id="stop6130" offset="1" style="stop-color:#fff;stop-opacity:0"/></linearGradient><linearGradient id="linearGradient3768"><stop id="stop3770" offset="0" style="stop-color:#fff;stop-opacity:1"/><stop id="stop3772" offset="1" style="stop-color:#fff;stop-opacity:0"/></linearGradient><linearGradient id="linearGradient4977" x1="12" x2="23" y1="6" y2="10" gradientTransform="matrix(0.5,0.8660254,-0.8660254,0.5,512.39231,351.6077)" gradientUnits="userSpaceOnUse" xlink:href="#linearGradient6126"/><linearGradient id="linearGradient4979" x1="5.875" x2="3.875" y1="31.125" y2="4.125" gradientTransform="matrix(-0.5,-0.8660254,-0.8660254,0.5,524.43806,372.22155)" gradientUnits="userSpaceOnUse" xlink:href="#linearGradient3768"/><linearGradient id="linearGradient5606" osb:paint="solid"><stop id="stop5608" offset="0" style="stop-color:#000;stop-opacity:1"/></linearGradient></defs><metadata id="metadata6535"/><g id="layer2" transform="translate(-496,-356.00003)"><path id="path4971" d="m 514.9282,364 c -2.20321,-3.81608 -7.11212,-5.13142 -10.9282,-2.9282 -3.81608,2.20321 -5.13142,7.11212 -2.9282,10.9282 l 1.73205,-1 c -1.66278,-2.88001 -0.68386,-6.53338 2.19615,-8.19615 2.88001,-1.66278 6.53338,-0.68386 8.19615,2.19615 0.27614,0.47829 0.88773,0.64217 1.36603,0.36603 0.47829,-0.27615 0.64217,-0.88774 0.36602,-1.36603 z" style="color:#000;font-style:normal;font-variant:normal;font-weight:400;font-stretch:normal;font-size:medium;line-height:normal;font-family:Sans;-inkscape-font-specification:Sans;text-indent:0;text-align:start;text-decoration:none;text-decoration-line:none;letter-spacing:normal;word-spacing:normal;text-transform:none;direction:ltr;block-progression:tb;writing-mode:lr-tb;baseline-shift:baseline;text-anchor:start;display:inline;overflow:visible;visibility:visible;fill:url(#linearGradient4977);fill-opacity:1;stroke:none;stroke-width:2;marker:none;enable-background:accumulate"/><path id="path4973" d="m 514.9282,364 c 2.20322,3.81608 0.88788,8.72499 -2.9282,10.9282 -3.81608,2.20322 -8.72499,0.88788 -10.9282,-2.9282 l 1.73205,-1 c 1.66277,2.88001 5.31614,3.85893 8.19615,2.19615 2.88001,-1.66277 3.85893,-5.31614 2.19615,-8.19615 z" style="color:#000;font-style:normal;font-variant:normal;font-weight:400;font-stretch:normal;font-size:medium;line-height:normal;font-family:Sans;-inkscape-font-specification:Sans;text-indent:0;text-align:start;text-decoration:none;text-decoration-line:none;letter-spacing:normal;word-spacing:normal;text-transform:none;direction:ltr;block-progression:tb;writing-mode:lr-tb;baseline-shift:baseline;text-anchor:start;display:inline;overflow:visible;visibility:visible;fill:url(#linearGradient4979);fill-opacity:1;stroke:none;stroke-width:2;marker:none;enable-background:accumulate"/></g></svg>