<svg xmlns="http://www.w3.org/2000/svg" xmlns:osb="http://www.openswatchbook.org/uri/2009/osb" xmlns:svg="http://www.w3.org/2000/svg" xmlns:xlink="http://www.w3.org/1999/xlink" id="svg6530" width="24" height="24" version="1.1" viewBox="0 0 24 24"><defs id="defs6532"><linearGradient id="linearGradient4947"><stop id="stop4949" offset="0" style="stop-color:#444;stop-opacity:1"/><stop id="stop4951" offset="1" style="stop-color:#444;stop-opacity:0"/></linearGradient><linearGradient id="linearGradient3768"><stop id="stop3770" offset="0" style="stop-color:#444;stop-opacity:1"/><stop id="stop3772" offset="1" style="stop-color:#444;stop-opacity:0"/></linearGradient><linearGradient id="linearGradient4991" x1="12" x2="23" y1="6" y2="10" gradientTransform="matrix(0,1,-1,0,544,356)" gradientUnits="userSpaceOnUse" xlink:href="#linearGradient4947"/><linearGradient id="linearGradient4993" x1="5.875" x2="3.875" y1="31.125" y2="4.125" gradientTransform="matrix(0,-1,-1,0,544.125,379.875)" gradientUnits="userSpaceOnUse" xlink:href="#linearGradient3768"/><linearGradient id="linearGradient5606" osb:paint="solid"><stop id="stop5608" offset="0" style="stop-color:#000;stop-opacity:1"/></linearGradient></defs><metadata id="metadata6535"/><g id="layer2" transform="translate(-520,-356.00003)"><path id="path4985" d="m 540,368 c 0,-4.40643 -3.59357,-8 -8,-8 -4.40643,0 -8,3.59357 -8,8 l 2,0 c 0,-3.32555 2.67445,-6 6,-6 3.32555,0 6,2.67445 6,6 0,0.55228 0.44772,1 1,1 0.55228,0 1,-0.44772 1,-1 z" style="color:#000;font-style:normal;font-variant:normal;font-weight:400;font-stretch:normal;font-size:medium;line-height:normal;font-family:Sans;-inkscape-font-specification:Sans;text-indent:0;text-align:start;text-decoration:none;text-decoration-line:none;letter-spacing:normal;word-spacing:normal;text-transform:none;direction:ltr;block-progression:tb;writing-mode:lr-tb;baseline-shift:baseline;text-anchor:start;display:inline;overflow:visible;visibility:visible;fill:url(#linearGradient4991);fill-opacity:1;stroke:none;stroke-width:2;marker:none;enable-background:accumulate"/><path id="path4987" d="m 540,368 c 0,4.40643 -3.59357,8 -8,8 -4.40643,0 -8,-3.59357 -8,-8 l 2,0 c 0,3.32555 2.67445,6 6,6 3.32555,0 6,-2.67445 6,-6 z" style="color:#000;font-style:normal;font-variant:normal;font-weight:400;font-stretch:normal;font-size:medium;line-height:normal;font-family:Sans;-inkscape-font-specification:Sans;text-indent:0;text-align:start;text-decoration:none;text-decoration-line:none;letter-spacing:normal;word-spacing:normal;text-transform:none;direction:ltr;block-progression:tb;writing-mode:lr-tb;baseline-shift:baseline;text-anchor:start;display:inline;overflow:visible;visibility:visible;fill:url(#linearGradient4993);fill-opacity:1;stroke:none;stroke-width:2;marker:none;enable-background:accumulate"/></g></svg>