<svg xmlns="http://www.w3.org/2000/svg" xmlns:osb="http://www.openswatchbook.org/uri/2009/osb" xmlns:svg="http://www.w3.org/2000/svg" xmlns:xlink="http://www.w3.org/1999/xlink" id="svg6530" width="24" height="24" version="1.1" viewBox="0 0 24 24"><defs id="defs6532"><linearGradient id="linearGradient4947"><stop id="stop4949" offset="0" style="stop-color:#444;stop-opacity:1"/><stop id="stop4951" offset="1" style="stop-color:#444;stop-opacity:0"/></linearGradient><linearGradient id="linearGradient3768"><stop id="stop3770" offset="0" style="stop-color:#444;stop-opacity:1"/><stop id="stop3772" offset="1" style="stop-color:#444;stop-opacity:0"/></linearGradient><linearGradient id="linearGradient5176" x1="12" x2="23" y1="6" y2="10" gradientTransform="matrix(0.49999999,-0.8660254,0.8660254,0.49999999,539.6077,396.39231)" gradientUnits="userSpaceOnUse" xlink:href="#linearGradient4947"/><linearGradient id="linearGradient5178" x1="5.875" x2="3.875" y1="31.125" y2="4.125" gradientTransform="matrix(-0.49999999,0.8660254,0.8660254,0.49999999,551.43695,375.65345)" gradientUnits="userSpaceOnUse" xlink:href="#linearGradient3768"/><linearGradient id="linearGradient5606" osb:paint="solid"><stop id="stop5608" offset="0" style="stop-color:#000;stop-opacity:1"/></linearGradient></defs><metadata id="metadata6535"/><g id="layer2" transform="translate(-544,-380.00003)"><path id="path5170" d="m 549.07179,388.00001 c -2.2032,3.81608 -0.88787,8.72499 2.92822,10.92821 3.81607,2.2032 8.72498,0.88787 10.92818,-2.92821 l -1.73203,-1 c -1.66279,2.88001 -5.31615,3.85892 -8.19616,2.19615 -2.88002,-1.66278 -3.85892,-5.31614 -2.19616,-8.19615 0.27615,-0.47829 0.11228,-1.08988 -0.36601,-1.36602 -0.4783,-0.27616 -1.08988,-0.11227 -1.36604,0.36602 z" style="color:#000;font-style:normal;font-variant:normal;font-weight:400;font-stretch:normal;font-size:medium;line-height:normal;font-family:Sans;-inkscape-font-specification:Sans;text-indent:0;text-align:start;text-decoration:none;text-decoration-line:none;letter-spacing:normal;word-spacing:normal;text-transform:none;direction:ltr;block-progression:tb;writing-mode:lr-tb;baseline-shift:baseline;text-anchor:start;display:inline;overflow:visible;visibility:visible;fill:url(#linearGradient5176);fill-opacity:1;stroke:none;stroke-width:2;marker:none;enable-background:accumulate"/><path id="path5172" d="m 549.07179,388.00001 c 2.20323,-3.81609 7.11212,-5.13143 10.92821,-2.9282 3.81608,2.20321 5.13141,7.11211 2.92819,10.9282 l -1.73203,-1 c 1.66278,-2.88002 0.68386,-6.53337 -2.19617,-8.19616 -2.88001,-1.66278 -6.53336,-0.68386 -8.19615,2.19616 z" style="color:#000;font-style:normal;font-variant:normal;font-weight:400;font-stretch:normal;font-size:medium;line-height:normal;font-family:Sans;-inkscape-font-specification:Sans;text-indent:0;text-align:start;text-decoration:none;text-decoration-line:none;letter-spacing:normal;word-spacing:normal;text-transform:none;direction:ltr;block-progression:tb;writing-mode:lr-tb;baseline-shift:baseline;text-anchor:start;display:inline;overflow:visible;visibility:visible;fill:url(#linearGradient5178);fill-opacity:1;stroke:none;stroke-width:2;marker:none;enable-background:accumulate"/></g></svg>