<svg xmlns="http://www.w3.org/2000/svg" xmlns:osb="http://www.openswatchbook.org/uri/2009/osb" xmlns:svg="http://www.w3.org/2000/svg" id="svg6530" width="22" height="22" version="1.1" viewBox="0 0 22 22"><defs id="defs6532"><linearGradient id="linearGradient5606" osb:paint="solid"><stop id="stop5608" offset="0" style="stop-color:#000;stop-opacity:1"/></linearGradient></defs><metadata id="metadata6535"/><g id="layer3" transform="translate(-565,-500.99841)"><path id="path4274-6" d="m 573.19342,504 c -1.0982,1.38422 -1.4274,2.0662 -1.0313,2.94727 0.3591,0.79867 1.2869,1.2057 0.8203,3.05273 0.7664,-0.89992 1.3753,-2.04289 0.7735,-2.96484 -0.6122,-0.9377 -0.9475,-1.50716 -0.5625,-3.03516 z m 3,0 c -1.0982,1.38422 -1.4274,2.0662 -1.0313,2.94727 0.3591,0.79867 1.2869,1.2057 0.8203,3.05273 0.7664,-0.89992 1.3753,-2.04289 0.7735,-2.96484 -0.6122,-0.9377 -0.9475,-1.50716 -0.5625,-3.03516 z m 3,0 c -1.0982,1.38422 -1.4274,2.0662 -1.0313,2.94727 0.3591,0.79867 1.2869,1.2057 0.8203,3.05273 0.7664,-0.89992 1.3753,-2.04289 0.7735,-2.96484 -0.6122,-0.9377 -0.9475,-1.50716 -0.5625,-3.03516 z m -9.1934,7 0,3 c 0,3 2,5 5,5 l 2,0 c 3,0 4.7598,-1.56569 4.959,-4 l 0.541,0 c 1.5,0 1.5,-1.5 1.5,-1.5 l 0,-1 c 0,-1.5 -1.5,-1.5 -1.5,-1.5 l -0.5,0 -12,0 z m 12.5,1 c 0.5,-0.0323 0.5156,0.53125 0.5156,0.53125 l 0,1 c 0,0.46875 -0.5156,0.46875 -0.5156,0.46875 l -0.5,0 0.01,-1.98438 0.49,-0.0156 z" style="color:#000;fill:#fff;fill-opacity:1;stroke:none"/><rect id="rect9076" width="22" height="22" x="565" y="500.998" style="color:#bebebe;display:inline;overflow:visible;visibility:visible;fill:none;stroke:none;stroke-width:1;marker:none;enable-background:new"/></g></svg>