<svg xmlns="http://www.w3.org/2000/svg" xmlns:osb="http://www.openswatchbook.org/uri/2009/osb" xmlns:svg="http://www.w3.org/2000/svg" id="svg6530" width="22" height="22" version="1.1" viewBox="0 0 22 22"><defs id="defs6532"><linearGradient id="linearGradient5606" osb:paint="solid"><stop id="stop5608" offset="0" style="stop-color:#000;stop-opacity:1"/></linearGradient></defs><metadata id="metadata6535"/><g id="layer1" transform="translate(-53.000025,-665.3895)" style="display:inline"><path id="path7427" d="m 61.000027,673.3895 0,8 6,0 0,-8 z" style="opacity:.35;fill:#444;fill-opacity:1;stroke:none"/><rect id="rect7423" width="22" height="22" x="665.39" y="-75" transform="matrix(0,1,-1,0,0,0)" style="color:#ddd;display:inline;overflow:visible;visibility:visible;fill:none;stroke:none;stroke-width:1;marker:none"/><path id="path7425" d="m 62.000027,669.3895 0,1 4,0 0,-1 z m -2.15625,2 c -0.28125,0.0469 -0.84375,0.25 -0.84375,1 l 0,10 c 0,1 1,1 1,1 l 8,0 c 1,0 1,-1 1,-1 l 0,-10 c 0,0 0,-1 -1,-1 l -8,0 c 0,0 -0.0625,-0.0156 -0.15625,0 z m 0.15625,1 8,0 0,10 -8,0 z m 1,3 0,6 6,0 0,-6 z" style="fill:#444;fill-opacity:1;stroke:none"/></g></svg>