<svg xmlns="http://www.w3.org/2000/svg" xmlns:osb="http://www.openswatchbook.org/uri/2009/osb" xmlns:svg="http://www.w3.org/2000/svg" id="svg6530" width="22" height="22" version="1.1" viewBox="0 0 22 22"><defs id="defs6532"><linearGradient id="linearGradient5606" osb:paint="solid"><stop id="stop5608" offset="0" style="stop-color:#000;stop-opacity:1"/></linearGradient></defs><metadata id="metadata6535"/><g id="layer1" transform="translate(-101,-977.36053)" style="display:inline"><path id="path5203" d="m 107.99977,980.36216 -5,3 4,2.98438 -4.00977,3.00781 5.00977,3.00781 4,-3 -5,-3 5,-3 5,3.01562 -5,2.98438 1.77734,1.33398 c 0.91425,-1.45056 2.50802,-2.33148 4.22266,-2.33398 1.0745,0.003 2.11961,0.35112 2.98047,0.99414 l 0.0293,-0.0176 -4.00977,-2.97654 4,-3 -5,-3 -4,2.98438 -4,-2.98438 z m 10,9 c -2.20914,0 -4,1.79086 -4,4 0,2.20914 1.79086,4 4,4 2.20914,0 4,-1.79086 4,-4 0,-2.20914 -1.79086,-4 -4,-4 z m -6,1 -4,3 -1,-0.59961 0,0.59961 5,3 1.47656,-0.88477 c -0.31166,-0.66173 -0.47434,-1.38378 -0.47656,-2.11523 -2.4e-4,-0.67105 0.1346,-1.3353 0.39648,-1.95312 l -1.39648,-1.04688 z m 6,0 a 3,3 0 0 1 3,3 l -1,0 a 2,2 0 0 0 -2,-2 l 0,-1 z m -3,3 1,0 a 2,2 0 0 0 2,2 l 0,1 a 3,3 0 0 1 -3,-3 z" style="color:#000;fill:#444;fill-opacity:1;stroke:none"/><rect id="rect5205" width="22" height="22" x="101" y="977.361" style="color:#bebebe;display:inline;overflow:visible;visibility:visible;fill:none;stroke:none;stroke-width:1;marker:none;enable-background:new"/></g></svg>