<svg xmlns="http://www.w3.org/2000/svg" xmlns:osb="http://www.openswatchbook.org/uri/2009/osb" xmlns:svg="http://www.w3.org/2000/svg" id="svg6530" width="22" height="22" version="1.1" viewBox="0 0 22 22"><defs id="defs6532"><linearGradient id="linearGradient5606" osb:paint="solid"><stop id="stop5608" offset="0" style="stop-color:#000;stop-opacity:1"/></linearGradient></defs><metadata id="metadata6535"/><g id="layer1" transform="translate(-53.000212,-761.39459)" style="display:inline"><rect id="rect4938" width="22" height="22" x="761.395" y="-75" transform="matrix(0,1,-1,0,0,0)" style="color:#ddd;display:inline;overflow:visible;visibility:visible;fill:none;stroke:none;stroke-width:1;marker:none"/><path id="path4940" d="m 58.500212,764.39511 c -0.475874,-5.2e-4 -0.5,0.50001 -0.5,0.50001 l 0,0.5 -1.999985,-0.002 0,-2.6e-4 -1.5e-5,14.50174 c 0,0.277 0.223,0.50003 0.5,0.5 l 5,-5.2e-4 c 0.277,-3e-5 0.5,-0.223 0.5,-0.5 l 1.5e-5,-14.50122 -0.500015,0.002 -1.5,0 0,-0.5 c 0,-0.277 -0.223,-0.50008 -0.5,-0.50001 z" style="color:#bebebe;opacity:.35;fill:#444;fill-opacity:1;stroke:none;stroke-width:0;stroke-linecap:round;stroke-linejoin:round"/><path id="path4942" d="m 67.000227,767.39286 c -1.675744,0.11451 -3,1.95944 -3,4 l 0,0.002 3,0 z m 1,0 0,4.00195 3,0 0,-0.002 c 0,-2.04056 -1.324256,-3.88549 -3,-4 z m -4,5.00195 0,0.0156 0,0.73242 0,1.43164 c 0,2.1153 1.418914,3.81839 3.181641,3.81839 l 0.636718,0 c 1.762727,0 3.181641,-1.70309 3.181641,-3.81836 l 0,-1.43164 0,-0.73242 0,-0.0156 z" style="fill:#444;fill-opacity:1;stroke:none"/><path id="path4944" d="m 56.000227,769.39286 0,10.50195 c 0,0.277 0.223,0.50003 0.5,0.5 l 5,0 c 0.277,-3e-5 0.5,-0.223 0.5,-0.5 l 0,-10.50195 -6,0 z" style="color:#bebebe;opacity:1;fill:#444;fill-opacity:1;stroke:none;stroke-width:0;stroke-linecap:round;stroke-linejoin:round"/></g></svg>