<svg xmlns="http://www.w3.org/2000/svg" xmlns:osb="http://www.openswatchbook.org/uri/2009/osb" xmlns:svg="http://www.w3.org/2000/svg" id="svg6530" width="22" height="22" version="1.1" viewBox="0 0 22 22"><defs id="defs6532"><linearGradient id="linearGradient5606" osb:paint="solid"><stop id="stop5608" offset="0" style="stop-color:#000;stop-opacity:1"/></linearGradient></defs><metadata id="metadata6535"/><g id="layer1" transform="translate(-197.00043,-521.39122)" style="display:inline"><rect id="rect6109" width="22" height="22" x="197" y="521.391" style="color:#bebebe;display:inline;overflow:visible;visibility:visible;fill:none;stroke:none;stroke-width:1;marker:none"/><path id="rect7011" d="m 203.00023,525.3912 c 0,0 -2,0 -2,2.0625 l 0,9.9375 c 0,2 2,2 2,2 l 10,0 c 2,0 2,-2 2,-2 l 0,-10 c 0,0 0,-2 -2,-2 z m 3.0002,2.00002 4,0 c 2,0 2.05222,2.35142 2,2 l 0,1 -2,0 0,-1 -4,0 0,6 4,0 0,-1 -2,0 c 0,0 0,0 0,-1 0,-1 0,-1 0,-1 l 4,0 c 0,0 0,1 0,1.03125 l 0,1.96875 c 0,0 0,2 -2,2 l -4,0 c 0,0 -2,0 -2,-2 l 0,-6 c 0,-2 2,-2 2,-2 z" style="color:#bebebe;fill:#444;fill-opacity:1;stroke:none"/></g></svg>