<svg xmlns="http://www.w3.org/2000/svg" xmlns:osb="http://www.openswatchbook.org/uri/2009/osb" xmlns:svg="http://www.w3.org/2000/svg" id="svg6530" width="22" height="22" version="1.1" viewBox="0 0 22 22"><defs id="defs6532"><linearGradient id="linearGradient5606" osb:paint="solid"><stop id="stop5608" offset="0" style="stop-color:#000;stop-opacity:1"/></linearGradient></defs><metadata id="metadata6535"/><g id="layer1" transform="translate(-51.999942,-569.3895)" style="display:inline"><path id="path5983-7" d="m 65.00002,572.8583 0,1.03125 0,1.5 -2.5,0 -0.5,0 0,1 0.5,0 3,0 0.5,0 0,-0.5 0,-0.96875 3.40625,2.9687 -1.65625,1.56255 c 0.1496,0.28061 0.25,0.5961 0.25,0.9375 0.0428,0 0.0826,-0.002 0.125,0 l 2.87492,-2.50012 8e-5,7e-5 0,0 -5.1875,-4.37495 z m -4,4 -0.8125,0.65625 -5.1875,4.37495 0,0 0,0 5.1875,4.37505 0.8125,0.65625 0,-1.03125 0,-1.5 2.5,0 0.5,0 0,-1 -0.5,0 -3,0 -0.5,0 0,0.5 0,0.96875 -3.40625,-2.9688 1.40625,-1.37495 c -0.003,-0.0417 0,-0.0826 0,-0.125 0,-1.108 0.892,-2 2,-2 l 1,0 0,-0.5 z m 7,4.53125 c -0.0961,0 -0.18881,0.018 -0.28125,0.0312 -0.29767,0.49886 -0.80781,0.84404 -1.40625,0.9375 -0.19227,0.31227 -0.3125,0.66733 -0.3125,1.0625 l 0,0.96875 -1,0 0,1 0,2 0,1 1,0 4,0 1,0 0,-1 0,-2 0,-1 -1,0 0,-0.96875 c 0,-1.1199 -0.892,-2.03125 -2,-2.03125 z m -3,1 0,0.53125 0.0625,-0.0312 c 0.0318,-0.17525 0.0647,-0.3358 0.125,-0.5 l -0.1875,0 z m 3,0 c 0.554,0 1,0.4424 1,1 l 0,1 -2,0 0,-1 c 0,-0.5576 0.446,-1 1,-1 z" style="opacity:.35;fill:#444;fill-opacity:1;stroke:none"/><path id="path6015-5" d="m 60.00004,579.38955 c -0.55228,0 -1,0.44772 -1,1 0,0.55228 0.44772,1 1,1 0.55228,0 1,-0.44772 1,-1 0,-0.55228 -0.44772,-1 -1,-1 z m 3,0 c -0.55228,0 -1,0.44772 -1,1 0,0.55228 0.44772,1 1,1 0.55228,0 1,-0.44772 1,-1 0,-0.55228 -0.44772,-1 -1,-1 z m 3,0 c -0.55228,0 -1,0.44772 -1,1 0,0.55228 0.44772,1 1,1 0.55228,0 1,-0.44772 1,-1 0,-0.55228 -0.44772,-1 -1,-1 z" style="fill:#444;fill-opacity:1;stroke:none"/><rect id="rect6011" width="22" height="22" x="-74" y="569.39" transform="scale(-1,1)" style="color:#bebebe;display:inline;overflow:visible;visibility:visible;fill:none;stroke:none;stroke-width:1;marker:none;enable-background:new"/></g></svg>