<svg xmlns="http://www.w3.org/2000/svg" xmlns:osb="http://www.openswatchbook.org/uri/2009/osb" xmlns:svg="http://www.w3.org/2000/svg" id="svg6530" width="22" height="22" version="1.1" viewBox="0 0 22 22"><defs id="defs6532"><linearGradient id="linearGradient5606" osb:paint="solid"><stop id="stop5608" offset="0" style="stop-color:#000;stop-opacity:1"/></linearGradient></defs><metadata id="metadata6535"/><g id="layer1" transform="translate(-77.000233,-497.39286)" style="display:inline"><rect id="rect7348" width="22" height="22" x="-519.393" y="77" clip-path="none" transform="matrix(0,-1,1,0,0,0)" style="color:#bebebe;display:inline;overflow:visible;visibility:visible;fill:none;stroke:none;stroke-width:1;marker:none"/><path id="path7350" d="m 88.03428,502.39286 c -3.03435,0 -5.76588,1.07815 -8.03125,2.75 l 8.03125,8.75 7.96875,-8.78125 c -2.25661,-1.65329 -4.9577,-2.71875 -7.96875,-2.71875 z m -0.0625,1 c 2.39362,0 4.52424,0.83638 6.4375,2.03125 l -6.4375,7 -6.375,-7.03125 c 1.90092,-1.17864 4.00536,-2 6.375,-2 z" style="color:#000;display:inline;overflow:visible;visibility:visible;fill:#444;fill-opacity:1;fill-rule:nonzero;stroke:none;stroke-width:1;marker:none;enable-background:accumulate"/><path id="path7352" d="m 87.97178,506.79911 c -1.11918,0 -2.14739,0.25729 -3.09375,0.71875 l 3.09375,3.40625 3.09375,-3.375 c -0.94819,-0.46162 -1.97284,-0.75 -3.09375,-0.75 z" style="color:#000;display:inline;overflow:visible;visibility:visible;fill:#444;fill-opacity:1;fill-rule:nonzero;stroke:none;stroke-width:1;marker:none;enable-background:accumulate"/></g></svg>