<svg xmlns="http://www.w3.org/2000/svg" xmlns:osb="http://www.openswatchbook.org/uri/2009/osb" xmlns:svg="http://www.w3.org/2000/svg" id="svg6530" width="22" height="22" version="1.1" viewBox="0 0 22 22"><defs id="defs6532"><linearGradient id="linearGradient5606" osb:paint="solid"><stop id="stop5608" offset="0" style="stop-color:#000;stop-opacity:1"/></linearGradient></defs><metadata id="metadata6535"/><g id="layer1" transform="translate(-365.00043,-521.3912)" style="display:inline"><rect id="rect5805" width="22" height="22" x="365" y="521.391" style="color:#bebebe;display:inline;overflow:visible;visibility:visible;fill:none;stroke:none;stroke-width:1;marker:none"/><path id="path16126" d="m 371.00047,525.3912 c 0,0 -2,0 -2,2.0625 l 0,9.9375 c 0,2 2,2 2,2 l 10,0 c 2,0 2,-2 2,-2 l 0,-10 c 0,0 10e-6,-2 -2,-2 z m 1.0002,2.00002 2,0 0,8 4,0 0,-8 2,0 0,8 c 0,0 0,2 -2,2 l -4,0 c 0,0 -2,0 -2,-2 z" style="color:#bebebe;fill:#444;fill-opacity:1;stroke:none"/></g></svg>