<svg xmlns="http://www.w3.org/2000/svg" xmlns:osb="http://www.openswatchbook.org/uri/2009/osb" xmlns:svg="http://www.w3.org/2000/svg" id="svg6530" width="22" height="22" version="1.1" viewBox="0 0 22 22"><defs id="defs6532"><linearGradient id="linearGradient5606" osb:paint="solid"><stop id="stop5608" offset="0" style="stop-color:#000;stop-opacity:1"/></linearGradient></defs><metadata id="metadata6535"/><g id="layer1" transform="translate(-101.00021,-737.39459)" style="display:inline"><rect id="rect10698" width="22" height="22" x="737.395" y="-123" transform="matrix(0,1,-1,0,0,0)" style="color:#ddd;display:inline;overflow:visible;visibility:visible;fill:none;stroke:none;stroke-width:1;marker:none"/><path id="path10700" d="m 113.00021,740.39459 c -1,0 -1,1.00001 -1,1.00001 l 0,14 c 0,0 0,1 1,1 l 6,0 c 1,0 1,-1 1,-1 l 0,-14 c 0,0 0,-1.00001 -1,-1.00001 z m 0.9998,2.00336 4,0 0,11 -4,0 z" style="fill:#444;fill-opacity:1;stroke:none"/><path id="path10702" d="m 106.50021,740.39459 c -0.277,-7e-5 -0.5,0.22301 -0.5,0.50001 l 0,0.5 -1.99998,-0.002 0,-2.6e-4 -2e-5,14.50174 c 0,0.277 0.223,0.5 0.5,0.5 l 5,0 c 0.277,0 0.49836,-0.223 0.5,-0.5 l 2e-5,-14.50122 -0.50002,0.002 -1.5,0 0,-0.5 c 0,-0.277 -0.223,-0.49994 -0.5,-0.50001 z" style="color:#bebebe;opacity:.35;fill:#444;fill-opacity:1;stroke:none;stroke-width:0;stroke-linecap:round;stroke-linejoin:round"/><path id="path10704" d="m 104.00023,750.39286 -2e-5,5.50174 c 0,0.277 0.223,0.5 0.5,0.5 l 5,0 c 0.277,0 0.5,-0.223 0.5,-0.5 l 2e-5,-5.50174 z" style="color:#bebebe;fill:#444;fill-opacity:1;stroke:none;stroke-width:0;stroke-linecap:round;stroke-linejoin:round"/></g></svg>