<svg xmlns="http://www.w3.org/2000/svg" xmlns:osb="http://www.openswatchbook.org/uri/2009/osb" xmlns:svg="http://www.w3.org/2000/svg" id="svg6530" width="22" height="22" version="1.1" viewBox="0 0 22 22"><defs id="defs6532"><linearGradient id="linearGradient5606" osb:paint="solid"><stop id="stop5608" offset="0" style="stop-color:#000;stop-opacity:1"/></linearGradient></defs><metadata id="metadata6535"/><g id="layer1" transform="translate(-101.00043,-809.39122)" style="display:inline"><rect id="rect12108" width="22" height="22" x="101" y="809.391" style="color:#bebebe;display:inline;overflow:visible;visibility:visible;fill:none;stroke:none;stroke-width:1;marker:none"/><path id="path3003-8" d="m 107.00023,814.3912 c 0,0 -2,0 -2,2 l 0,6 c 0,2 2,2 2,2 l 5,0 2,3.00338 2,-3.00338 1,0 c 1.108,0 2,-0.892 2,-2 l 0,-1 0,-2 0,-3 c 0,-2 -1.96875,-2 -1.96875,-2 z m 4,1 2,0 0,3 0,2 -2,0 -3,0 0,-2 3,0 z" style="opacity:.35;fill:#444;fill-opacity:1;stroke:none"/></g></svg>