<svg xmlns="http://www.w3.org/2000/svg" xmlns:osb="http://www.openswatchbook.org/uri/2009/osb" xmlns:svg="http://www.w3.org/2000/svg" id="svg6530" width="22" height="22" version="1.1" viewBox="0 0 22 22"><defs id="defs6532"><linearGradient id="linearGradient5606" osb:paint="solid"><stop id="stop5608" offset="0" style="stop-color:#000;stop-opacity:1"/></linearGradient></defs><metadata id="metadata6535"/><g id="layer1" transform="translate(-77.000187,-905.35884)" style="display:inline"><rect id="rect6100" width="22" height="22" x="77" y="905.359" style="color:#bebebe;display:inline;overflow:visible;visibility:visible;fill:none;stroke:none;stroke-width:1.78100002;marker:none;enable-background:new"/><rect id="rect6105" width="22" height="22" x="77" y="905.359" style="color:#bebebe;display:inline;overflow:visible;visibility:visible;fill:none;stroke:none;stroke-width:1.78100002;marker:none;enable-background:new"/><path id="path6096" d="m 86.99996,908.3622 -0.5,1.03125 c 0.16191,-0.0133 0.3348,-0.0312 0.5,-0.0312 l 0.5,0 -0.5,-1 z m 0,2 c -2.76142,0 -5,2.23859 -5,5 0,2.254 1.51261,4.12577 3.5625,4.75 0.46885,-0.67743 1.17975,-1.20533 1.96875,-1.4375 0.61973,-1.32203 1.97474,-2.3383 3.46875,-2.3125 0.30449,-0.005 0.58708,0.056 0.875,0.125 0.0845,-0.36435 0.125,-0.73495 0.125,-1.125 0,-2.76141 -2.23858,-5 -5,-5 z m -4.9375,0.0625 0.34375,1.0625 c 0.21905,-0.25922 0.45953,-0.4997 0.71875,-0.71875 l -1.0625,-0.34375 z m 9.875,0 -1.09375,0.375 -0.0625,0 c 0.13917,0.11095 0.27498,0.22511 0.40625,0.34375 0.13127,0.11864 0.25799,0.24175 0.375,0.375 l 0.375,-1.09375 z m -10.9375,4.4375 -1,0.5 1.03125,0.5 c -0.0148,-0.16931 -0.0312,-0.3264 -0.0312,-0.5 0,-0.0275 -0.002,-0.0836 0,-0.15625 0.006,-0.11583 0.0223,-0.23224 0.0312,-0.34375 l -0.0312,0 z m 11.96875,0 c 0.0148,0.16931 0.0312,0.3264 0.0312,0.5 0,0.0275 0.002,0.0836 0,0.15625 -0.006,0.11583 -0.0223,0.23224 -0.0312,0.34375 l 0.0312,0 1,-0.5 -1.03125,-0.5 z m -10.53125,4.34375 -0.375,1.09375 1.09375,-0.375 0.0625,0 c -0.13917,-0.11095 -0.27498,-0.22511 -0.40625,-0.34375 -0.13127,-0.11864 -0.25799,-0.24175 -0.375,-0.375 z" style="color:#bebebe;display:inline;overflow:visible;visibility:visible;fill:#444;fill-opacity:1;fill-rule:nonzero;stroke:none;stroke-width:2;marker:none;enable-background:accumulate"/><path id="path6304" d="m 90.99996,917.3622 c -1.31168,0 -2.40482,0.85843 -2.8125,2.03125 -1.23083,0.15597 -2.1875,1.19557 -2.1875,2.46875 0,1.38071 1.11929,2.5 2.5,2.5 l 5.5,0 c 1.10457,0 2,-0.89543 2,-2 0,-1.10457 -0.89543,-2 -2,-2 0,-1.65685 -1.34315,-3 -3,-3 z" style="fill:#444;fill-opacity:1;stroke:none"/></g></svg>