<svg xmlns="http://www.w3.org/2000/svg" xmlns:osb="http://www.openswatchbook.org/uri/2009/osb" xmlns:svg="http://www.w3.org/2000/svg" id="svg6530" width="22" height="22" version="1.1" viewBox="0 0 22 22"><defs id="defs6532"><linearGradient id="linearGradient5606" osb:paint="solid"><stop id="stop5608" offset="0" style="stop-color:#000;stop-opacity:1"/></linearGradient></defs><metadata id="metadata6535"/><g id="layer1" transform="translate(-125.00023,-905.3622)" style="display:inline"><rect id="rect18110-7-1-6-6-8-9" width="22" height="22" x="125" y="905.362" style="color:#bebebe;display:inline;overflow:visible;visibility:visible;fill:none;stroke:none;stroke-width:1.78100002;marker:none;enable-background:new"/><path id="path6020" d="m 136.00022,908.3622 c -2.07107,0 -3.83471,1.26792 -4.59375,3.0625 -1.92783,0.2866 -3.40625,1.92992 -3.40625,3.9375 0,2.20914 1.79086,4 4,4 l 0.40625,0 c 0.45387,-0.80125 1.24093,-1.42735 2.125,-1.6875 0.61973,-1.32203 1.97474,-2.3383 3.46875,-2.3125 1.90766,-0.0307 3.58166,1.48472 3.875,3.34375 0.14292,0.0452 0.26925,0.0908 0.40625,0.15625 1.03029,-0.60915 1.71875,-1.7164 1.71875,-3 0,-1.79654 -1.35079,-3.2687 -3.09375,-3.46875 -0.45457,-2.29339 -2.47938,-4.03125 -4.90625,-4.03125 z m 2,9 c -0.33987,-7.6e-4 -0.67579,0.0775 -0.96875,0.25 -0.58776,0.31859 -0.89071,0.94681 -1.0625,1.5625 -0.0228,0.2123 -0.28964,0.1241 -0.4375,0.1875 l 4.46875,0 c 0.0209,-1.06592 -0.92424,-2.03672 -2,-2 z" style="fill:#444;fill-opacity:1;stroke:none"/><path id="path6051" d="m 138.00022,916.3622 c -1.31168,0 -2.40482,0.85843 -2.8125,2.03125 -1.23083,0.15597 -2.1875,1.19557 -2.1875,2.46875 0,1.38071 1.11929,2.5 2.5,2.5 l 5.5,0 c 1.10457,0 2,-0.89543 2,-2 0,-1.10457 -0.89543,-2 -2,-2 0,-1.65685 -1.34315,-3 -3,-3 z" style="fill:#444;fill-opacity:1;stroke:none"/></g></svg>