<svg xmlns="http://www.w3.org/2000/svg" xmlns:osb="http://www.openswatchbook.org/uri/2009/osb" xmlns:svg="http://www.w3.org/2000/svg" id="svg6530" width="22" height="22" version="1.1" viewBox="0 0 22 22"><defs id="defs6532"><linearGradient id="linearGradient5606" osb:paint="solid"><stop id="stop5608" offset="0" style="stop-color:#000;stop-opacity:1"/></linearGradient></defs><metadata id="metadata6535"/><g id="layer1" transform="translate(-173.00016,-905.35877)" style="display:inline"><rect id="rect18110-7-1-6-6-8-9-2" width="22" height="22" x="173" y="905.359" style="color:#bebebe;display:inline;overflow:visible;visibility:visible;fill:none;stroke:none;stroke-width:1.78100002;marker:none;enable-background:new"/><path id="rect6343" d="m 176.0003,911.3588 13,0 c 2.99997,-10e-6 2.99999,3 2.99999,3 l -13,0 c 0,0 -3.00002,-10e-6 -2.99999,-3 z" style="color:#bebebe;display:inline;overflow:visible;visibility:visible;opacity:.35;fill:#444;fill-opacity:1;fill-rule:nonzero;stroke:none;stroke-width:2;marker:none;enable-background:accumulate"/><path id="rect6345" d="m 189.00032,915.3588 -13,0 c -2e-5,3 2.99998,3 2.99998,3 l 13,0 c 0,0 0,-3 -2.99998,-3 z" style="color:#bebebe;display:inline;overflow:visible;visibility:visible;opacity:.35;fill:#444;fill-opacity:1;fill-rule:nonzero;stroke:none;stroke-width:2;marker:none;enable-background:accumulate"/><path id="rect6347" d="m 176.00029,919.3588 13,0 c 3,-2e-5 2.99998,3 2.99998,3 l -13,0 c 0,0 -2.99998,-2e-5 -2.99998,-3 z" style="color:#bebebe;display:inline;overflow:visible;visibility:visible;opacity:.35;fill:#444;fill-opacity:1;fill-rule:nonzero;stroke:none;stroke-width:2;marker:none;enable-background:accumulate"/></g></svg>