<svg xmlns="http://www.w3.org/2000/svg" xmlns:osb="http://www.openswatchbook.org/uri/2009/osb" xmlns:svg="http://www.w3.org/2000/svg" id="svg6530" width="24" height="24" version="1.1" viewBox="0 0 24 24"><defs id="defs6532"><linearGradient id="linearGradient5606" osb:paint="solid"><stop id="stop5608" offset="0" style="stop-color:#000;stop-opacity:1"/></linearGradient></defs><metadata id="metadata6535"/><g id="layer1" transform="translate(-592,-640.36216)" style="display:inline"><path id="path12453" d="m 597.9998,644.36184 c 0,0 -2,0 -2,2.0625 l 0,11.9375 c 0,2 2,2 2,2 l 12,0 c 2,0 2,-2 2,-2 l 0,-12 c 0,0 0,-2 -2,-2 l -12,0 z m 0.0898,4.32422 1.38868,0 1.32617,3.9082 1.33593,-3.9082 1.39454,0 0,7.67578 -0.96094,0 0,-6.78125 -1.36914,4.04687 -0.78516,0 -1.37304,-4.04687 0,6.78125 -0.95704,0 0,-7.67578 z m 10.59571,1.77929 c 0.23307,0 0.45207,0.0296 0.65429,0.0879 0.20223,0.0583 0.39499,0.14809 0.58008,0.27149 l 0,0.96679 c -0.20223,-0.15766 -0.4081,-0.27177 -0.61719,-0.34375 -0.20908,-0.072 -0.43728,-0.10937 -0.6875,-0.10937 -0.58954,0 -1.0416,0.18646 -1.35351,0.55664 -0.31191,0.37018 -0.4668,0.90429 -0.4668,1.60352 l 0,2.86328 -0.95117,0 0,-5.75782 0.95117,0 0,1.125 c 0.15767,-0.40788 0.39899,-0.7196 0.72461,-0.93554 0.32905,-0.21937 0.717,-0.32813 1.16602,-0.32813 z" style="color:#bebebe;fill:#444;fill-opacity:1;stroke:none"/></g></svg>