<svg xmlns="http://www.w3.org/2000/svg" xmlns:osb="http://www.openswatchbook.org/uri/2009/osb" xmlns:svg="http://www.w3.org/2000/svg" id="svg6530" width="24" height="24" version="1.1" viewBox="0 0 24 24"><defs id="defs6532"><linearGradient id="linearGradient5606" osb:paint="solid"><stop id="stop5608" offset="0" style="stop-color:#000;stop-opacity:1"/></linearGradient></defs><metadata id="metadata6535"/><g id="layer1" transform="translate(-496,-640.36216)" style="display:inline"><path id="path12413" d="m 501.9998,644.36184 c 0,0 -2,0 -2,2.0625 l 0,11.9375 c 0,2 2,2 2,2 l 12,0 c 2,0 2,-2 2,-2 l 0,-12 c 0,0 0,-2 -2,-2 l -12,0 z m 8.77344,4 0.94726,0 0,1.19726 -0.94726,0 0,-1.19726 z m -8.6836,0.32422 1.38868,0 1.32617,3.9082 1.33593,-3.9082 1.39454,0 0,7.67578 -0.96094,0 0,-6.78125 -1.36914,4.04687 -0.78516,0 -1.37305,-4.04687 0,6.78125 -0.95703,0 0,-7.67578 z m 7.20899,1.91796 2.42187,0 0,5.02344 1.875,0 0,0.73438 -4.69922,0 0,-0.73438 1.87696,0 0,-4.28906 -1.47461,0 0,-0.73438 z" style="color:#bebebe;fill:#444;fill-opacity:1;stroke:none"/></g></svg>