<svg xmlns="http://www.w3.org/2000/svg" xmlns:osb="http://www.openswatchbook.org/uri/2009/osb" xmlns:svg="http://www.w3.org/2000/svg" id="svg6530" width="24" height="24" version="1.1" viewBox="0 0 24 24"><defs id="defs6532"><linearGradient id="linearGradient5606" osb:paint="solid"><stop id="stop5608" offset="0" style="stop-color:#000;stop-opacity:1"/></linearGradient></defs><metadata id="metadata6535"/><g id="layer1" transform="translate(-592,-544.36216)" style="display:inline"><path id="path12053" d="m 597.9998,548.36184 c 0,0 -2,0 -2,2.0625 l 0,11.9375 c 0,2 2,2 2,2 l 12,0 c 2,0 2,-2 2,-2 l 0,-12 c 0,0 0,-2 -2,-2 l -12,0 z m 10.31055,4 1.13672,0 0,0.78711 -1.07422,0 c -0.33934,0 -0.57531,0.0704 -0.70899,0.21093 -0.13025,0.13711 -0.19531,0.38134 -0.19531,0.73438 l 0,0.50976 1.97852,0 0,0.73438 -1.97852,0 0,5.02344 -0.94727,0 0,-5.02344 -1.5371,0 0,-0.73438 1.5371,0 0,-0.40039 c 0,-0.63067 0.14373,-1.09632 0.43164,-1.39453 0.29135,-0.2982 0.74389,-0.44726 1.35743,-0.44726 z m -9.46485,0.32422 4.51953,0 0,0.87304 -3.47656,0 0,2.26367 3.15235,0 0,0.87305 -3.15235,0 0,3.66602 -1.04297,0 0,-7.67578 z" style="color:#bebebe;fill:#444;fill-opacity:1;stroke:none"/></g></svg>