<svg xmlns="http://www.w3.org/2000/svg" xmlns:osb="http://www.openswatchbook.org/uri/2009/osb" xmlns:svg="http://www.w3.org/2000/svg" id="svg6530" width="24" height="24" version="1.1" viewBox="0 0 24 24"><defs id="defs6532"><linearGradient id="linearGradient5606" osb:paint="solid"><stop id="stop5608" offset="0" style="stop-color:#000;stop-opacity:1"/></linearGradient></defs><metadata id="metadata6535"/><g id="layer1" transform="translate(-616,-712.36216)" style="display:inline"><path id="path12877" d="m 621.9998,716.36184 c 0,0 -2,0 -2,2.0625 l 0,11.9375 c 0,2 2,2 2,2 l 12,0 c 2,0 2,-2 2,-2 l 0,-12 c 0,0 0,-2 -2,-2 l -12,0 z m 7.19531,4 0.97657,0 0,4.63281 2.48437,-2.39063 1.15039,0 -2.26758,2.16993 2.62305,3.58789 -1.15625,0 -2.12891,-2.97071 -0.70507,0.66211 0,2.3086 -0.97657,0 0,-8 z m -6.79101,0.32422 1.04297,0 0,5.20312 c 0,0.37361 0.0107,0.64164 0.0312,0.80273 0.0206,0.15768 0.056,0.27955 0.10742,0.36524 0.10968,0.20223 0.267,0.3542 0.47265,0.45703 0.20909,0.10283 0.46109,0.1543 0.75586,0.1543 0.2982,0 0.55021,-0.0515 0.75586,-0.1543 0.20566,-0.10283 0.36541,-0.2548 0.47852,-0.45703 0.0514,-0.0857 0.0868,-0.20756 0.10742,-0.36524 0.0206,-0.15765 0.0312,-0.42278 0.0312,-0.79296 l 0,-5.21289 1.03906,0 0,4.73046 c 0,0.78492 -0.051,1.34331 -0.15039,1.67579 -0.096,0.32904 -0.26202,0.60046 -0.50195,0.8164 -0.22622,0.20223 -0.486,0.35373 -0.77734,0.45313 -0.29135,0.0994 -0.6191,0.14843 -0.98243,0.14843 -0.35989,0 -0.68521,-0.049 -0.97656,-0.14843 -0.29134,-0.0994 -0.5516,-0.2509 -0.78125,-0.45313 -0.2365,-0.2125 -0.40451,-0.48636 -0.50391,-0.82226 -0.0994,-0.33934 -0.14843,-0.89529 -0.14843,-1.66993 l 0,-4.73046 z" style="color:#bebebe;fill:#444;fill-opacity:1;stroke:none"/></g></svg>