<svg xmlns="http://www.w3.org/2000/svg" xmlns:osb="http://www.openswatchbook.org/uri/2009/osb" xmlns:svg="http://www.w3.org/2000/svg" id="svg6530" width="24" height="24" version="1.1" viewBox="0 0 24 24"><defs id="defs6532"><linearGradient id="linearGradient5606" osb:paint="solid"><stop id="stop5608" offset="0" style="stop-color:#000;stop-opacity:1"/></linearGradient></defs><metadata id="metadata6535"/><g id="layer1" transform="translate(-448,-496.36216)" style="display:inline"><path id="path11726" d="m 453.9998,500.36184 c 0,0 -2,0 -2,2.0625 l 0,11.9375 c 0,2 2,2 2,2 l 12,0 c 2,0 2,-2 2,-2 l 0,-12 c 0,0 0,-2 -2,-2 l -12,0 z m 7.19531,4 0.97656,0 0,4.63281 2.48438,-2.39063 1.15039,0 -2.26758,2.16993 2.62305,3.58789 -1.15625,0 -2.12891,-2.97071 -0.70508,0.66211 0,2.3086 -0.97656,0 0,-8 z m -5.00781,0.32422 1.25977,0 2.3496,7.67578 -1.07421,0 -0.56641,-2 -2.6875,0 -0.55664,2 -1.07422,0 2.34961,-7.67578 z m 0.62695,0.91601 -1.09375,3.92774 2.18946,0 -1.09571,-3.92774 z" style="color:#bebebe;fill:#444;fill-opacity:1;stroke:none"/></g></svg>