<svg xmlns="http://www.w3.org/2000/svg" xmlns:osb="http://www.openswatchbook.org/uri/2009/osb" xmlns:svg="http://www.w3.org/2000/svg" id="svg6530" width="24" height="24" version="1.1" viewBox="0 0 24 24"><defs id="defs6532"><linearGradient id="linearGradient5606" osb:paint="solid"><stop id="stop5608" offset="0" style="stop-color:#000;stop-opacity:1"/></linearGradient></defs><metadata id="metadata6535"/><g id="layer1" transform="translate(-640,-592.36216)" style="display:inline"><path id="path12273" d="m 645.9998,596.36184 c 0,0 -2,0 -2,2.0625 l 0,11.9375 c 0,2 2,2 2,2 l 12,0 c 2,0 2,-2 2,-2 l 0,-12 c 0,0 0,-2 -2,-2 l -12,0 z m 7.19531,4 0.97657,0 0,4.63281 2.48437,-2.39063 1.15039,0 -2.26758,2.16993 2.62305,3.58789 -1.15625,0 -2.12891,-2.97071 -0.70507,0.66211 0,2.3086 -0.97657,0 0,-8 z m -6.84375,0.32422 1.04492,0 0,3.41406 3.24414,-3.41406 1.21876,0 -2.98829,3.13671 3.07422,4.53907 -1.2539,0 -2.50391,-3.84571 -0.79102,0.84375 0,3.00196 -1.04492,0 0,-7.67578 z" style="color:#bebebe;fill:#444;fill-opacity:1;stroke:none"/></g></svg>