<svg xmlns="http://www.w3.org/2000/svg" xmlns:osb="http://www.openswatchbook.org/uri/2009/osb" xmlns:svg="http://www.w3.org/2000/svg" id="svg6530" width="22" height="22" version="1.1" viewBox="0 0 22 22"><defs id="defs6532"><linearGradient id="linearGradient5606" osb:paint="solid"><stop id="stop5608" offset="0" style="stop-color:#000;stop-opacity:1"/></linearGradient></defs><metadata id="metadata6535"/><g id="layer3" transform="translate(-541,-500.99841)"><path id="path4274" d="m 546.00002,514 c 0,3 2,5 5,5 l 2,0 c 3,0 4.7598,-1.56569 4.959,-4 l 0.541,0 c 1.5,0 1.5,-1.5 1.5,-1.5 l 0,-1 c 0,-1.5 -1.5,-1.5 -1.5,-1.5 l -0.5,0 -12,0 z m 12.5,-2 c 0.5,-0.0323 0.5156,0.53125 0.5156,0.53125 l 0,1 c 0,0.46875 -0.5156,0.46875 -0.5156,0.46875 l -0.5,0 0.01,-1.98438 z" style="color:#000;fill:#444;fill-opacity:1;stroke:none"/><path id="path4276" d="m 552.19332,504 c -1.0982,1.38422 -1.4282,2.06599 -1.0321,2.94706 0.3591,0.79867 1.2876,1.20591 0.821,3.05294 0.7664,-0.89992 1.3758,-2.04275 0.774,-2.9647 -0.6122,-0.9377 -0.9479,-1.5073 -0.5629,-3.0353 z" style="color:#000;opacity:.35;fill:#444;fill-opacity:1;stroke:none"/><path id="path4278" d="m 549.19332,504 c -1.0982,1.38422 -1.4282,2.06599 -1.0321,2.94706 0.3591,0.79867 1.2876,1.20591 0.821,3.05294 0.7664,-0.89992 1.3758,-2.04275 0.774,-2.9647 -0.6122,-0.9377 -0.9479,-1.5073 -0.5629,-3.0353 z" style="color:#000;opacity:.35;fill:#444;fill-opacity:1;stroke:none"/><path id="path4280" d="m 555.19332,504 c -1.0982,1.38422 -1.4282,2.06599 -1.0321,2.94706 0.3591,0.79867 1.2876,1.20591 0.821,3.05294 0.7664,-0.89992 1.3758,-2.04275 0.774,-2.9647 -0.6122,-0.9377 -0.9479,-1.5073 -0.5629,-3.0353 z" style="color:#000;opacity:.35;fill:#444;fill-opacity:1;stroke:none"/><rect id="rect9078" width="22" height="22" x="541" y="500.998" style="color:#bebebe;display:inline;overflow:visible;visibility:visible;fill:none;stroke:none;stroke-width:1;marker:none;enable-background:new"/></g></svg>