<svg xmlns="http://www.w3.org/2000/svg" xmlns:osb="http://www.openswatchbook.org/uri/2009/osb" xmlns:svg="http://www.w3.org/2000/svg" id="svg6530" width="22" height="22" version="1.1" viewBox="0 0 22 22"><defs id="defs6532"><linearGradient id="linearGradient5606" osb:paint="solid"><stop id="stop5608" offset="0" style="stop-color:#000;stop-opacity:1"/></linearGradient></defs><metadata id="metadata6535"/><g id="layer3" transform="translate(-541,-453)"><path id="path4835" d="m 552,456.00162 a 8,8 0 0 0 -6.30469,3.07812 l 2.38477,4.13086 A 4,4 0 0 1 552,460.00162 l 6.91992,0 a 8,8 0 0 0 -6.91992,-4 z m -6.92188,4.00977 A 8,8 0 0 0 544,464.00162 a 8,8 0 0 0 6.89453,7.91406 l 2.38477,-4.1289 a 4,4 0 0 1 -1.2793,0.21484 4,4 0 0 1 -3.45898,-2.00195 l -0.006,0.002 -3.45704,-5.99023 z M 552,461.00162 a 3,3 0 0 0 -3,3 3,3 0 0 0 3,3 3,3 0 0 0 3,-3 3,3 0 0 0 -3,-3 z m 2.63867,0 a 4,4 0 0 1 1.36133,3 4,4 0 0 1 -0.53906,1.99805 l 0.004,0.002 -3.46289,6 A 8,8 0 0 0 560,464.00162 a 8,8 0 0 0 -0.58984,-3 l -4.77149,0 z" style="opacity:1;fill:#444;fill-opacity:1;stroke:none;stroke-width:8;stroke-linecap:round;stroke-linejoin:miter;stroke-miterlimit:4;stroke-dasharray:none;stroke-opacity:1"/><rect id="rect7955" width="22" height="22" x="541" y="453" style="color:#bebebe;display:inline;overflow:visible;visibility:visible;fill:none;stroke:none;stroke-width:1;marker:none;enable-background:new"/></g></svg>