<svg xmlns="http://www.w3.org/2000/svg" xmlns:osb="http://www.openswatchbook.org/uri/2009/osb" xmlns:svg="http://www.w3.org/2000/svg" id="svg6530" width="22" height="22" version="1.1" viewBox="0 0 22 22"><defs id="defs6532"><linearGradient id="linearGradient5606" osb:paint="solid"><stop id="stop5608" offset="0" style="stop-color:#000;stop-opacity:1"/></linearGradient></defs><metadata id="metadata6535"/><g id="layer3" transform="translate(-469,-500.99841)"><path id="path4054" d="m 474,504 c 0,0 -2,0 -2,2 l 0,12 c 0,2 2,2 2,2 l 12,0 c 2,0 2,-2 2,-2 l 0,-12.03125 c 0,0 0,-1.96875 -2,-1.96875 l -12,0 z m 0,1 12,0 c 1,0 1,1 1,1 l 0,1 0,6 0,1 -0.625,0 -1.90625,-6.625 -0.4375,-1.5625 -0.5,1.53125 L 482,511.9375 480.46875,507.34375 480,505.90625 l -0.46875,1.4375 -2.5,7.5 -1.5625,-5.46875 -0.0937,-0.375 -0.375,0 -2,0 0,-2 0,-1 c 0,0 0,-1 1,-1 z m 6,4.0625 1.53125,4.59375 0.46875,1.4375 0.46875,-1.4375 1.5,-4.5 1.5625,5.46875 0.0937,0.375 0.375,0 1,0 0,2 0,1 c 0,1 -1,1 -1,1 l -12,0 c 0,0 -1,0 -1,-1 l 0,-1 0,-6 0,-1 1.625,0 1.90625,6.625 0.4375,1.5625 0.5,-1.53125 L 480,509.0625 Z" style="fill:#444;fill-opacity:1;stroke:none"/><rect id="rect9084" width="22" height="22" x="469" y="500.998" style="color:#bebebe;display:inline;overflow:visible;visibility:visible;fill:none;stroke:none;stroke-width:1;marker:none;enable-background:new"/></g></svg>