<svg xmlns="http://www.w3.org/2000/svg" xmlns:osb="http://www.openswatchbook.org/uri/2009/osb" xmlns:svg="http://www.w3.org/2000/svg" id="svg6530" width="22" height="22" version="1.1" viewBox="0 0 22 22"><defs id="defs6532"><linearGradient id="linearGradient5606" osb:paint="solid"><stop id="stop5608" offset="0" style="stop-color:#000;stop-opacity:1"/></linearGradient></defs><metadata id="metadata6535"/><g id="layer3" transform="translate(-469,-476.99838)"><path id="path3775-3" d="m 475,481 0,2 4,0 0,3 2,0 0,-3 4,0 0,-2 z m 6,5 0,3 2,0 -3,3 -3,-3 2,0 0,-3 -3,0 c 0,0 -0.9427,-0.0499 -1,0.875 l -1,6 0,1.125 1,0 10,0 1,0 0,-1.125 -1,-6 C 484.87762,486.0183 484,486 484,486 Z" style="color:#000;fill:#444;fill-opacity:1;stroke:none;stroke-width:2"/><rect id="rect9063" width="22" height="22" x="469" y="476.998" style="color:#bebebe;display:inline;overflow:visible;visibility:visible;fill:none;stroke:none;stroke-width:1;marker:none;enable-background:new"/></g></svg>