<svg xmlns="http://www.w3.org/2000/svg" xmlns:osb="http://www.openswatchbook.org/uri/2009/osb" xmlns:svg="http://www.w3.org/2000/svg" id="svg6530" width="22" height="22" version="1.1" viewBox="0 0 22 22"><defs id="defs6532"><linearGradient id="linearGradient5606" osb:paint="solid"><stop id="stop5608" offset="0" style="stop-color:#000;stop-opacity:1"/></linearGradient></defs><metadata id="metadata6535"/><g id="layer3" transform="translate(-445,-476.99838)"><path id="path3133" d="m 449,481.00005 c -1,0 -1,1 -1,1 l 0,8.9375 0,2.71875 c 0.21549,0.23277 0.54729,0.35699 0.875,0.3125 0.0445,0.006 0.0788,0.0312 0.125,0.0312 l 14,0 c 0.554,0 1,-0.446 1,-1 l 0,-11 c 0,-0.554 -0.446,-1 -1,-1 l -2.90625,0 -1.0625,0 z m 0,1 10.40625,0 1.0625,0 2.53125,0 0,7 0,1.09375 0,1.90625 -4.5625,0 -9.4375,0 0,-0.15625 z m 8,1 c -0.55228,0 -1,0.44772 -1,1 0,0.55228 0.44772,1 1,1 0.55228,0 1,-0.44772 1,-1 0,-0.55228 -0.44772,-1 -1,-1 z m -4,3 c -1.5,0 -3,2 -3,4.53125 l 0,0.46875 12,0 0,0 c 0,0 -1,-4 -2.5,-4 -1.5,0 -1.5,2 -2.5,2 -1,0 -2.5,-3 -4,-3 z" style="color:#bebebe;fill:#444;fill-opacity:1;stroke:none"/><rect id="rect9047" width="22" height="22" x="445" y="476.998" style="color:#bebebe;display:inline;overflow:visible;visibility:visible;fill:none;stroke:none;stroke-width:1;marker:none;enable-background:new"/></g></svg>