<svg xmlns="http://www.w3.org/2000/svg" xmlns:xlink="http://www.w3.org/1999/xlink" width="48" height="48" version="1.1"><defs id="defs4"><linearGradient id="ButtonShadow-9" x2="0" y1="92.54" y2="7.02" gradientTransform="scale(1.0058652,0.994169)" gradientUnits="userSpaceOnUse"><stop id="stop3750-3"/><stop id="stop3752-1" offset="1" stop-opacity=".588"/></linearGradient><filter id="filter3174-4" color-interpolation-filters="sRGB"><feGaussianBlur id="feGaussianBlur3176-5" stdDeviation="1.71"/></filter><linearGradient id="linearGradient6176" x2="0" y1="92.54" y2="7.02" gradientTransform="scale(1.0058652,0.994169)" gradientUnits="userSpaceOnUse" xlink:href="#ButtonShadow-9"/></defs><metadata id="metadata7"/><g id="g3011" transform="matrix(2,0,0,2,-45.779652,-28.474576)"><path id="rect2388-2-2-5" fill="#e13f2b" d="m 32.889826,18.737288 0,1 4,0 0,-1 -4,0 z m -2.15625,2 c -0.28125,0.0469 -0.84375,0.25 -0.84375,1 l 0,10 c 0,1 1,1 1,1 l 7,0 0,-1 -7,0 0,-10 8,0 0,1 1,0 0,-1 c 0,0 0,-1 -1,-1 l -8,0 c 0,0 -0.0625,-0.0156 -0.15625,0 z"/><path id="path7562" fill="#e13f2b" d="m 38.889836,23.737288 0,5 0.25,2 1.5,0 0.25,-2 0,-5 z m 0,8 0,2 2,0 0,-2 z"/></g></svg>