<svg xmlns="http://www.w3.org/2000/svg" xmlns:xlink="http://www.w3.org/1999/xlink" width="48" height="48" version="1.2"><defs id="defs4"><linearGradient id="ButtonShadow-9" x2="0" y1="92.54" y2="7.02" gradientTransform="scale(1.0058652,0.994169)" gradientUnits="userSpaceOnUse"><stop id="stop3750-3"/><stop id="stop3752-1" offset="1" stop-opacity=".588"/></linearGradient><filter id="filter3174-4" color-interpolation-filters="sRGB"><feGaussianBlur id="feGaussianBlur3176-5" stdDeviation="1.71"/></filter><linearGradient id="linearGradient6176" x2="0" y1="92.54" y2="7.02" gradientTransform="scale(1.0058652,0.994169)" gradientUnits="userSpaceOnUse" xlink:href="#ButtonShadow-9"/></defs><metadata id="metadata7"/><path id="path7977" fill="#fff" d="m 24.03125,14 -2,6 4,0 z m -11.3125,4.6875 2.8125,5.65625 L 18.375,21.5 z M 35.375,18.75 l -5.75,2.75 2.84375,2.84375 z M 18.500375,27 l -0.469125,5 12,0 L 29.5,27 c -0.105655,-0.994403 -1,-1 -1,-1 -2.801349,0.503348 -6.534476,0.462374 -9.218375,0.02344 -0.21875,0.02343 -0.711189,0.22984 -0.78125,0.97656 z m -4.531625,1 -6,2 6,2 z m 20,0 0,4 6,-1.90625 z" color="#000"/></svg>