<svg xmlns="http://www.w3.org/2000/svg" xmlns:xlink="http://www.w3.org/1999/xlink" width="48" height="48" version="1.1"><defs id="defs4"><linearGradient id="ButtonShadow-9" x2="0" y1="92.54" y2="7.02" gradientTransform="scale(1.0058652,0.994169)" gradientUnits="userSpaceOnUse"><stop id="stop3750-3"/><stop id="stop3752-1" offset="1" stop-opacity=".588"/></linearGradient><filter id="filter3174-4" color-interpolation-filters="sRGB"><feGaussianBlur id="feGaussianBlur3176-5" stdDeviation="1.71"/></filter><linearGradient id="linearGradient6176" x2="0" y1="92.54" y2="7.02" gradientTransform="scale(1.0058652,0.994169)" gradientUnits="userSpaceOnUse" xlink:href="#ButtonShadow-9"/></defs><metadata id="metadata7"/><path id="rect2388-2-2-5" fill="#fff" d="m 20,10 0,2 8,0 0,-2 z m -4.3125,4 C 15.125,14.0938 14,14.5 14,16 l 0,20 c 0,2 2,2 2,2 l 16,0 c 2,0 2,-2 2,-2 l 0,-20 c 0,0 0,-2 -2,-2 l -16,0 c 0,0 -0.125,-0.0312 -0.3125,0 z M 16,16 l 16,0 0,20 -16,0 z"/><path id="path3931" fill="#e13f2b" d="m 18.00002,30 -2e-5,4 12,0 2e-5,-4 z"/></svg>