<svg xmlns="http://www.w3.org/2000/svg" xmlns:osb="http://www.openswatchbook.org/uri/2009/osb" xmlns:svg="http://www.w3.org/2000/svg" id="svg6530" width="22" height="22" version="1.1" viewBox="0 0 22 22"><defs id="defs6532"><linearGradient id="linearGradient5606" osb:paint="solid"><stop id="stop5608" offset="0" style="stop-color:#000;stop-opacity:1"/></linearGradient></defs><metadata id="metadata6535"/><g id="layer1" transform="translate(-617,-593.36216)" style="display:inline"><path id="path12263" d="m 621.9998,596.36184 c 0,0 -2,0 -2,2.0625 l 0,11.9375 c 0,2 2,2 2,2 l 12,0 c 2,0 2,-2 2,-2 l 0,-12 c 0,0 0,-2 -2,-2 l -12,0 z m 8.77344,4 0.94726,0 0,1.19726 -0.94726,0 0,-1.19726 z m -8.42188,0.32422 1.04492,0 0,3.41406 3.24414,-3.41406 1.21876,0 -2.98829,3.13671 3.07422,4.53907 -1.2539,0 -2.50391,-3.84571 -0.79102,0.84375 0,3.00196 -1.04492,0 0,-7.67578 z m 6.94727,1.91796 2.42187,0 0,5.02344 1.875,0 0,0.73438 -4.69922,0 0,-0.73438 1.87696,0 0,-4.28906 -1.47461,0 0,-0.73438 z" style="color:#bebebe;fill:#444;fill-opacity:1;stroke:none"/><rect id="rect12269" width="22" height="22" x="617" y="593.362" style="color:#bebebe;display:inline;overflow:visible;visibility:visible;fill:none;stroke:none;stroke-width:1;marker:none"/></g></svg>