<svg xmlns="http://www.w3.org/2000/svg" xmlns:osb="http://www.openswatchbook.org/uri/2009/osb" xmlns:svg="http://www.w3.org/2000/svg" id="svg6530" width="22" height="22" version="1.1" viewBox="0 0 22 22"><defs id="defs6532"><linearGradient id="linearGradient5606" osb:paint="solid"><stop id="stop5608" offset="0" style="stop-color:#000;stop-opacity:1"/></linearGradient></defs><metadata id="metadata6535"/><g id="layer1" transform="translate(-449,-641.36216)" style="display:inline"><path id="path12393" d="m 453.9998,644.36184 c 0,0 -2,0 -2,2.0625 l 0,11.9375 c 0,2 2,2 2,2 l 12,0 c 2,0 2,-2 2,-2 l 0,-12 c 0,0 0,-2 -2,-2 l -12,0 z m 0.0898,4.32422 1.38867,0 1.32617,3.9082 1.33594,-3.9082 1.39453,0 0,7.67578 -0.96094,0 0,-6.78125 -1.36914,4.04687 -0.78515,0 -1.37305,-4.04687 0,6.78125 -0.95703,0 0,-7.67578 z m 9.54687,1.77929 c 0.58612,0 1.02459,0.19276 1.3125,0.58008 0.29135,0.38389 0.43555,0.96655 0.43555,1.74805 l 0,3.56836 -0.95117,0 0,-3.56836 c 0,-0.51757 -0.0898,-0.89727 -0.27149,-1.14063 -0.18166,-0.24336 -0.46619,-0.36523 -0.85351,-0.36523 -0.44216,0 -0.78351,0.15731 -1.02344,0.47265 -0.2365,0.31192 -0.35547,0.76155 -0.35547,1.34766 l 0,3.25391 -0.94531,0 0,-5.75782 0.94531,0 0,0.86329 c 0.16796,-0.32905 0.39763,-0.57814 0.68555,-0.7461 0.28792,-0.17138 0.62731,-0.25586 1.02148,-0.25586 z" style="color:#bebebe;fill:#444;fill-opacity:1;stroke:none"/><rect id="rect12399" width="22" height="22" x="449" y="641.362" style="color:#bebebe;display:inline;overflow:visible;visibility:visible;fill:none;stroke:none;stroke-width:1;marker:none"/></g></svg>