<svg xmlns="http://www.w3.org/2000/svg" xmlns:osb="http://www.openswatchbook.org/uri/2009/osb" xmlns:svg="http://www.w3.org/2000/svg" id="svg6530" width="22" height="22" version="1.1" viewBox="0 0 22 22"><defs id="defs6532"><linearGradient id="linearGradient5606" osb:paint="solid"><stop id="stop5608" offset="0" style="stop-color:#000;stop-opacity:1"/></linearGradient></defs><metadata id="metadata6535"/><g id="layer1" transform="translate(-497,-521.36216)" style="display:inline"><path id="path11913" d="m 501.9998,524.36184 c 0,0 -2,0 -2,2.0625 l 0,11.9375 c 0,2 2,2 2,2 l 12,0 c 2,0 2,-2 2,-2 l 0,-12 c 0,0 0,-2 -2,-2 l -12,0 z m 6.98437,4 0.94532,0 0,3.10547 c 0.16795,-0.32905 0.39763,-0.57814 0.68554,-0.7461 0.28792,-0.17138 0.62732,-0.25586 1.02149,-0.25586 0.58612,0 1.02458,0.19276 1.3125,0.58008 0.29134,0.38389 0.43555,0.96655 0.43555,1.74805 l 0,3.56836 -0.95118,0 0,-3.56836 c 0,-0.51757 -0.0898,-0.89727 -0.27148,-1.14063 -0.18166,-0.24336 -0.4662,-0.36523 -0.85352,-0.36523 -0.44216,0 -0.7835,0.15731 -1.02343,0.47265 -0.23651,0.31192 -0.35547,0.76155 -0.35547,1.34766 l 0,3.25391 -0.94532,0 0,-8 z m -3.51562,0.18554 c 0.31191,0 0.60518,0.0354 0.88281,0.10743 0.27764,0.0685 0.54858,0.17391 0.8125,0.31445 l 0,1.06445 c -0.25364,-0.20908 -0.52506,-0.36883 -0.8164,-0.47851 -0.29135,-0.10969 -0.58414,-0.16407 -0.87891,-0.16407 -0.67524,0 -1.18167,0.26026 -1.51758,0.78125 -0.3359,0.521 -0.5039,1.3071 -0.5039,2.35938 0,1.04884 0.168,1.83447 0.5039,2.35547 0.33591,0.52099 0.84234,0.78125 1.51758,0.78125 0.30163,0 0.59489,-0.0544 0.88281,-0.16407 0.29135,-0.10968 0.56229,-0.26942 0.8125,-0.47851 l 0,1.06445 c -0.26392,0.14054 -0.53486,0.24396 -0.8125,0.3125 -0.27763,0.072 -0.5709,0.10742 -0.88281,0.10742 -0.98372,0 -1.74798,-0.34716 -2.29297,-1.04296 -0.54156,-0.6958 -0.8125,-1.6742 -0.8125,-2.93555 0,-1.2545 0.27142,-2.23046 0.81641,-2.92969 0.54841,-0.70266 1.3122,-1.05469 2.28906,-1.05469 z" style="color:#bebebe;fill:#444;fill-opacity:1;stroke:none"/><rect id="rect11919" width="22" height="22" x="497" y="521.362" style="color:#bebebe;display:inline;overflow:visible;visibility:visible;fill:none;stroke:none;stroke-width:1;marker:none"/></g></svg>