<svg xmlns="http://www.w3.org/2000/svg" xmlns:osb="http://www.openswatchbook.org/uri/2009/osb" xmlns:svg="http://www.w3.org/2000/svg" id="svg6530" width="22" height="22" version="1.1" viewBox="0 0 22 22"><defs id="defs6532"><linearGradient id="linearGradient5606" osb:paint="solid"><stop id="stop5608" offset="0" style="stop-color:#000;stop-opacity:1"/></linearGradient></defs><metadata id="metadata6535"/><g id="layer1" transform="translate(-449,-617.36216)" style="display:inline"><path id="path12293" d="m 453.9998,620.36184 c 0,0 -2,0 -2,2.0625 l 0,11.9375 c 0,2 2,2 2,2 l 12,0 c 2,0 2,-2 2,-2 l 0,-12 c 0,0 0,-2 -2,-2 l -12,0 z m 0.35156,4.32422 1.04492,0 0,3.41406 3.24414,-3.41406 1.21875,0 -2.98828,3.13671 3.07422,4.53907 -1.2539,0 -2.50391,-3.84571 -0.79102,0.84375 0,3.00196 -1.04492,0 0,-7.67578 z m 9.28516,1.77929 c 0.58612,0 1.02458,0.19276 1.3125,0.58008 0.29134,0.38389 0.43555,0.96655 0.43555,1.74805 l 0,3.56836 -0.95118,0 0,-3.56836 c 0,-0.51757 -0.0898,-0.89727 -0.27148,-1.14063 -0.18166,-0.24336 -0.4662,-0.36523 -0.85352,-0.36523 -0.44216,0 -0.7835,0.15731 -1.02343,0.47265 -0.23651,0.31192 -0.35547,0.76155 -0.35547,1.34766 l 0,3.25391 -0.94532,0 0,-5.75782 0.94532,0 0,0.86329 c 0.16795,-0.32905 0.39763,-0.57814 0.68554,-0.7461 0.28792,-0.17138 0.62732,-0.25586 1.02149,-0.25586 z" style="color:#bebebe;fill:#444;fill-opacity:1;stroke:none"/><rect id="rect12299" width="22" height="22" x="449" y="617.362" style="color:#bebebe;display:inline;overflow:visible;visibility:visible;fill:none;stroke:none;stroke-width:1;marker:none"/></g></svg>