<svg xmlns="http://www.w3.org/2000/svg" xmlns:osb="http://www.openswatchbook.org/uri/2009/osb" xmlns:svg="http://www.w3.org/2000/svg" id="svg6530" width="22" height="22" version="1.1" viewBox="0 0 22 22"><defs id="defs6532"><linearGradient id="linearGradient5606" osb:paint="solid"><stop id="stop5608" offset="0" style="stop-color:#000;stop-opacity:1"/></linearGradient></defs><metadata id="metadata6535"/><g id="layer1" transform="translate(-569,-545.36216)" style="display:inline"><path id="path12043" d="m 573.9998,548.36184 c 0,0 -2,0 -2,2.0625 l 0,11.9375 c 0,2 2,2 2,2 l 12,0 c 2,0 2,-2 2,-2 l 0,-12 c 0,0 0,-2 -2,-2 l -12,0 z m 0.8457,4.32422 4.51953,0 0,0.87304 -3.47656,0 0,2.26367 3.15235,0 0,0.87305 -3.15235,0 0,3.66602 -1.04297,0 0,-7.67578 z m 8.17969,1.77929 c 0.47644,0 0.88285,0.0704 1.21875,0.21094 0.33933,0.14053 0.61318,0.3498 0.82227,0.63086 0.13024,0.17138 0.2225,0.38503 0.27734,0.63867 0.0548,0.25021 0.082,0.627 0.082,1.13086 l 0,3.28516 -0.95117,0 0,-0.85352 c -0.20223,0.34276 -0.45714,0.59719 -0.76563,0.76172 -0.30505,0.16109 -0.6765,0.24023 -1.11523,0.24023 -0.58612,0 -1.05468,-0.16314 -1.4043,-0.49218 -0.34961,-0.33248 -0.52343,-0.77676 -0.52343,-1.33203 0,-0.64096 0.21413,-1.12847 0.64257,-1.46094 0.43188,-0.33248 1.06358,-0.49805 1.89649,-0.49805 l 1.26953,0 0,-0.14844 c -0.003,-0.45929 -0.11993,-0.79238 -0.34961,-0.99804 -0.22965,-0.20908 -0.59575,-0.31446 -1.09961,-0.31446 -0.32219,0 -0.64751,0.0481 -0.97656,0.14063 -0.32905,0.0925 -0.64903,0.22606 -0.96094,0.4043 l 0,-0.94532 c 0.34961,-0.13367 0.68319,-0.2337 1.00195,-0.29883 0.3222,-0.0686 0.63392,-0.10156 0.93555,-0.10156 z m 0.25195,3.00196 c -0.55184,0 -0.96893,0.0976 -1.25,0.29296 -0.27763,0.19195 -0.41601,0.4794 -0.41601,0.86329 0,0.34618 0.10537,0.61664 0.31445,0.80859 0.20908,0.19195 0.49896,0.28711 0.86914,0.28711 0.521,0 0.93032,-0.17916 1.22852,-0.53906 0.2982,-0.36332 0.44774,-0.86442 0.45117,-1.50196 l 0,-0.21093 -0.88281,0 -0.31446,0 z" style="color:#bebebe;fill:#444;fill-opacity:1;stroke:none"/><rect id="rect12049" width="22" height="22" x="569" y="545.362" style="color:#bebebe;display:inline;overflow:visible;visibility:visible;fill:none;stroke:none;stroke-width:1;marker:none"/></g></svg>