<svg xmlns="http://www.w3.org/2000/svg" xmlns:osb="http://www.openswatchbook.org/uri/2009/osb" xmlns:svg="http://www.w3.org/2000/svg" id="svg6530" width="22" height="22" version="1.1" viewBox="0 0 22 22"><defs id="defs6532"><linearGradient id="linearGradient5606" osb:paint="solid"><stop id="stop5608" offset="0" style="stop-color:#000;stop-opacity:1"/></linearGradient></defs><metadata id="metadata6535"/><g id="layer1" transform="translate(-617,-641.36216)" style="display:inline"><path id="path12463" d="m 621.9998,644.36184 c 0,0 -2,0 -2,2.0625 l 0,11.9375 c 0,2 2,2 2,2 l 12,0 c 2,0 2,-2 2,-2 l 0,-12 c 0,0 0,-2 -2,-2 l -12,0 z m 0.0898,4.32422 1.38868,0 1.32617,3.9082 1.33593,-3.9082 1.39454,0 0,7.67578 -0.96094,0 0,-6.78125 -1.36914,4.04687 -0.78516,0 -1.37304,-4.04687 0,6.78125 -0.95704,0 0,-7.67578 z m 8.10352,0.2832 0.94531,0 0,1.63476 2.14844,0 0,0.73438 -2.14844,0 0,3.12695 c 0,0.42502 0.0811,0.72072 0.24219,0.88867 0.1611,0.16796 0.44272,0.25196 0.84375,0.25196 l 1.0625,0 0,0.75586 -1.15625,0 c -0.70951,0 -1.21061,-0.1413 -1.50195,-0.42578 -0.29135,-0.2845 -0.43555,-0.77491 -0.43555,-1.47071 l 0,-3.12695 -1.53711,0 0,-0.73438 1.53711,0 0,-1.63476 z" style="color:#bebebe;fill:#444;fill-opacity:1;stroke:none"/><rect id="rect12469" width="22" height="22" x="617" y="641.362" style="color:#bebebe;display:inline;overflow:visible;visibility:visible;fill:none;stroke:none;stroke-width:1;marker:none"/></g></svg>