<svg xmlns="http://www.w3.org/2000/svg" xmlns:osb="http://www.openswatchbook.org/uri/2009/osb" xmlns:svg="http://www.w3.org/2000/svg" id="svg6530" width="22" height="22" version="1.1" viewBox="0 0 22 22"><defs id="defs6532"><linearGradient id="linearGradient5606" osb:paint="solid"><stop id="stop5608" offset="0" style="stop-color:#000;stop-opacity:1"/></linearGradient></defs><metadata id="metadata6535"/><g id="layer1" transform="translate(-665,-593.36216)" style="display:inline"><path id="path12283" d="m 669.9998,596.36184 c 0,0 -2,0 -2,2.0625 l 0,11.9375 c 0,2 2,2 2,2 l 12,0 c 2,0 2,-2 2,-2 l 0,-12 c 0,0 0,-2 -2,-2 l -12,0 z m 0.35156,4.32422 1.04492,0 0,3.41406 3.24414,-3.41406 1.21876,0 -2.98829,3.13671 3.07422,4.53907 -1.2539,0 -2.50391,-3.84571 -0.79102,0.84375 0,3.00196 -1.04492,0 0,-7.67578 z m 8.05274,1.77929 c 0.26049,0 0.4751,0.0597 0.64648,0.17969 0.17481,0.11997 0.31028,0.30156 0.40625,0.54492 0.11654,-0.24678 0.26513,-0.42838 0.44336,-0.54492 0.18166,-0.11997 0.3987,-0.17969 0.65234,-0.17969 0.46273,0 0.78805,0.17916 0.97657,0.53906 0.19194,0.35648 0.28906,1.03092 0.28906,2.02149 l 0,3.33594 -0.86524,0 0,-3.29493 c 0,-0.81233 -0.0461,-1.31635 -0.13867,-1.51171 -0.0891,-0.1988 -0.25225,-0.29883 -0.49218,-0.29883 -0.27421,0 -0.46358,0.10585 -0.56641,0.31836 -0.0994,0.20908 -0.14844,0.70727 -0.14844,1.49218 l 0,3.29493 -0.86523,0 0,-3.29493 c 0,-0.82262 -0.049,-1.32953 -0.14844,-1.52148 -0.096,-0.19194 -0.2698,-0.28906 -0.52344,-0.28906 -0.25021,0 -0.42599,0.10585 -0.52539,0.31836 -0.096,0.20908 -0.14453,0.70727 -0.14453,1.49218 l 0,3.29493 -0.85742,0 0,-5.75782 0.85742,0 0,0.49415 c 0.11311,-0.20566 0.25392,-0.3625 0.42188,-0.46876 0.17138,-0.10968 0.36609,-0.16406 0.58203,-0.16406 z" style="color:#bebebe;fill:#444;fill-opacity:1;stroke:none"/><rect id="rect12289" width="22" height="22" x="665" y="593.362" style="color:#bebebe;display:inline;overflow:visible;visibility:visible;fill:none;stroke:none;stroke-width:1;marker:none"/></g></svg>