<svg xmlns="http://www.w3.org/2000/svg" xmlns:osb="http://www.openswatchbook.org/uri/2009/osb" xmlns:svg="http://www.w3.org/2000/svg" id="svg6530" width="22" height="22" version="1.1" viewBox="0 0 22 22"><defs id="defs6532"><linearGradient id="linearGradient5606" osb:paint="solid"><stop id="stop5608" offset="0" style="stop-color:#000;stop-opacity:1"/></linearGradient></defs><metadata id="metadata6535"/><g id="layer1" transform="translate(-593,-713.36216)" style="display:inline"><path id="path12867" d="m 597.9998,716.36184 c 0,0 -2,0 -2,2.0625 l 0,11.9375 c 0,2 2,2 2,2 l 12,0 c 2,0 2,-2 2,-2 l 0,-12 c 0,0 0,-2 -2,-2 l -12,0 z m -0.11133,4.32422 5.85742,0 0,0.87304 -2.40234,0 0,6.80274 -1.04297,0 0,-6.80274 -2.41211,0 0,-0.87304 z m 10.79688,1.77929 c 0.23307,0 0.45207,0.0296 0.65429,0.0879 0.20223,0.0583 0.39499,0.14809 0.58008,0.27149 l 0,0.96679 c -0.20223,-0.15766 -0.4081,-0.27177 -0.61719,-0.34375 -0.20908,-0.072 -0.43728,-0.10937 -0.6875,-0.10937 -0.58954,0 -1.0416,0.18646 -1.35351,0.55664 -0.31191,0.37018 -0.4668,0.90429 -0.4668,1.60352 l 0,2.86328 -0.95117,0 0,-5.75782 0.95117,0 0,1.125 c 0.15767,-0.40788 0.39899,-0.7196 0.72461,-0.93554 0.32905,-0.21937 0.717,-0.32813 1.16602,-0.32813 z" style="color:#bebebe;fill:#444;fill-opacity:1;stroke:none"/><rect id="rect12873" width="22" height="22" x="593" y="713.362" style="color:#bebebe;display:inline;overflow:visible;visibility:visible;fill:none;stroke:none;stroke-width:1;marker:none"/></g></svg>