<svg xmlns="http://www.w3.org/2000/svg" xmlns:osb="http://www.openswatchbook.org/uri/2009/osb" xmlns:svg="http://www.w3.org/2000/svg" id="svg6530" width="22" height="22" version="1.1" viewBox="0 0 22 22"><defs id="defs6532"><linearGradient id="linearGradient5606" osb:paint="solid"><stop id="stop5608" offset="0" style="stop-color:#000;stop-opacity:1"/></linearGradient></defs><metadata id="metadata6535"/><g id="layer1" transform="translate(-473,-641.36216)" style="display:inline"><path id="path12403" d="m 477.9998,644.36184 c 0,0 -2,0 -2,2.0625 l 0,11.9375 c 0,2 2,2 2,2 l 12,0 c 2,0 2,-2 2,-2 l 0,-12 c 0,0 0,-2 -2,-2 l -12,0 z m 10.39258,4 0.94726,0 0,8 -0.94726,0 0,-0.72461 c -0.15767,0.28448 -0.36694,0.50153 -0.63086,0.65234 -0.2605,0.14739 -0.56349,0.2207 -0.90625,0.2207 -0.6958,0 -1.24351,-0.26851 -1.64453,-0.80664 -0.3976,-0.54156 -0.59571,-1.28688 -0.59571,-2.23632 0,-0.93574 0.20054,-1.6699 0.60157,-2.20118 0.40103,-0.5347 0.94629,-0.80078 1.63867,-0.80078 0.34618,0 0.65209,0.0757 0.91601,0.22656 0.26393,0.1474 0.47028,0.362 0.6211,0.64649 l 0,-2.97656 z m -10.30274,0.32422 1.38868,0 1.32617,3.9082 1.33593,-3.9082 1.39454,0 0,7.67578 -0.96094,0 0,-6.78125 -1.36914,4.04687 -0.78516,0 -1.37305,-4.04687 0,6.78125 -0.95703,0 0,-7.67578 z m 8.9043,2.58007 c -0.45587,0 -0.80013,0.18694 -1.0332,0.56055 -0.23308,0.37361 -0.34961,0.9286 -0.34961,1.66211 0,0.7335 0.11653,1.28654 0.34961,1.66016 0.23307,0.3736 0.57733,0.56054 1.0332,0.56054 0.45587,0 0.80256,-0.18936 1.03906,-0.5664 0.23993,-0.37704 0.35938,-0.92765 0.35938,-1.6543 0,-0.73008 -0.11945,-1.28264 -0.35938,-1.65625 -0.2365,-0.37703 -0.58319,-0.56641 -1.03906,-0.56641 z" style="color:#bebebe;fill:#444;fill-opacity:1;stroke:none"/><rect id="rect12409" width="22" height="22" x="473" y="641.362" style="color:#bebebe;display:inline;overflow:visible;visibility:visible;fill:none;stroke:none;stroke-width:1;marker:none"/></g></svg>