<svg xmlns="http://www.w3.org/2000/svg" xmlns:osb="http://www.openswatchbook.org/uri/2009/osb" xmlns:svg="http://www.w3.org/2000/svg" id="svg6530" width="22" height="22" version="1.1" viewBox="0 0 22 22"><defs id="defs6532"><linearGradient id="linearGradient5606" osb:paint="solid"><stop id="stop5608" offset="0" style="stop-color:#000;stop-opacity:1"/></linearGradient></defs><metadata id="metadata6535"/><g id="layer1" transform="translate(-497,-737.36216)" style="display:inline"><path id="path12935" d="m 501.9998,740.36184 c 0,0 -2,0 -2,2.0625 l 0,11.9375 c 0,2 2,2 2,2 l 12,0 c 2,0 2,-2 2,-2 l 0,-12 c 0,0 0,-2 -2,-2 l -12,0 z m 0.0898,4.32422 1.11524,0 1.6875,2.89453 1.7168,-2.89453 1.11523,0 -2.29883,3.60937 2.46289,4.06641 -1.11523,0 -1.88086,-3.30469 -2.03125,3.30469 -1.1211,0 2.57032,-4.06641 -2.22071,-3.60937 z m 9.16797,1.77929 c 0.30849,0 0.60418,0.0296 0.88867,0.0879 0.28449,0.0549 0.56369,0.13888 0.8379,0.25196 l 0,0.92382 c -0.27079,-0.15766 -0.5422,-0.27468 -0.81641,-0.35351 -0.27421,-0.0788 -0.55535,-0.11914 -0.83985,-0.11914 -0.42843,0 -0.74842,0.0704 -0.96093,0.21094 -0.20909,0.1371 -0.3125,0.34832 -0.3125,0.63281 0,0.25707 0.0787,0.44935 0.23633,0.57617 0.15766,0.12682 0.55048,0.24917 1.17773,0.36914 l 0.37891,0.0723 c 0.46958,0.0891 0.82452,0.2678 1.06445,0.53515 0.24336,0.26736 0.36523,0.61452 0.36523,1.04297 0,0.56898 -0.20102,1.0157 -0.60546,1.33789 -0.40447,0.31877 -0.96771,0.47656 -1.6875,0.47656 -0.2845,0 -0.58262,-0.0301 -0.89454,-0.0918 -0.31191,-0.0583 -0.65034,-0.14761 -1.01367,-0.26758 l 0,-0.97656 c 0.35304,0.18166 0.69148,0.31957 1.01367,0.41211 0.3222,0.0891 0.6281,0.13281 0.91602,0.13281 0.41817,0 0.74105,-0.084 0.9707,-0.25195 0.22965,-0.17138 0.34571,-0.40979 0.34571,-0.71485 0,-0.43873 -0.42001,-0.7422 -1.25977,-0.91015 l -0.041,-0.01 -0.35546,-0.0723 c -0.54499,-0.10625 -0.94315,-0.28494 -1.19336,-0.53515 -0.25022,-0.25365 -0.375,-0.59791 -0.375,-1.03321 0,-0.55183 0.18694,-0.97719 0.56054,-1.27539 0.37361,-0.30162 0.90724,-0.45117 1.59961,-0.45117 z" style="color:#bebebe;fill:#444;fill-opacity:1;stroke:none"/><rect id="rect12941" width="22" height="22" x="497" y="737.362" style="color:#bebebe;display:inline;overflow:visible;visibility:visible;fill:none;stroke:none;stroke-width:1;marker:none"/></g></svg>