<svg xmlns="http://www.w3.org/2000/svg" xmlns:osb="http://www.openswatchbook.org/uri/2009/osb" xmlns:svg="http://www.w3.org/2000/svg" id="svg6530" width="22" height="22" version="1.1" viewBox="0 0 22 22"><defs id="defs6532"><linearGradient id="linearGradient5606" osb:paint="solid"><stop id="stop5608" offset="0" style="stop-color:#000;stop-opacity:1"/></linearGradient></defs><metadata id="metadata6535"/><g id="layer1" transform="translate(-449,-737.36216)" style="display:inline"><path id="path12915" d="m 453.9998,740.36184 c 0,0 -2,0 -2,2.0625 l 0,11.9375 c 0,2 2,2 2,2 l 12,0 c 2,0 2,-2 2,-2 l 0,-12 c 0,0 0,-2 -2,-2 l -12,0 z m 8.77344,4 0.94726,0 0,1.19726 -0.94726,0 0,-1.19726 z m -8.83203,0.32422 1.07421,0 1.79883,6.80273 1.80469,-6.80273 1.07422,0 -2.24609,7.67578 -1.25977,0 -2.24609,-7.67578 z m 7.35742,1.91796 2.42187,0 0,5.02344 1.875,0 0,0.73438 -4.69922,0 0,-0.73438 1.87696,0 0,-4.28906 -1.47461,0 0,-0.73438 z" style="color:#bebebe;fill:#444;fill-opacity:1;stroke:none"/><rect id="rect12921" width="22" height="22" x="449" y="737.362" style="color:#bebebe;display:inline;overflow:visible;visibility:visible;fill:none;stroke:none;stroke-width:1;marker:none"/></g></svg>