<svg xmlns="http://www.w3.org/2000/svg" xmlns:osb="http://www.openswatchbook.org/uri/2009/osb" xmlns:svg="http://www.w3.org/2000/svg" id="svg6530" width="22" height="22" version="1.1" viewBox="0 0 22 22"><defs id="defs6532"><linearGradient id="linearGradient5606" osb:paint="solid"><stop id="stop5608" offset="0" style="stop-color:#000;stop-opacity:1"/></linearGradient></defs><metadata id="metadata6535"/><g id="layer1" transform="translate(-173.00003,-665.3895)" style="display:inline"><path id="path7556" d="m 181.00003,673.3895 0,8 6,0 0,-8 z" class="error" style="opacity:.35;fill:#e13f2b;fill-opacity:1;stroke:none"/><rect id="rect7558" width="22" height="22" x="665.39" y="-195" transform="matrix(0,1,-1,0,0,0)" style="color:#ddd;display:inline;overflow:visible;visibility:visible;fill:none;stroke:none;stroke-width:1;marker:none"/><path id="path7560" d="m 182.00003,669.3895 0,1 4,0 0,-1 z m -2.15625,2 c -0.28125,0.0469 -0.84375,0.25 -0.84375,1 l 0,10 c 0,1 1,1 1,1 l 7,0 0,-1 -7,0 0,-10 8,0 0,1 1,0 0,-1 c 0,0 0,-1 -1,-1 l -8,0 c 0,0 -0.0625,-0.0156 -0.15625,0 z" style="fill:#fff;fill-opacity:1;stroke:none"/><path id="path7562-1" d="m 188.00003,674.3895 0,5 0.25,2 1.5,0 0.25,-2 0,-5 z m 0,8 0,2 2,0 0,-2 z" class="error" style="fill:#e13f2b;fill-opacity:1;stroke:none"/></g></svg>