<svg xmlns="http://www.w3.org/2000/svg" xmlns:osb="http://www.openswatchbook.org/uri/2009/osb" xmlns:svg="http://www.w3.org/2000/svg" id="svg6530" width="22" height="22" version="1.1" viewBox="0 0 22 22"><defs id="defs6532"><linearGradient id="linearGradient5606" osb:paint="solid"><stop id="stop5608" offset="0" style="stop-color:#000;stop-opacity:1"/></linearGradient></defs><metadata id="metadata6535"/><g id="layer1" transform="translate(-29,-977.36053)" style="display:inline"><path id="path3967" d="m 35.999771,980.36216 -5,3 4,2.98438 -4.009766,3.00781 5.009766,3.00781 4,-3 -5,-3 5,-3 5,3.01562 -5,2.98438 4,3 5.009766,-3.02344 -4.009766,-2.97656 4,-3 -5,-3 -4,2.98438 -4,-2.98438 z m 4,10 -4,3 -1,-0.59961 0,0.59961 5,3 5,-3 0,-0.60352 -1,0.60352 -4,-3 z" style="color:#000;fill:#fff;fill-opacity:1;stroke:none"/><rect id="rect5087" width="22" height="22" x="29" y="977.361" style="color:#bebebe;display:inline;overflow:visible;visibility:visible;fill:none;stroke:none;stroke-width:1;marker:none;enable-background:new"/></g></svg>