<svg xmlns="http://www.w3.org/2000/svg" xmlns:osb="http://www.openswatchbook.org/uri/2009/osb" xmlns:svg="http://www.w3.org/2000/svg" id="svg6530" width="22" height="22" version="1.1" viewBox="0 0 22 22"><defs id="defs6532"><linearGradient id="linearGradient5606" osb:paint="solid"><stop id="stop5608" offset="0" style="stop-color:#000;stop-opacity:1"/></linearGradient></defs><metadata id="metadata6535"/><g id="layer1" transform="translate(-77.000204,-713.39459)" style="display:inline"><rect id="rect10868" width="22" height="22" x="713.395" y="-99" transform="matrix(0,1,-1,0,0,0)" style="color:#ddd;display:inline;overflow:visible;visibility:visible;fill:none;stroke:none;stroke-width:1;marker:none"/><path id="path10872" d="m 82.500212,716.39459 c -0.277,0 -0.5,0.22301 -0.5,0.50001 l 0,0.5 -1.999985,-0.002 0,-2.6e-4 -1.5e-5,14.50174 c 0,0.277 0.223,0.5 0.5,0.5 l 6,0 c 0.277,0 0.5,-0.223 0.5,-0.5 l 1.5e-5,-14.50122 -0.500015,0.002 -1.5,0 0,-0.5 c 0,-0.277 -0.223,-0.50001 -0.5,-0.50001 z" style="color:#bebebe;opacity:.35;fill:#fff;fill-opacity:1;stroke:none;stroke-width:0;stroke-linecap:round;stroke-linejoin:round"/><path id="path10874" d="m 80.000227,724.39286 -1.5e-5,7.50174 c -1e-6,0.277 0.223,0.5 0.5,0.5 l 6,0 c 0.277,0 0.5,-0.223 0.5,-0.5 l 1.5e-5,-7.50174 z" style="color:#bebebe;fill:#fff;fill-opacity:1;stroke:none;stroke-width:0;stroke-linecap:round;stroke-linejoin:round"/><path id="path10923" d="m 90.000227,717.39286 c -0.554,0 -1,0.446 -1,1 l 0,13 c 0,0.554 0.446,1 1,1 l 5,0 c 0.554,0 1,-0.446 1,-1 l 0,-13 c 0,-0.554 -0.446,-1 -1,-1 l -5,0 z m 0,3 1,0 0,1 -1,0 0,-1 z m 2,0 1,0 0,1 -1,0 0,-1 z m 2,1 1,0 0,7 -1,0 0,-7 z m -4,1 1,0 0,1 -1,0 0,-1 z m 2,0 1,0 0,1 -1,0 0,-1 z m -2,2 1,0 0,1 -1,0 0,-1 z m 2,0 1,0 0,1 -1,0 0,-1 z m -2,2 1,0 0,1 -1,0 0,-1 z m 2,0 1,0 0,1 -1,0 0,-1 z m -2,2 1,0 0,1 -1,0 0,-1 z m 2,0 1,0 0,1 -1,0 0,-1 z" style="fill:#fff;fill-opacity:1;fill-rule:evenodd;stroke:none"/></g></svg>