<svg xmlns="http://www.w3.org/2000/svg" xmlns:osb="http://www.openswatchbook.org/uri/2009/osb" xmlns:svg="http://www.w3.org/2000/svg" id="svg6530" width="22" height="22" version="1.1" viewBox="0 0 22 22"><defs id="defs6532"><linearGradient id="linearGradient5606" osb:paint="solid"><stop id="stop5608" offset="0" style="stop-color:#000;stop-opacity:1"/></linearGradient></defs><metadata id="metadata6535"/><g id="layer1" transform="translate(-29.000021,-521.38953)" style="display:inline"><rect id="rect9098" width="22" height="22" x="-543.39" y="29" clip-path="none" transform="matrix(0,-1,1,0,0,0)" style="color:#bebebe;display:inline;overflow:visible;visibility:visible;fill:none;stroke:none;stroke-width:1;marker:none"/><path id="path9100" d="m 40.031477,526.38895 c -3.03435,0 -5.76588,1.07815 -8.03125,2.75 l 8.03125,8.75 0.96875,-1.06836 0,-1.42773 1.013672,0 c 0.01965,-1.63493 1.342515,-3 2.986328,-3 0.006,0 0.01156,0.002 0.01758,0.002 l 2.98242,-3.28716 c -2.25661,-1.65329 -4.9577,-2.71875 -7.96875,-2.71875 z m 0,1 c 2.36964,0 4.47408,0.82136 6.375,2 l -6.375,7 -6.4375,-6.96875 c 1.91326,-1.19487 4.04388,-2.03125 6.4375,-2.03125 z" style="color:#000;display:inline;overflow:visible;visibility:visible;fill:#fff;fill-opacity:1;fill-rule:nonzero;stroke:none;stroke-width:1;marker:none;enable-background:accumulate"/><path id="path9102" d="m 40.031287,528.3895 c -1.72947,0 -3.28925,0.5728 -4.78125,1.34375 l 4.78125,5.15625 4.71875,-5.1875 c -1.4758,-0.75648 -3.01086,-1.3125 -4.71875,-1.3125 z" style="color:#000;display:inline;overflow:visible;visibility:visible;fill:#fff;fill-opacity:1;fill-rule:nonzero;stroke:none;stroke-width:1;marker:none;enable-background:accumulate"/><path id="path9149" d="m 45.000227,533.39286 c -1.108,0 -2,0.91085 -2,2.03125 l 0,0.96875 -1,0 0,1 0,2 0,1 1,0 4,0 1,0 0,-1 0,-2 0,-1 -1,0 0,-0.96875 c 0,-1.1199 -0.892,-2.03125 -2,-2.03125 z m 0,1 c 0.554,0 1,0.4424 1,1 l 0,1 -2,0 0,-1 c 0,-0.5576 0.446,-1 1,-1 z" style="color:#000;display:inline;overflow:visible;visibility:visible;opacity:1;fill:#fff;fill-opacity:1;fill-rule:nonzero;stroke:none;stroke-width:1;marker:none;enable-background:accumulate"/></g></svg>