<svg xmlns="http://www.w3.org/2000/svg" xmlns:osb="http://www.openswatchbook.org/uri/2009/osb" xmlns:svg="http://www.w3.org/2000/svg" id="svg6530" width="22" height="22" version="1.1" viewBox="0 0 22 22"><defs id="defs6532"><linearGradient id="linearGradient5606" osb:paint="solid"><stop id="stop5608" offset="0" style="stop-color:#000;stop-opacity:1"/></linearGradient></defs><metadata id="metadata6535"/><g id="layer1" transform="translate(-293.00043,-521.39122)" style="display:inline"><rect id="rect1243" width="22" height="22" x="293" y="521.391" style="color:#bebebe;display:inline;overflow:visible;visibility:visible;fill:none;stroke:none;stroke-width:1;marker:none"/><path id="path1244-8" d="m 298.00023,525.3912 c 0,0 -1.99991,0 -2,2.0625 l 0,9.9375 c -8e-5,2 2,2 2,2 l 12,0 c 2,0 2,-2 2,-2 l 0,-10 c 0,0 0,-2 -2,-2 z m 2e-4,2.00002 2,0 0,4 1,0 0,-4 2,0 0,4 0,2 0,4 -2,0 0,-4 -1,0 c -2,0 -2,-2 -2,-2 z m 8,0 2,0 c 2,0 2,2 2,2 l 0,1 -2,0 0,-1 -2,0 0,6 2,0 0,-2 -1,0 0,-1.96875 2,-0.0312 1,0.0312 0,1 0,2.9375 c 0,5e-5 0,2.03125 -2,2.03125 l -2,0 c 0,0 -2,0 -2,-2 l 0,-6 c 0,-2 2,-2 2,-2 z" style="color:#bebebe;fill:#fff;fill-opacity:1;stroke:none"/></g></svg>