<svg xmlns="http://www.w3.org/2000/svg" xmlns:osb="http://www.openswatchbook.org/uri/2009/osb" xmlns:svg="http://www.w3.org/2000/svg" id="svg6530" width="22" height="22" version="1.1" viewBox="0 0 22 22"><defs id="defs6532"><linearGradient id="linearGradient5606" osb:paint="solid"><stop id="stop5608" offset="0" style="stop-color:#000;stop-opacity:1"/></linearGradient></defs><metadata id="metadata6535"/><g id="layer1" transform="translate(-101.00002,-545.3895)" style="display:inline"><rect id="rect9036" width="22" height="22" x="-123" y="545.39" transform="scale(-1,1)" style="color:#bebebe;display:inline;overflow:visible;visibility:visible;fill:none;stroke:none;stroke-width:1;marker:none;enable-background:new"/><path id="path9038" d="m 114.00001,548.85825 0,1.03125 0,1.5 -2.5,0 -0.5,0 0,1 0.5,0 3,0 0.5,0 0,-0.5 0,-0.96875 3.40627,2.96875 -3.40627,2.96875 0,-0.96875 0,-0.5 -0.5,0 -2.5,0 0,1 2,0 0,1.5 0,1.03125 0.8125,-0.65625 5.18752,-4.375 0,0 0,0 -5.18752,-4.375 z" style="color:#000;opacity:.35;fill:#fff;fill-opacity:1;stroke:none"/><path id="path9040" d="m 110.00001,552.85825 -0.8125,0.65625 -5.18748,4.375 0,0 0,0 5.18748,4.375 0.8125,0.65625 0,-1.03125 0,-1.5 2.5,0 0.5,0 0,-1 -0.5,0 -3,0 -0.5,0 0,0.5 0,0.96875 -3.40623,-2.96875 3.40623,-2.96875 0,0.96875 0,0.5 0.5,0 2.50002,0 0,-1 -2.00002,0 0,-1.5 z" style="color:#000;opacity:.35;fill:#fff;fill-opacity:1;stroke:none"/></g></svg>