<svg xmlns="http://www.w3.org/2000/svg" xmlns:osb="http://www.openswatchbook.org/uri/2009/osb" xmlns:svg="http://www.w3.org/2000/svg" id="svg6530" width="22" height="22" version="1.1" viewBox="0 0 22 22"><defs id="defs6532"><linearGradient id="linearGradient5606" osb:paint="solid"><stop id="stop5608" offset="0" style="stop-color:#000;stop-opacity:1"/></linearGradient></defs><metadata id="metadata6535"/><g id="layer1" transform="translate(-77.000457,-857.39124)" style="display:inline"><rect id="rect11039" width="22" height="22" x="77" y="857.391" rx=".144" ry=".151" style="color:#bebebe;display:inline;overflow:visible;visibility:visible;fill:none;stroke:none;stroke-width:1;marker:none;enable-background:new"/><path id="rect11041" d="m 88.00023,860.39091 c -0.55395,0 -1,0.44605 -1,1 l 0,5.0039 c 0,0.55395 0.44605,1 1,1 0.55395,0 1,-0.44605 1,-1 l 0,-5.0039 c 0,-0.55395 -0.44605,-1 -1,-1 z m 2.93945,2.99218 a 1.0001,1.0001 0 0 0 -0.54297,1.8086 c 1.37787,1.03069 1.94105,2.81632 1.4043,4.45117 -0.53674,1.63485 -2.04888,2.73856 -3.76953,2.75195 -1.72065,0.0134 -3.25036,-1.06707 -3.8125,-2.69336 -0.56214,-1.62629 -0.0257,-3.42064 1.33594,-4.47265 a 1.0001,1.0001 0 1 0 -1.22266,-1.58203 c -2.03498,1.57224 -2.84207,4.27849 -2.00195,6.70898 0.84011,2.43049 3.14527,4.05908 5.71679,4.03906 2.57151,-0.02 4.85214,-1.68562 5.6543,-4.1289 0.80217,-2.44328 -0.0482,-5.13542 -2.10742,-6.67578 a 1.0001,1.0001 0 0 0 -0.6543,-0.20704 z" style="color:#bebebe;fill:#ef2929;fill-opacity:1;stroke:none"/></g></svg>