<svg xmlns="http://www.w3.org/2000/svg" xmlns:osb="http://www.openswatchbook.org/uri/2009/osb" xmlns:svg="http://www.w3.org/2000/svg" id="svg6530" width="22" height="22" version="1.1" viewBox="0 0 22 22"><defs id="defs6532"><linearGradient id="linearGradient5606" osb:paint="solid"><stop id="stop5608" offset="0" style="stop-color:#000;stop-opacity:1"/></linearGradient></defs><metadata id="metadata6535"/><g id="layer1" transform="translate(-52.99814,-929.35675)" style="display:inline"><rect id="rect5120" width="22" height="22" x="52.998" y="929.357" style="color:#bebebe;display:inline;overflow:visible;visibility:visible;fill:none;stroke:none;stroke-width:1.78100002;marker:none;enable-background:new"/><path id="path5124-1" d="m 63.748274,933.38895 c -2.76278,0.10144 -5.3087,1.80458 -6.3125,4.5625 -0.524221,1.44028 -0.543813,2.94194 -0.158203,4.31641 0.403706,-1.31803 1.484441,-2.33365 2.83789,-2.68359 0.17005,-0.29023 0.371547,-0.55965 0.589844,-0.8125 0.01049,-0.71024 0.130378,-1.42853 0.386719,-2.13282 0.51416,-1.41265 1.47444,-2.50836 2.65625,-3.25 z m -2.542969,7.98047 -0.40625,0.0605 c -0.969478,0.14412 -1.701172,0.94816 -1.701172,1.96289 0,1.11642 0.883583,2 2,2 l 6.375,0 c 0.186148,0 0.35995,-0.0382 0.525391,-0.0937 -0.992743,0.13004 -2.027229,0.049 -3.03125,-0.31641 -1.775691,-0.64629 -3.088582,-1.99401 -3.761719,-3.61328 z" style="color:#bebebe;display:inline;overflow:visible;visibility:visible;fill:#fff;fill-opacity:1;fill-rule:nonzero;stroke:none;stroke-width:1;marker:none;enable-background:accumulate"/><path id="path5884-3" d="m 64.09704,938.14286 c -1.553303,0 -2.876033,0.95094 -3.445313,2.29688 -1.445872,0.21495 -2.554687,1.44744 -2.554687,2.95312 0,1.65686 1.343145,3 3,3 l 6.375,0 c 1.44975,0 2.625,-1.17525 2.625,-2.625 0,-1.3474 -1.013093,-2.45152 -2.320313,-2.60156 -0.340927,-1.72004 -1.859535,-3.02344 -3.679687,-3.02344 z" style="display:inline;fill:#fff;fill-opacity:1;stroke:none;enable-background:new"/></g></svg>