<svg xmlns="http://www.w3.org/2000/svg" xmlns:osb="http://www.openswatchbook.org/uri/2009/osb" xmlns:svg="http://www.w3.org/2000/svg" id="svg6530" width="22" height="22" version="1.1" viewBox="0 0 22 22"><defs id="defs6532"><linearGradient id="linearGradient5606" osb:paint="solid"><stop id="stop5608" offset="0" style="stop-color:#000;stop-opacity:1"/></linearGradient></defs><metadata id="metadata6535"/><g id="layer1" transform="translate(-124.99994,-929.3622)" style="display:inline"><path id="path6913" d="m 135.99996,932.3622 c -2.07107,0 -3.83471,1.26792 -4.59375,3.0625 -1.92783,0.2866 -3.40625,1.92992 -3.40625,3.9375 0,2.20914 1.79086,4 4,4 l 8.5,0 c 1.933,0 3.5,-1.567 3.5,-3.5 0,-1.79654 -1.35079,-3.2687 -3.09375,-3.46875 -0.45457,-2.29339 -2.47938,-4.03125 -4.90625,-4.03125 z" style="fill:#fff;fill-opacity:1;stroke:none"/><rect id="rect6653" width="22" height="22" x="125" y="929.362" style="color:#bebebe;display:inline;overflow:visible;visibility:visible;fill:none;stroke:none;stroke-width:1.78100002;marker:none;enable-background:new"/><path id="rect6932" d="m 130.99996,944.3622 0,1.13281 -0.98242,-0.5664 -0.5,0.86718 0.98047,0.56641 -0.98047,0.56641 0.5,0.86718 0.98242,-0.5664 0,1.13281 1,0 0,-1.13281 0.98242,0.5664 0.5,-0.86718 -0.98047,-0.56641 0.98047,-0.56641 -0.5,-0.86718 -0.98242,0.5664 0,-1.13281 -1,0 z" style="opacity:.35;fill:#fff;fill-opacity:1;stroke:none;stroke-width:4;stroke-linecap:round;stroke-linejoin:round;stroke-miterlimit:4;stroke-dasharray:none;stroke-opacity:1"/><path id="path6939" d="m 135.99996,944.3622 0,1.13281 -0.98242,-0.5664 -0.5,0.86718 0.98047,0.56641 -0.98047,0.56641 0.5,0.86718 0.98242,-0.5664 0,1.13281 1,0 0,-1.13281 0.98242,0.5664 0.5,-0.86718 -0.98047,-0.56641 0.98047,-0.56641 -0.5,-0.86718 -0.98242,0.5664 0,-1.13281 -1,0 z" style="opacity:.35;fill:#fff;fill-opacity:1;stroke:none;stroke-width:4;stroke-linecap:round;stroke-linejoin:round;stroke-miterlimit:4;stroke-dasharray:none;stroke-opacity:1"/><path id="path6941" d="m 140.99996,944.3622 0,1.13281 -0.98242,-0.5664 -0.5,0.86718 0.98047,0.56641 -0.98047,0.56641 0.5,0.86718 0.98242,-0.5664 0,1.13281 1,0 0,-1.13281 0.98242,0.5664 0.5,-0.86718 -0.98047,-0.56641 0.98047,-0.56641 -0.5,-0.86718 -0.98242,0.5664 0,-1.13281 -1,0 z" style="opacity:.35;fill:#fff;fill-opacity:1;stroke:none;stroke-width:4;stroke-linecap:round;stroke-linejoin:round;stroke-miterlimit:4;stroke-dasharray:none;stroke-opacity:1"/></g></svg>