<svg xmlns="http://www.w3.org/2000/svg" xmlns:osb="http://www.openswatchbook.org/uri/2009/osb" xmlns:svg="http://www.w3.org/2000/svg" id="svg6530" width="22" height="22" version="1.1" viewBox="0 0 22 22"><defs id="defs6532"><linearGradient id="linearGradient5606" osb:paint="solid"><stop id="stop5608" offset="0" style="stop-color:#000;stop-opacity:1"/></linearGradient></defs><metadata id="metadata6535"/><g id="layer1" transform="translate(-77.000157,-929.35884)" style="display:inline"><rect id="rect6216" width="22" height="22" x="77" y="929.359" style="color:#bebebe;display:inline;overflow:visible;visibility:visible;fill:none;stroke:none;stroke-width:1.78100002;marker:none;enable-background:new"/><path id="path6124" d="m 88.00023,932.36171 c -2.07107,0 -3.83471,1.26792 -4.59375,3.0625 -1.92783,0.2866 -3.40625,1.92992 -3.40625,3.9375 0,2.20914 1.79086,4 4,4 l 8.5,0 c 1.933,0 3.5,-1.567 3.5,-3.5 0,-1.79654 -1.35079,-3.2687 -3.09375,-3.46875 -0.45457,-2.29339 -2.47938,-4.03125 -4.90625,-4.03125 z m -5.021484,11.99023 a 0.50005,0.50005 0 0 0 -0.425782,0.28321 l -1,2 a 0.50006083,0.50006083 0 1 0 0.894532,0.44726 l 1,-2 a 0.50005,0.50005 0 0 0 -0.46875,-0.73047 z m 2.5,0 a 0.50005,0.50005 0 0 0 -0.425782,0.28321 l -1,2 a 0.50006083,0.50006083 0 1 0 0.894532,0.44726 l 1,-2 a 0.50005,0.50005 0 0 0 -0.46875,-0.73047 z m 2.5,0 a 0.50005,0.50005 0 0 0 -0.425782,0.28321 l -1,2 a 0.50006083,0.50006083 0 1 0 0.894532,0.44726 l 1,-2 a 0.50005,0.50005 0 0 0 -0.46875,-0.73047 z m 2.5,0 a 0.50005,0.50005 0 0 0 -0.425782,0.28321 l -1,2 a 0.50006083,0.50006083 0 1 0 0.894532,0.44726 l 1,-2 a 0.50005,0.50005 0 0 0 -0.46875,-0.73047 z m 2.5,0 a 0.50005,0.50005 0 0 0 -0.425782,0.28321 l -1,2 a 0.50006083,0.50006083 0 1 0 0.894532,0.44726 l 1,-2 a 0.50005,0.50005 0 0 0 -0.46875,-0.73047 z" style="color:#000;font-style:normal;font-variant:normal;font-weight:400;font-stretch:normal;font-size:medium;line-height:normal;font-family:sans-serif;text-indent:0;text-align:start;text-decoration:none;text-decoration-line:none;text-decoration-style:solid;text-decoration-color:#000;letter-spacing:normal;word-spacing:normal;text-transform:none;direction:ltr;block-progression:tb;writing-mode:lr-tb;baseline-shift:baseline;text-anchor:start;white-space:normal;clip-rule:nonzero;display:inline;overflow:visible;visibility:visible;opacity:1;isolation:auto;mix-blend-mode:normal;color-interpolation:sRGB;color-interpolation-filters:linearRGB;solid-color:#000;solid-opacity:1;fill:#fff;fill-opacity:1;fill-rule:nonzero;stroke:none;stroke-width:1;stroke-linecap:round;stroke-linejoin:miter;stroke-miterlimit:4;stroke-dasharray:none;stroke-dashoffset:0;stroke-opacity:1;color-rendering:auto;image-rendering:auto;shape-rendering:auto;text-rendering:auto;enable-background:accumulate"/></g></svg>