<svg xmlns="http://www.w3.org/2000/svg" xmlns:svg="http://www.w3.org/2000/svg" id="svg6530" width="16" height="16" version="1.1" viewBox="0 0 16 16"><metadata id="metadata6535"/><g id="layer1" transform="translate(-103.9998,-676.3588)"><path id="path7431" d="m 108.9998,681.3588 0,8 6,0 0,-8 z" style="opacity:.35;fill:#fff;fill-opacity:1;stroke:none"/><path id="path7435" d="m 109.9998,677.3588 0,1 4,0 0,-1 z m -2.15625,2 c -0.28125,0.0469 -0.84375,0.25 -0.84375,1 l 0,10 c 0,1 1,1 1,1 l 8,0 c 1,0 1,-1 1,-1 l 0,-10 c 0,0 0,-1 -1,-1 l -8,0 c 0,0 -0.0625,-0.0156 -0.15625,0 z m 0.15625,1 8,0 0,10 -8,0 z m 1,5 0,4 6,0 0,-4 z" style="fill:#fff;fill-opacity:1;stroke:none"/></g></svg>