<svg xmlns="http://www.w3.org/2000/svg" xmlns:svg="http://www.w3.org/2000/svg" id="svg6530" width="16" height="16" version="1.1" viewBox="0 0 16 16"><metadata id="metadata6535"/><g id="layer1" transform="translate(-103.99979,-700.3588)"><path id="path7898" d="m 108.99979,705.3588 0,3.09375 1.84375,-3.09375 z m 4,0 0,2 2,0 0,-2 z m 2,4.90625 -1.84375,3.09375 1.84375,0 z m -6,1.09375 0,2 2,0 0,-2 z" style="display:inline;opacity:.35;fill:#fff;fill-opacity:1;stroke:none;enable-background:new"/><path id="path7900" d="m 114.99979,710.26505 -1.84375,3.09375 1.84375,0 0,-3.09375 z m -6,1.09375 0,2 2,0 0,-2 -2,0 z" style="display:inline;fill:#fff;fill-opacity:1;stroke:none;enable-background:new"/><path id="path7904" d="m 109.99979,701.3588 0,1 4,0 0,-1 z m -2.15625,2 c -0.28125,0.0469 -0.84375,0.25 -0.84375,1 l 0,10 c 0,1 1,1 1,1 l 8,0 c 1,0 1,-1 1,-1 l 0,-10 c 0,0 0,-1 -1,-1 l -8,0 c 0,0 -0.0625,-0.0156 -0.15625,0 z m 0.15625,1 8,0 0,10 -8,0 z" style="display:inline;fill:#fff;fill-opacity:1;stroke:none;enable-background:new"/><path id="path7906" d="m 111.99979,705.3588 0,3 3,0 -3,5 0,-3 -3,0 z" style="display:inline;fill:#fff;fill-opacity:1;stroke:none;enable-background:new"/><path id="path7908" d="m 107.84354,703.3588 c -0.28125,0.0469 -0.84375,0.25 -0.84375,1 l 0,10 c 0,1 1,1 1,1 l 8,0 c 1,0 1,-1 1,-1 l 0,-10 c 0,0 0,-1 -1,-1 0,0 -5.33333,0 -8,0 -0.0521,0 -0.0625,-0.0156 -0.15625,0 z m 0.15625,1 8,0 0,10 -8,0 z" style="display:inline;fill:#fff;fill-opacity:1;stroke:none;enable-background:new"/></g></svg>