<svg xmlns="http://www.w3.org/2000/svg" xmlns:svg="http://www.w3.org/2000/svg" id="svg6530" width="16" height="16" version="1.1" viewBox="0 0 16 16"><metadata id="metadata6535"/><g id="layer1" transform="translate(-55.99999,-892.36214)"><path id="rect6069-5-5" d="m 57.99999,894.3655 c 0,0 -2,0 -2,2 l 0,8 c 0,2 2,2 2,2 l 11,0 c 0,0 2,0 2,-2 l 0,-8 c 0,-2 -2,-2 -2,-2 l -11,0 z m 0.25,2 1.5,0 c 0.1385,0 0.25,0.1115 0.25,0.25 l 0,1.5 c 0,0.1385 -0.1115,0.25 -0.25,0.25 l -1.5,0 c -0.1385,0 -0.25,-0.1115 -0.25,-0.25 l 0,-1.5 c 0,-0.1385 0.1115,-0.25 0.25,-0.25 z m 3,0 1.5,0 c 0.1385,0 0.25,0.1115 0.25,0.25 l 0,1.5 c 0,0.1385 -0.1115,0.25 -0.25,0.25 l -1.5,0 c -0.1385,0 -0.25,-0.1115 -0.25,-0.25 l 0,-1.5 c 0,-0.1385 0.1115,-0.25 0.25,-0.25 z m 3,0 1.5,0 c 0.1385,0 0.25,0.1115 0.25,0.25 l 0,1.5 c 0,0.1385 -0.1115,0.25 -0.25,0.25 l -1.5,0 c -0.1385,0 -0.25,-0.1115 -0.25,-0.25 l 0,-1.5 c 0,-0.1385 0.1115,-0.25 0.25,-0.25 z m 3,0 1.5,0 c 0.1385,0 0.25,0.1115 0.25,0.25 l 0,1.5 c 0,0.1385 -0.1115,0.25 -0.25,0.25 l -1.5,0 c -0.1385,0 -0.25,-0.1115 -0.25,-0.25 l 0,-1.5 c 0,-0.1385 0.1115,-0.25 0.25,-0.25 z m -9,3 1.5,0 c 0.1385,0 0.25,0.1115 0.25,0.25 l 0,1.5 c 0,0.1385 -0.1115,0.25 -0.25,0.25 l -1.5,0 c -0.1385,0 -0.25,-0.1115 -0.25,-0.25 l 0,-1.5 c 0,-0.1385 0.1115,-0.25 0.25,-0.25 z m 3,0 1.5,0 c 0.1385,0 0.25,0.1115 0.25,0.25 l 0,1.5 c 0,0.1385 -0.1115,0.25 -0.25,0.25 l -1.5,0 c -0.1385,0 -0.25,-0.1115 -0.25,-0.25 l 0,-1.5 c 0,-0.1385 0.1115,-0.25 0.25,-0.25 z m 3,0 1.5,0 c 0.1385,0 0.25,0.1115 0.25,0.25 l 0,1.5 c 0,0.1385 -0.1115,0.25 -0.25,0.25 l -1.5,0 c -0.1385,0 -0.25,-0.1115 -0.25,-0.25 l 0,-1.5 c 0,-0.1385 0.1115,-0.25 0.25,-0.25 z m 3,0 1.5,0 c 0.1385,0 0.25,0.1115 0.25,0.25 l 0,1.5 c 0,0.1385 -0.1115,0.25 -0.25,0.25 l -1.5,0 c -0.1385,0 -0.25,-0.1115 -0.25,-0.25 l 0,-1.5 c 0,-0.1385 0.1115,-0.25 0.25,-0.25 z m -7,3 6.5,0 c 0.1385,0 0.25,0.1115 0.25,0.25 l 0,1.5 c 0,0.1385 -0.1115,0.25 -0.25,0.25 l -6.5,0 c -0.1385,0 -0.25,-0.1115 -0.25,-0.25 l 0,-1.5 c 0,-0.1385 0.1115,-0.25 0.25,-0.25 z" style="fill:#fff;fill-opacity:1;stroke:none"/></g></svg>