<svg xmlns="http://www.w3.org/2000/svg" xmlns:svg="http://www.w3.org/2000/svg" id="svg6530" width="16" height="16" version="1.1" viewBox="0 0 16 16"><metadata id="metadata6535"/><g id="layer1" transform="translate(-320.0002,-528.3605)"><path id="rect7011-8" d="m 323.00027,529.3605 c 0,0 -2,0 -2,2.0625 l 0,9.9375 c 0,2 2,2 2,2 l 10,0 c 2,0 2,-2 2,-2 l 0,-10 c 0,0 0,-2 -2,-2 z m 3.0002,2.00002 4,0 c 2,0 2.05222,2.35142 2,2 l 0,1 -2,0 0,-1 -4,0 0,6 4,0 0,-1 2,0 0,1 c 0,0 0,2 -2,2 l -4,0 c 0,0 -2,0 -2,-2 l 0,-6 c 0,-2 2,-2 2,-2 z" style="color:#bebebe;fill:#fff;fill-opacity:1;stroke:none"/></g></svg>