<svg xmlns="http://www.w3.org/2000/svg" xmlns:svg="http://www.w3.org/2000/svg" id="svg6530" width="16.028" height="16.003" version="1.1" viewBox="0 0 16.028 16.003"><metadata id="metadata6535"/><g id="layer1" transform="translate(-104,-528.35883)"><path id="path9092" d="m 112.03125,530.35825 c -3.03435,0 -5.76588,1.07815 -8.03125,2.75 l 8.03125,8.75 0.96875,-1.06836 0,-1.42773 1.01367,0 c 0.0196,-1.63493 1.34252,-3 2.98633,-3 0.006,0 0.0116,0.002 0.0176,0.002 L 120,533.077 c -2.25661,-1.65329 -4.9577,-2.71875 -7.96875,-2.71875 z m -0.0625,1 c 2.39362,0 4.52424,0.83638 6.4375,2.03125 l -6.4375,7 -6.375,-7.03125 c 1.90092,-1.17864 4.00536,-2 6.375,-2 z" style="color:#000;display:inline;overflow:visible;visibility:visible;fill:#fff;fill-opacity:1;fill-rule:nonzero;stroke:none;stroke-width:1;marker:none;enable-background:accumulate"/><path id="path9094" d="m 111.96875,536.1713 c -0.73979,0 -1.42454,0.15999 -2.0625,0.4375 l 2.0625,2.28125 2.09375,-2.25 c -0.65021,-0.28739 -1.33816,-0.46875 -2.09375,-0.46875 z" style="color:#000;display:inline;overflow:visible;visibility:visible;fill:#fff;fill-opacity:1;fill-rule:nonzero;stroke:none;stroke-width:1;marker:none;enable-background:accumulate"/><path id="path9143" d="m 117,537.36216 c -1.108,0 -2,0.91085 -2,2.03125 l 0,0.96875 -1,0 0,1 0,2 0,1 1,0 4,0 1,0 0,-1 0,-2 0,-1 -1,0 0,-0.96875 c 0,-1.1199 -0.892,-2.03125 -2,-2.03125 z m 0,1 c 0.554,0 1,0.4424 1,1 l 0,1 -2,0 0,-1 c 0,-0.5576 0.446,-1 1,-1 z" style="color:#000;display:inline;overflow:visible;visibility:visible;opacity:1;fill:#fff;fill-opacity:1;fill-rule:nonzero;stroke:none;stroke-width:1;marker:none;enable-background:accumulate"/></g></svg>