<svg xmlns="http://www.w3.org/2000/svg" xmlns:svg="http://www.w3.org/2000/svg" id="svg6530" width="16.002" height="16" version="1.1" viewBox="0 0 16.002 16"><metadata id="metadata6535"/><g id="layer1" transform="translate(-80,-528.36218)"><path id="path9116" d="m 88.033203,530.36216 c -3.03435,0 -5.76588,1.07815 -8.03125,2.75 l 8.03125,8.75 L 89,540.79771 l 0,-1.43555 1.013672,0 c 0.01965,-1.63493 1.342515,-3 2.986328,-3 0.0074,0 0.01414,0.002 0.02148,0.002 l 2.980473,-3.28325 c -2.25661,-1.65329 -4.9577,-2.71875 -7.96875,-2.71875 z m -0.0625,1 c 2.39362,0 4.52424,0.83638 6.4375,2.03125 l -6.4375,7 -6.375,-7.03125 c 1.90092,-1.17864 4.00536,-2 6.375,-2 z" style="color:#000;display:inline;overflow:visible;visibility:visible;fill:#fff;fill-opacity:1;fill-rule:nonzero;stroke:none;stroke-width:1;marker:none;enable-background:accumulate"/><path id="path9118" d="m 87.97155,534.76841 c -1.11918,0 -2.14739,0.25729 -3.09375,0.71875 l 3.09375,3.40625 3.09375,-3.375 c -0.94819,-0.46162 -1.97284,-0.75 -3.09375,-0.75 z" style="color:#000;display:inline;overflow:visible;visibility:visible;fill:#fff;fill-opacity:1;fill-rule:nonzero;stroke:none;stroke-width:1;marker:none;enable-background:accumulate"/><path id="path9145" d="m 93,537.36216 c -1.108,0 -2,0.91085 -2,2.03125 l 0,0.96875 -1,0 0,1 0,2 0,1 1,0 4,0 1,0 0,-1 0,-2 0,-1 -1,0 0,-0.96875 c 0,-1.1199 -0.892,-2.03125 -2,-2.03125 z m 0,1 c 0.554,0 1,0.4424 1,1 l 0,1 -2,0 0,-1 c 0,-0.5576 0.446,-1 1,-1 z" style="color:#000;display:inline;overflow:visible;visibility:visible;opacity:1;fill:#fff;fill-opacity:1;fill-rule:nonzero;stroke:none;stroke-width:1;marker:none;enable-background:accumulate"/></g></svg>