<svg xmlns="http://www.w3.org/2000/svg" xmlns:svg="http://www.w3.org/2000/svg" id="svg6530" width="16" height="16.004" version="1.1" viewBox="0 0 16 16.004"><metadata id="metadata6535"/><g id="layer1" transform="translate(-80.000015,-624.35825)"><path id="rect9241" d="m 93.5,624.35825 c -0.277,0 -0.5,0.223 -0.5,0.5 l 0,7.50391 c 0.774415,0 1.470818,0.30948 2,0.80078 l 0,-8.30469 c 0,-0.277 -0.223,-0.5 -0.5,-0.5 l -1,0 z m -3,3 c -0.277,0 -0.5,0.223 -0.5,0.5 l 0,7.50391 0.01367,0 c 0.01543,-1.28412 0.838925,-2.392 1.986328,-2.8125 l 0,-4.69141 c 0,-0.277 -0.223,-0.5 -0.5,-0.5 l -1,0 z m 0.5,10.00391 0,1.99609 0.5,0 c 0.277,0 0.5,-0.223 0.5,-0.5 l 0,-1.49609 -1,0 z m 2,0 0,1.49609 c 0,0.277 0.223,0.5 0.5,0.5 l 1,0 c 0.277,0 0.5,-0.223 0.5,-0.5 l 0,-1.49609 -1,0 -1,0 z" style="color:#bebebe;display:inline;overflow:visible;visibility:visible;opacity:.35;fill:#fff;fill-opacity:1;fill-rule:nonzero;stroke:none;stroke-width:1;marker:none;enable-background:accumulate"/><path id="rect9243" d="m 87.5,630.35825 c -0.277,0 -0.5,0.223 -0.5,0.5 l 0,8 c 0,0.277 0.223,0.5 0.5,0.5 l 1,0 c 0.277,0 0.5,-0.223 0.5,-0.5 l 0,-8 c 0,-0.277 -0.223,-0.5 -0.5,-0.5 l -1,0 z m -3,3 c -0.277,0 -0.5,0.223 -0.5,0.5 l 0,5 c 0,0.277 0.223,0.5 0.5,0.5 l 1,0 c 0.277,0 0.5,-0.223 0.5,-0.5 l 0,-5 c 0,-0.277 -0.223,-0.5 -0.5,-0.5 l -1,0 z m 8.5,0.004 c -1.108,0 -2,0.91085 -2,2.03125 l 0,0.96875 -1,0 0,1 0,2 0,1 1,0 4,0 1,0 0,-1 0,-2 0,-1 -1,0 0,-0.96875 c 0,-1.1199 -0.892,-2.03125 -2,-2.03125 z m 0,1 c 0.554,0 1,0.4424 1,1 l 0,1 -2,0 0,-1 c 0,-0.5576 0.446,-1 1,-1 z m -11.5,1.99609 c -0.277,0 -0.5,0.223 -0.5,0.5 l 0,2 c 0,0.277 0.223,0.5 0.5,0.5 l 1,0 c 0.277,0 0.5,-0.223 0.5,-0.5 l 0,-2 c 0,-0.277 -0.223,-0.5 -0.5,-0.5 l -1,0 z" style="color:#bebebe;display:inline;overflow:visible;visibility:visible;fill:#fff;fill-opacity:1;fill-rule:nonzero;stroke:none;stroke-width:1;marker:none;enable-background:accumulate"/></g></svg>