<svg xmlns="http://www.w3.org/2000/svg" xmlns:svg="http://www.w3.org/2000/svg" id="svg6530" width="16" height="16.003" version="1.1" viewBox="0 0 16 16.003"><metadata id="metadata6535"/><g id="layer1" transform="translate(-31.999794,-528.35883)"><path id="path9100" d="m 40.03125,530.35825 c -3.03435,0 -5.76588,1.07815 -8.03125,2.75 l 8.03125,8.75 0.96875,-1.06836 0,-1.42773 1.013672,0 c 0.01965,-1.63493 1.342515,-3 2.986328,-3 0.006,0 0.01156,0.002 0.01758,0.002 L 48,533.077 c -2.25661,-1.65329 -4.9577,-2.71875 -7.96875,-2.71875 z m 0,1 c 2.36964,0 4.47408,0.82136 6.375,2 l -6.375,7 -6.4375,-6.96875 c 1.91326,-1.19487 4.04388,-2.03125 6.4375,-2.03125 z" style="color:#000;display:inline;overflow:visible;visibility:visible;fill:#fff;fill-opacity:1;fill-rule:nonzero;stroke:none;stroke-width:1;marker:none;enable-background:accumulate"/><path id="path9102" d="m 40.03106,532.3588 c -1.72947,0 -3.28925,0.5728 -4.78125,1.34375 l 4.78125,5.15625 4.71875,-5.1875 c -1.4758,-0.75648 -3.01086,-1.3125 -4.71875,-1.3125 z" style="color:#000;display:inline;overflow:visible;visibility:visible;fill:#fff;fill-opacity:1;fill-rule:nonzero;stroke:none;stroke-width:1;marker:none;enable-background:accumulate"/><path id="path9149" d="m 45,537.36216 c -1.108,0 -2,0.91085 -2,2.03125 l 0,0.96875 -1,0 0,1 0,2 0,1 1,0 4,0 1,0 0,-1 0,-2 0,-1 -1,0 0,-0.96875 c 0,-1.1199 -0.892,-2.03125 -2,-2.03125 z m 0,1 c 0.554,0 1,0.4424 1,1 l 0,1 -2,0 0,-1 c 0,-0.5576 0.446,-1 1,-1 z" style="color:#000;display:inline;overflow:visible;visibility:visible;opacity:1;fill:#fff;fill-opacity:1;fill-rule:nonzero;stroke:none;stroke-width:1;marker:none;enable-background:accumulate"/></g></svg>