<svg xmlns="http://www.w3.org/2000/svg" xmlns:svg="http://www.w3.org/2000/svg" id="svg6530" width="16" height="16" version="1.1" viewBox="0 0 16 16"><metadata id="metadata6535"/><g id="layer1" transform="translate(-127.99979,-552.3588)"><path id="path3766" d="m 137.9998,552.82755 0,1.03125 0,1.5 -2.5,0 -0.5,0 0,1 0.5,0 3,0 0.5,0 0,-0.5 0,-0.96875 3.56407,2.96875 -0.56407,0.5625 0,1.25 2.00001,-1.8125 0,0 -2e-5,-10e-6 -5.18749,-4.37499 z m -2,6.53125 0,1 2,0 0,-1 z" style="color:#000;opacity:.35;fill:#fff;fill-opacity:1;stroke:none"/><path id="path3783" d="m 133.9998,556.82755 -0.8125,0.65625 -5.18749,4.375 0,0 0,0 5.18749,4.375 0.8125,0.65625 0,-1.03125 0,-1.5 2.5,0 0.5,0 0,-1 -0.5,0 -3,0 -0.5,0 0,0.5 0,0.96875 -3.40624,-2.96875 3.40624,-2.96875 0,0.96875 0,0.5 0.5,0 2.50002,0 0,-1 -2.00002,0 0,-1.5 z" style="color:#000;opacity:.35;fill:#fff;fill-opacity:1;stroke:none"/><path id="path6053-9-8" d="m 138.99982,558.3588 -1e-5,4 0.25,2 1.5,0 0.25,-2 1e-5,-4 z m 0,7 0,2 2,0 0,-2 z" style="color:#444;fill:#ef2929;stroke:none"/></g></svg>