<svg xmlns="http://www.w3.org/2000/svg" xmlns:svg="http://www.w3.org/2000/svg" id="svg6530" width="17" height="16" version="1.1" viewBox="0 0 17 16"><metadata id="metadata6535"/><g id="layer1" transform="translate(-32,-748.36389)"><path id="path10670" d="m 41,748.36389 c -1,0 -1,1.00001 -1,1.00001 l 0,14 c 0,0 0,1 1,1 l 6,0 c 1,0 1,-1 1,-1 l 0,-14 c 0,0 0,-1.00001 -1,-1.00001 z m 0.9998,2.00336 4,0 0,11 -4,0 z" style="fill:#fff;fill-opacity:1;stroke:none"/><path id="path10672" d="m 34.5,748.36389 c -0.277,-7e-5 -0.5,0.22301 -0.5,0.50001 l 0,0.5 -1.999985,-0.002 0,-2.6e-4 L 32,763.86338 c 0,0.277 0.223,0.5 0.5,0.5 l 4.999985,0 c 0.277,0 0.492775,-0.22309 0.5,-0.5 L 38,749.36216 l -0.500015,0.002 -1.5,0 0,-0.5 c 0,-0.277 -0.223,-0.49994 -0.5,-0.50001 z" style="color:#bebebe;opacity:1;fill:#fff;fill-opacity:1;stroke:none;stroke-width:0;stroke-linecap:round;stroke-linejoin:round"/></g></svg>