<svg xmlns="http://www.w3.org/2000/svg" xmlns:svg="http://www.w3.org/2000/svg" id="svg6530" width="16" height="16" version="1.1" viewBox="0 0 16 16"><metadata id="metadata6535"/><g id="layer1" transform="translate(-200.0002,-820.36054)"><path id="path3003-1" d="m 213,822.3639 c 0,0 2,0 2,2 l -14,0 c 0,-2 1.96875,-2 1.96875,-2 z m 2,8 c 0,2 -2,2 -2,2 l -1,0 -2,3 -2,-3 -5,0 c -1.108,0 -2,-0.892 -2,-2 z" style="opacity:.35;fill:#fff;fill-opacity:1;stroke:none"/><path id="rect8040-5-8" d="m 203.0002,825.36054 c -1.108,0 -2,0.892 -2,2 0,1.108 0.892,2 2,2 1.108,0 2,-0.892 2,-2 0,-1.108 -0.892,-2 -2,-2 z m 5,0 c -1.108,0 -2,0.892 -2,2 0,1.108 0.892,2 2,2 1.108,0 2,-0.892 2,-2 0,-1.108 -0.892,-2 -2,-2 z m 5,0 c -1.108,0 -2,0.892 -2,2 0,1.108 0.892,2 2,2 1.108,0 2,-0.892 2,-2 0,-1.108 -0.892,-2 -2,-2 z" style="color:#000;display:inline;overflow:visible;visibility:visible;fill:#fff;fill-opacity:1;fill-rule:nonzero;stroke:none;stroke-width:1;marker:none;enable-background:new"/></g></svg>