<svg xmlns="http://www.w3.org/2000/svg" xmlns:svg="http://www.w3.org/2000/svg" id="svg6530" width="16" height="16" version="1.1" viewBox="0 0 16 16"><metadata id="metadata6535"/><g id="layer1" transform="translate(-127.99971,-940.3314)"><path id="path6913" d="m 135.99973,940.3314 c -2.07107,0 -3.83471,1.26792 -4.59375,3.0625 -1.92783,0.2866 -3.40625,1.92992 -3.40625,3.9375 0,2.20914 1.79086,4 4,4 l 8.5,0 c 1.933,0 3.5,-1.567 3.5,-3.5 0,-1.79654 -1.35079,-3.2687 -3.09375,-3.46875 -0.45457,-2.29339 -2.47938,-4.03125 -4.90625,-4.03125 z" style="fill:#fff;fill-opacity:1;stroke:none"/><path id="rect6932" d="m 130.99973,952.3314 0,1.13281 -0.98242,-0.5664 -0.5,0.86718 0.98047,0.56641 -0.98047,0.56641 0.5,0.86718 0.98242,-0.5664 0,1.13281 1,0 0,-1.13281 0.98242,0.5664 0.5,-0.86718 -0.98047,-0.56641 0.98047,-0.56641 -0.5,-0.86718 -0.98242,0.5664 0,-1.13281 -1,0 z" style="opacity:.35;fill:#fff;fill-opacity:1;stroke:none;stroke-width:4;stroke-linecap:round;stroke-linejoin:round;stroke-miterlimit:4;stroke-dasharray:none;stroke-opacity:1"/><path id="path6939" d="m 135.99973,952.3314 0,1.13281 -0.98242,-0.5664 -0.5,0.86718 0.98047,0.56641 -0.98047,0.56641 0.5,0.86718 0.98242,-0.5664 0,1.13281 1,0 0,-1.13281 0.98242,0.5664 0.5,-0.86718 -0.98047,-0.56641 0.98047,-0.56641 -0.5,-0.86718 -0.98242,0.5664 0,-1.13281 -1,0 z" style="opacity:.35;fill:#fff;fill-opacity:1;stroke:none;stroke-width:4;stroke-linecap:round;stroke-linejoin:round;stroke-miterlimit:4;stroke-dasharray:none;stroke-opacity:1"/><path id="path6941" d="m 140.99973,952.3314 0,1.13281 -0.98242,-0.5664 -0.5,0.86718 0.98047,0.56641 -0.98047,0.56641 0.5,0.86718 0.98242,-0.5664 0,1.13281 1,0 0,-1.13281 0.98242,0.5664 0.5,-0.86718 -0.98047,-0.56641 0.98047,-0.56641 -0.5,-0.86718 -0.98242,0.5664 0,-1.13281 -1,0 z" style="opacity:.35;fill:#fff;fill-opacity:1;stroke:none;stroke-width:4;stroke-linecap:round;stroke-linejoin:round;stroke-miterlimit:4;stroke-dasharray:none;stroke-opacity:1"/></g></svg>