<svg xmlns="http://www.w3.org/2000/svg" xmlns:svg="http://www.w3.org/2000/svg" id="svg6530" width="16" height="16" version="1.1" viewBox="0 0 16 16"><metadata id="metadata6535"/><g id="layer1" transform="translate(-103.99973,-940.32804)"><path id="path5970" d="m 111.99973,940.3314 c -2.07107,0 -3.83471,1.26792 -4.59375,3.0625 -1.92783,0.2866 -3.40625,1.92992 -3.40625,3.9375 0,1.933 1.36477,3.53327 3.1875,3.90625 0.76412,-0.77854 1.52122,-1.56145 2.3125,-2.3125 0.57304,0.53801 1.13306,1.09923 1.6875,1.65625 0.24292,-0.069 0.38252,-0.84617 0.71875,-1.09375 0.85427,-0.86808 1.70924,-1.72483 2.59375,-2.5625 0.66629,0.62449 1.29148,1.26106 1.9375,1.90625 0.59794,0.57143 1.22758,1.20365 1.4375,2.03125 0.016,0.0511 0.018,0.10465 0.0312,0.15625 1.23525,-0.54049 2.0938,-1.75295 2.0938,-3.1875 0,-1.79654 -1.35079,-3.2687 -3.09375,-3.46875 -0.45457,-2.29339 -2.47938,-4.03125 -4.90625,-4.03125 z m 2.5,9.4375 c -0.0852,0.0828 -0.1647,0.1673 -0.25,0.25 -0.39699,0.41584 -0.89926,0.78359 -1.125,1.3125 l 2.78125,0 c -0.0262,-0.0614 -0.0565,-0.12918 -0.0937,-0.1875 -0.3731,-0.51309 -0.87897,-0.91335 -1.3125,-1.375 z" style="fill:#fff;fill-opacity:1;stroke:none"/><path id="path7625" d="m 114.49993,948.32804 -0.34375,0.34375 -1.40625,1.40625 c -0.45315,0.45315 -0.75,1.0626 -0.75,1.75 0,1.37479 1.12521,2.5 2.5,2.5 1.37479,0 2.5,-1.12521 2.5,-2.5 0,-0.6874 -0.29685,-1.29685 -0.75,-1.75 l -1.40625,-1.40625 z m -5,2 -0.34375,0.34375 -1.40625,1.40625 c -0.45315,0.45315 -0.75,1.0626 -0.75,1.75 0,1.37479 1.12521,2.5 2.5,2.5 1.37479,0 2.5,-1.12521 2.5,-2.5 0,-0.6874 -0.29685,-1.29685 -0.75,-1.75 l -1.40625,-1.40625 z" class="link" style="color:#000;font-style:normal;font-variant:normal;font-weight:400;font-stretch:normal;line-height:normal;font-family:Sans;-inkscape-font-specification:Sans;text-indent:0;text-align:start;text-decoration:none;text-decoration-line:none;letter-spacing:normal;word-spacing:normal;text-transform:none;direction:ltr;block-progression:tb;writing-mode:lr-tb;baseline-shift:baseline;text-anchor:start;display:inline;overflow:visible;visibility:visible;fill:#fff;fill-opacity:1;stroke:none;stroke-width:1px;marker:none;enable-background:accumulate"/></g></svg>