<svg xmlns="http://www.w3.org/2000/svg" xmlns:svg="http://www.w3.org/2000/svg" id="svg6530" width="16" height="16" version="1.1" viewBox="0 0 16 16"><metadata id="metadata6535"/><g id="layer1" transform="translate(-175.99993,-916.32797)"><path id="rect6343" d="m 176.00007,919.328 13,0 c 2.99997,-10e-6 2.99999,3 2.99999,3 l -13,0 c 0,0 -3.00002,-10e-6 -2.99999,-3 z" style="color:#bebebe;display:inline;overflow:visible;visibility:visible;opacity:.35;fill:#fff;fill-opacity:1;fill-rule:nonzero;stroke:none;stroke-width:2;marker:none;enable-background:accumulate"/><path id="rect6345" d="m 189.00009,923.328 -13,0 c -2e-5,3 2.99998,3 2.99998,3 l 13,0 c 0,0 0,-3 -2.99998,-3 z" style="color:#bebebe;display:inline;overflow:visible;visibility:visible;opacity:.35;fill:#fff;fill-opacity:1;fill-rule:nonzero;stroke:none;stroke-width:2;marker:none;enable-background:accumulate"/><path id="rect6347" d="m 176.00006,927.328 13,0 c 3,-2e-5 2.99998,3 2.99998,3 l -13,0 c 0,0 -2.99998,-2e-5 -2.99998,-3 z" style="color:#bebebe;display:inline;overflow:visible;visibility:visible;opacity:.35;fill:#fff;fill-opacity:1;fill-rule:nonzero;stroke:none;stroke-width:2;marker:none;enable-background:accumulate"/></g></svg>