<svg xmlns="http://www.w3.org/2000/svg" xmlns:osb="http://www.openswatchbook.org/uri/2009/osb" xmlns:svg="http://www.w3.org/2000/svg" id="svg6530" width="24" height="24" version="1.1" viewBox="0 0 24 24"><defs id="defs6532"><linearGradient id="linearGradient5606" osb:paint="solid"><stop id="stop5608" offset="0" style="stop-color:#000;stop-opacity:1"/></linearGradient></defs><metadata id="metadata6535"/><g id="layer1" transform="translate(-196.00003,-544.3895)" style="display:inline"><path id="path6273" d="m 206.49661,549.3895 c -0.79399,9.7e-4 -0.78072,0.0333 -0.53125,1.03125 l 1.625,4.96875 -4.5,0 -1.21875,-1.78125 c -0.13926,-0.20883 -0.1227,-0.21873 -0.34375,-0.21875 l -0.21875,0 c -0.42773,0 -0.28125,0.4375 -0.28125,0.4375 l 0.28125,2.5625 -0.28125,2.5625 c 0,0 -0.13986,0.43749 0.25,0.4375 l 0.25,0 c 0.21159,0 0.20422,-0.009 0.34375,-0.21875 l 1.21875,-1.78125 4.5,0 -1.625,4.9375 c -0.26171,1.04691 -0.2647,1.06251 0.53125,1.0625 0.43199,0 0.43388,-0.0117 0.71875,-0.5 l 3.6875,-5.5 3.09375,0 c 0.554,0 1,-0.446 1,-1 0,-0.554 -0.446,-1 -1,-1 l -3.09375,0 -3.6875,-5.5 c -0.2665,-0.45685 -0.28331,-0.49822 -0.65625,-0.5 l -0.0625,0 z" style="fill:#fff;fill-opacity:1;stroke:none"/></g></svg>