<svg xmlns="http://www.w3.org/2000/svg" xmlns:osb="http://www.openswatchbook.org/uri/2009/osb" xmlns:svg="http://www.w3.org/2000/svg" id="svg6530" width="24" height="24" version="1.1" viewBox="0 0 24 24"><defs id="defs6532"><linearGradient id="linearGradient5606" osb:paint="solid"><stop id="stop5608" offset="0" style="stop-color:#000;stop-opacity:1"/></linearGradient></defs><metadata id="metadata6535"/><g id="layer1" transform="translate(-124,-688.3895)" style="display:inline"><path id="path7915" d="m 133.00002,697.3895 0,3.09375 1.84375,-3.09375 z m 4,0 0,2 2,0 0,-2 z m 2,4.90625 -1.84375,3.09375 1.84375,0 z m -6,1.09375 0,2 2,0 0,-2 z" style="display:inline;opacity:.35;fill:#fff;fill-opacity:1;stroke:none;enable-background:new"/><path id="path7917" d="m 139.00002,702.29575 -0.0625,0.0937 0.0625,0 0,-0.0937 z m -6,1.09375 0,2 2,0 0,-2 -2,0 z m 5.34375,0 -1.1875,2 1.84375,0 0,-2 -0.65625,0 z" style="display:inline;fill:#fff;fill-opacity:1;stroke:none;enable-background:new"/><path id="path7921" d="m 134.00002,693.3895 0,1 4,0 0,-1 z m -2.15625,2 c -0.28125,0.0469 -0.84375,0.25 -0.84375,1 l 0,10 c 0,1 1,1 1,1 l 8,0 c 1,0 1,-1 1,-1 l 0,-10 c 0,0 0,-1 -1,-1 l -8,0 c 0,0 -0.0625,-0.0156 -0.15625,0 z m 0.15625,1 8,0 0,10 -8,0 z" style="display:inline;fill:#fff;fill-opacity:1;stroke:none;enable-background:new"/><path id="path7923" d="m 136.00002,697.3895 0,3 3,0 -3,5 0,-3 -3,0 z" style="display:inline;fill:#fff;fill-opacity:1;stroke:none;enable-background:new"/></g></svg>