<svg xmlns="http://www.w3.org/2000/svg" xmlns:osb="http://www.openswatchbook.org/uri/2009/osb" xmlns:svg="http://www.w3.org/2000/svg" id="svg6530" width="24" height="24" version="1.1" viewBox="0 0 24 24"><defs id="defs6532"><linearGradient id="linearGradient5606" osb:paint="solid"><stop id="stop5608" offset="0" style="stop-color:#000;stop-opacity:1"/></linearGradient></defs><metadata id="metadata6535"/><g id="layer1" transform="translate(-52.000234,-880.39284)" style="display:inline"><path id="rect6069-5-5" d="m 58.00022,886.3962 c 0,0 -2,0 -2,2 l 0,8 c 0,2 2,2 2,2 l 11,0 c 0,0 2,0 2,-2 l 0,-8 c 0,-2 -2,-2 -2,-2 l -11,0 z m 0.25,2 1.5,0 c 0.1385,0 0.25,0.1115 0.25,0.25 l 0,1.5 c 0,0.1385 -0.1115,0.25 -0.25,0.25 l -1.5,0 c -0.1385,0 -0.25,-0.1115 -0.25,-0.25 l 0,-1.5 c 0,-0.1385 0.1115,-0.25 0.25,-0.25 z m 3,0 1.5,0 c 0.1385,0 0.25,0.1115 0.25,0.25 l 0,1.5 c 0,0.1385 -0.1115,0.25 -0.25,0.25 l -1.5,0 c -0.1385,0 -0.25,-0.1115 -0.25,-0.25 l 0,-1.5 c 0,-0.1385 0.1115,-0.25 0.25,-0.25 z m 3,0 1.5,0 c 0.1385,0 0.25,0.1115 0.25,0.25 l 0,1.5 c 0,0.1385 -0.1115,0.25 -0.25,0.25 l -1.5,0 c -0.1385,0 -0.25,-0.1115 -0.25,-0.25 l 0,-1.5 c 0,-0.1385 0.1115,-0.25 0.25,-0.25 z m 3,0 1.5,0 c 0.1385,0 0.25,0.1115 0.25,0.25 l 0,1.5 c 0,0.1385 -0.1115,0.25 -0.25,0.25 l -1.5,0 c -0.1385,0 -0.25,-0.1115 -0.25,-0.25 l 0,-1.5 c 0,-0.1385 0.1115,-0.25 0.25,-0.25 z m -9,3 1.5,0 c 0.1385,0 0.25,0.1115 0.25,0.25 l 0,1.5 c 0,0.1385 -0.1115,0.25 -0.25,0.25 l -1.5,0 c -0.1385,0 -0.25,-0.1115 -0.25,-0.25 l 0,-1.5 c 0,-0.1385 0.1115,-0.25 0.25,-0.25 z m 3,0 1.5,0 c 0.1385,0 0.25,0.1115 0.25,0.25 l 0,1.5 c 0,0.1385 -0.1115,0.25 -0.25,0.25 l -1.5,0 c -0.1385,0 -0.25,-0.1115 -0.25,-0.25 l 0,-1.5 c 0,-0.1385 0.1115,-0.25 0.25,-0.25 z m 3,0 1.5,0 c 0.1385,0 0.25,0.1115 0.25,0.25 l 0,1.5 c 0,0.1385 -0.1115,0.25 -0.25,0.25 l -1.5,0 c -0.1385,0 -0.25,-0.1115 -0.25,-0.25 l 0,-1.5 c 0,-0.1385 0.1115,-0.25 0.25,-0.25 z m 3,0 1.5,0 c 0.1385,0 0.25,0.1115 0.25,0.25 l 0,1.5 c 0,0.1385 -0.1115,0.25 -0.25,0.25 l -1.5,0 c -0.1385,0 -0.25,-0.1115 -0.25,-0.25 l 0,-1.5 c 0,-0.1385 0.1115,-0.25 0.25,-0.25 z m -7,3 6.5,0 c 0.1385,0 0.25,0.1115 0.25,0.25 l 0,1.5 c 0,0.1385 -0.1115,0.25 -0.25,0.25 l -6.5,0 c -0.1385,0 -0.25,-0.1115 -0.25,-0.25 l 0,-1.5 c 0,-0.1385 0.1115,-0.25 0.25,-0.25 z" style="fill:#fff;fill-opacity:1;stroke:none"/></g></svg>