<svg xmlns="http://www.w3.org/2000/svg" xmlns:osb="http://www.openswatchbook.org/uri/2009/osb" xmlns:svg="http://www.w3.org/2000/svg" id="svg6530" width="24" height="24" version="1.1" viewBox="0 0 24 24"><defs id="defs6532"><linearGradient id="linearGradient5606" osb:paint="solid"><stop id="stop5608" offset="0" style="stop-color:#000;stop-opacity:1"/></linearGradient></defs><metadata id="metadata6535"/><g id="layer1" transform="translate(-147.99994,-616.38953)" style="display:inline"><path id="rect6691" d="m 165.50002,620.3895 c -0.277,0 -0.5,0.223 -0.5,0.5 l 0,8.5 0,5.5 c 0,0.277 0.223,0.5 0.5,0.5 l 1,0 c 0.277,0 0.5,-0.223 0.5,-0.5 l 0,-14 c 0,-0.277 -0.223,-0.5 -0.5,-0.5 l -1,0 z m -3,3 c -0.277,0 -0.5,0.223 -0.5,0.5 l 0,3.5 1,0 c 0.1385,0 0.27582,0.005 0.40625,0.0312 0.041,0.009 0.0848,0.0196 0.125,0.0312 0.16774,0.0456 0.32185,0.13378 0.46875,0.21875 l 0,-3.78115 c 0,-0.277 -0.223,-0.5 -0.5,-0.5 l -1,0 z m -3,3 c -0.277,0 -0.5,0.223 -0.5,0.5 l 0,0.5 1,0 1,0 0,-0.5 c 0,-0.277 -0.223,-0.5 -0.5,-0.5 l -1,0 z m -3.5,4.71875 0,3.78125 c 0,0.277 0.223,0.5 0.5,0.5 l 1,0 c 0.277,0 0.5,-0.223 0.5,-0.5 l 0,-3.5 -1,0 c -0.18351,0 -0.36266,-0.0166 -0.53125,-0.0625 -0.0319,-0.009 -0.0625,-0.0205 -0.0937,-0.0312 -0.1331,-0.0434 -0.25596,-0.11864 -0.375,-0.1875 z m 8,0 c -0.0717,0.0415 -0.14173,0.0925 -0.21875,0.125 -0.0815,0.0357 -0.16352,0.0686 -0.25,0.0937 -0.16859,0.0459 -0.34774,0.0626 -0.53125,0.0626 l -1,0 0,3.5 c 0,0.277 0.223,0.5 0.5,0.5 l 1,0 c 0.277,0 0.5,-0.223 0.5,-0.5 l 0,-3.78125 z m -5,0.28125 0,3.5 c 0,0.277 0.223,0.5 0.5,0.5 l 1,0 c 0.277,0 0.5,-0.223 0.5,-0.5 l 0,-3.5 -1,0 -1,0 z m -5.5,1 c -0.277,0 -0.5,0.223 -0.5,0.5 l 0,2 c 0,0.277 0.223,0.5 0.5,0.5 l 1,0 c 0.277,0 0.5,-0.223 0.5,-0.5 l 0,-2 c 0,-0.277 -0.223,-0.5 -0.5,-0.5 l -1,0 z" style="color:#bebebe;display:inline;overflow:visible;visibility:visible;opacity:.35;fill:#fff;fill-opacity:1;fill-rule:nonzero;stroke:none;stroke-width:1;marker:none;enable-background:accumulate"/><path id="path5112" d="m 156.99996,628.38953 c -0.55228,0 -1,0.44772 -1,1 0,0.55228 0.44772,1 1,1 0.55228,0 1,-0.44772 1,-1 0,-0.55228 -0.44772,-1 -1,-1 z m 3,0 c -0.55228,0 -1,0.44772 -1,1 0,0.55228 0.44772,1 1,1 0.55228,0 1,-0.44772 1,-1 0,-0.55228 -0.44772,-1 -1,-1 z m 3,0 c -0.55228,0 -1,0.44772 -1,1 0,0.55228 0.44772,1 1,1 0.55228,0 1,-0.44772 1,-1 0,-0.55228 -0.44772,-1 -1,-1 z" style="color:#bebebe;display:inline;overflow:visible;visibility:visible;fill:#fff;fill-opacity:1;fill-rule:nonzero;stroke:none;stroke-width:1;marker:none;enable-background:accumulate"/></g></svg>