<svg xmlns="http://www.w3.org/2000/svg" xmlns:osb="http://www.openswatchbook.org/uri/2009/osb" xmlns:svg="http://www.w3.org/2000/svg" id="svg6530" width="24" height="24" version="1.1" viewBox="0 0 24 24"><defs id="defs6532"><linearGradient id="linearGradient5606" osb:paint="solid"><stop id="stop5608" offset="0" style="stop-color:#000;stop-opacity:1"/></linearGradient></defs><metadata id="metadata6535"/><g id="layer1" transform="translate(-124.00002,-544.3895)" style="display:inline"><path id="path3766" d="m 138.00003,548.85825 0,1.03125 0,1.5 -2.5,0 -0.5,0 0,1 0.5,0 3,0 0.5,0 0,-0.5 0,-0.96875 3.56407,2.96875 -0.56407,0.5625 0,1.25 2.00001,-1.8125 0,0 -2e-5,-10e-6 -5.18749,-4.37499 z m -2,6.53125 0,1 2,0 0,-1 z" style="color:#000;opacity:.35;fill:#fff;fill-opacity:1;stroke:none"/><path id="path3783" d="m 134.00003,552.85825 -0.8125,0.65625 -5.18749,4.375 0,0 0,0 5.18749,4.375 0.8125,0.65625 0,-1.03125 0,-1.5 2.5,0 0.5,0 0,-1 -0.5,0 -3,0 -0.5,0 0,0.5 0,0.96875 -3.40624,-2.96875 3.40624,-2.96875 0,0.96875 0,0.5 0.5,0 2.50002,0 0,-1 -2.00002,0 0,-1.5 z" style="color:#000;opacity:.35;fill:#fff;fill-opacity:1;stroke:none"/><path id="path6053-9-8" d="m 139.00005,554.3895 -10e-6,4 0.25,2 1.5,0 0.25,-2 10e-6,-4 z m 0,7 0,2 2,0 0,-2 z" style="color:#444;fill:#ef2929;stroke:none"/></g></svg>