<svg xmlns="http://www.w3.org/2000/svg" xmlns:osb="http://www.openswatchbook.org/uri/2009/osb" xmlns:svg="http://www.w3.org/2000/svg" id="svg6530" width="24" height="24" version="1.1" viewBox="0 0 24 24"><defs id="defs6532"><linearGradient id="linearGradient5606" osb:paint="solid"><stop id="stop5608" offset="0" style="stop-color:#000;stop-opacity:1"/></linearGradient></defs><metadata id="metadata6535"/><g id="layer1" transform="translate(-172.00002,-568.3895)" style="display:inline"><path id="rect5137-0" d="m 183.00023,572.38895 c -2.01566,0 -4,2.02594 -4,4 l 0,2 1,0 0,-2 c 0,-1.662 1.338,-3 3,-3 l 2,0 c 1.662,0 3,1.338 3,3 l 0,2 1,0 0,-2 c 0,-1.99486 -1.96353,-4 -4,-4 l -2,0 z m -5,7 0,1 0,1 0,0.5 0,1.25 0,0.25 0,0.5 0,1.5 0,0.5 0,0.5 0,0.5 c 0,0.831 0.669,1.5 1.5,1.5 l 9,0 c 0.831,0 1.5,-0.669 1.5,-1.5 l 0,-0.5 0,-0.5 0,-0.5 0,-1.5 0,-0.5 0,-0.25 0,-1.25 0,-0.5 0,-1 0,-1 -12,0 z m 1,1 10,0 0,1 -1.25,0 0,0.5 1.25,0 0,1.25 0,0.25 -1.25,0 0,0.5 1.25,0 0,1.5 -1.25,0 0,0.5 1.25,0 0,0.5 0,0.5 c 0,0.2943 -0.2057,0.5 -0.5,0.5 l -9,0 c -0.2943,0 -0.5,-0.2057 -0.5,-0.5 l 0,-0.5 0,-0.5 1.25,0 0,-0.5 -1.25,0 0,-1.5 1.25,0 0,-0.5 -1.25,0 0,-0.25 0,-1.25 1.25,0 0,-0.5 -1.25,0 0,-1 z m 4.75,1 c -0.9695,0 -1.75,0.7805 -1.75,1.75 0,0.70227 0.40576,1.31463 1,1.59375 l 0,1.65625 2,0 0,-1.65625 c 0.59424,-0.27912 1,-0.89148 1,-1.59375 0,-0.9695 -0.7805,-1.75 -1.75,-1.75 l -0.5,0 z" style="color:#bebebe;display:inline;overflow:visible;visibility:visible;fill:#fff;fill-opacity:1;fill-rule:nonzero;stroke:none;stroke-width:1;marker:none;enable-background:accumulate"/></g></svg>