<svg xmlns="http://www.w3.org/2000/svg" xmlns:osb="http://www.openswatchbook.org/uri/2009/osb" xmlns:svg="http://www.w3.org/2000/svg" id="svg6530" width="24" height="24" version="1.1" viewBox="0 0 24 24"><defs id="defs6532"><linearGradient id="linearGradient5606" osb:paint="solid"><stop id="stop5608" offset="0" style="stop-color:#000;stop-opacity:1"/></linearGradient></defs><metadata id="metadata6535"/><g id="layer1" transform="translate(-148.00019,-904.35921)" style="display:inline"><path id="rect7811" d="m 159.00016,914.35884 0,4 0.25,2 1.5,0 0.25,-2 0,-4 z m 0,7 0,2 2,0 0,-2 z" class="error" style="color:#bebebe;display:inline;overflow:visible;visibility:visible;fill:#ef2929;fill-opacity:1;stroke:none;stroke-width:2;marker:none;enable-background:accumulate"/><path id="path5914" d="m 159.99996,908.3622 c -2.07107,0 -3.83471,1.26792 -4.59375,3.0625 -1.92783,0.2866 -3.40625,1.92992 -3.40625,3.9375 0,2.20914 1.79086,4 4,4 l 2,0 0,-6 4,0 0,6 2.5,0 c 1.933,0 3.5,-1.567 3.5,-3.5 0,-1.79654 -1.35079,-3.2687 -3.09375,-3.46875 -0.45457,-2.29339 -2.47938,-4.03125 -4.90625,-4.03125 z" style="display:inline;fill:#fff;fill-opacity:1;stroke:none;enable-background:new"/></g></svg>