<svg xmlns="http://www.w3.org/2000/svg" xmlns:osb="http://www.openswatchbook.org/uri/2009/osb" xmlns:svg="http://www.w3.org/2000/svg" id="svg6530" width="24" height="24" version="1.1" viewBox="0 0 24 24"><defs id="defs6532"><linearGradient id="linearGradient5606" osb:paint="solid"><stop id="stop5608" offset="0" style="stop-color:#000;stop-opacity:1"/></linearGradient></defs><metadata id="metadata6535"/><g id="layer1" transform="translate(-28.000174,-904.3588)" style="display:inline"><path id="path6112" d="m 40.00016,908.3588 -0.5,1.03125 c 0.16526,-0.0117 0.33177,-0.0312 0.5,-0.0312 0.16823,0 0.33474,0.0196 0.5,0.0312 l -0.5,-1.03125 z m 0,2 c -3.31371,0 -6,2.68629 -6,6 0,3.31371 2.68629,6 6,6 3.31371,0 6,-2.68629 6,-6 0,-3.31371 -2.68629,-6 -6,-6 z m -5.65625,0.34375 0.375,1.09375 c 0.21793,-0.25121 0.46754,-0.50082 0.71875,-0.71875 l -1.09375,-0.375 z m 11.3125,0 -1.09375,0.375 c 0.25121,0.21793 0.50082,0.46754 0.71875,0.71875 l 0.375,-1.09375 z m -12.625,5.15625 -1.03125,0.5 1.03125,0.5 c -0.0117,-0.16526 -0.0312,-0.33177 -0.0312,-0.5 0,-0.16823 0.0196,-0.33474 0.0312,-0.5 z m 13.9375,0 c 0.0117,0.16526 0.0312,0.33177 0.0312,0.5 0,0.16823 -0.0196,0.33474 -0.0312,0.5 l 1.03125,-0.5 -1.03125,-0.5 z m -12.25,5.0625 -0.375,1.09375 1.09375,-0.375 c -0.25121,-0.21793 -0.50082,-0.46754 -0.71875,-0.71875 z m 10.5625,0 c -0.21793,0.25121 -0.46754,0.50082 -0.71875,0.71875 l 1.09375,0.375 -0.375,-1.09375 z m -5.78125,2.40625 0.5,1.03125 0.5,-1.03125 c -0.16526,0.0117 -0.33177,0.0312 -0.5,0.0312 -0.16823,0 -0.33474,-0.0196 -0.5,-0.0312 z" style="color:#bebebe;display:inline;overflow:visible;visibility:visible;fill:#fff;fill-opacity:1;stroke:none;stroke-width:2;marker:none;enable-background:accumulate"/></g></svg>